<svg id="Group_1164" data-name="Group 1164" xmlns="http://www.w3.org/2000/svg" xmlns:xlink="http://www.w3.org/1999/xlink" width="22.061" height="29.352" viewBox="0 0 22.061 29.352">
  <defs>
    <clipPath id="clip-path">
      <rect id="Rectangle_690" data-name="Rectangle 690" width="22.061" height="29.352" fill="#2d3ddf" stroke="#2d3ddf" stroke-width="0.5"/>
    </clipPath>
  </defs>
  <g id="Group_1163" data-name="Group 1163" clip-path="url(#clip-path)">
    <path id="Path_8218" data-name="Path 8218" d="M3.177,29.352c-.065-.053-.133-.1-.193-.159a.572.572,0,0,1,.334-.988c.1-.011.206-.011.344-.018,0-.118,0-.219,0-.322q0-1.533,0-3.067c0-.576.2-.767.78-.768H5.4V22.764c0-.965.073-1.038,1.043-1.038H9.269c-.033-.125-.052-.216-.081-.3q-1-3.088-2.007-6.176a.558.558,0,0,0-.365-.389c-2.106-.82-4.208-1.65-6.313-2.472-.256-.1-.467-.22-.5-.523a.638.638,0,0,1,.388-.641c.41-.244.81-.5,1.219-.751a.56.56,0,0,1,.841.16.559.559,0,0,1-.239.825c-.1.067-.207.132-.346.22.664.262,1.291.511,1.919.758,1.269.5,2.536,1,3.809,1.491a.9.9,0,0,1,.571.619c.74,2.3,1.494,4.588,2.231,6.885.074.23.17.322.415.3a5.919,5.919,0,0,1,.888,0c.215.016.3-.074.361-.263q.944-2.685,1.9-5.365c.188-.528.317-.62.864-.572,1.76.153,3.519.313,5.278.469.073.007.148,0,.252,0-.06-.108-.107-.2-.16-.285-.969-1.6-1.931-3.2-2.914-4.8a1.058,1.058,0,0,1-.1-1.043c.7-1.794,1.374-3.6,2.057-5.4.033-.088.064-.176.114-.314-.43.117-.822.221-1.212.329-1.525.425-3.051.845-4.573,1.282a.843.843,0,0,1-.842-.186Q10.472,3.733,8.2,1.9c-.05-.041-.1-.077-.2-.147-.042.634-.083,1.228-.12,1.822C7.8,4.934,7.713,6.3,7.636,7.661a.776.776,0,0,1-.434.716c-.186.1-.355.226-.54.323A.549.549,0,0,1,5.9,8.476a.506.506,0,0,1,.176-.745c.382-.188.431-.473.451-.851C6.636,4.8,6.776,2.724,6.9.646A.629.629,0,0,1,7.275.052a.587.587,0,0,1,.658.137Q10.521,2.3,13.109,4.406a.573.573,0,0,0,.59.132c2.082-.592,4.169-1.167,6.254-1.747l.137-.04a.606.606,0,0,1,.658.157.593.593,0,0,1,.077.669q-.755,1.978-1.5,3.958c-.312.82-.618,1.642-.942,2.458a.58.58,0,0,0,.049.581c1.16,1.9,2.308,3.8,3.464,5.7a.631.631,0,0,1,.087.718.657.657,0,0,1-.7.278c-2.025-.187-4.051-.364-6.077-.548-.133-.012-.227-.023-.285.143-.56,1.592-1.129,3.181-1.695,4.771a.352.352,0,0,0,0,.089h.5c.85,0,1.7,0,2.551,0a.582.582,0,0,1,.668.666c0,.533,0,1.066,0,1.639h.961c.581,0,.779.194.78.769q0,1.533,0,3.067v.324c.11,0,.184.01.258.011a.576.576,0,0,1,.328,1.064c-.037.026-.069.058-.1.087Zm5.229-1.174h5.529V25.211H8.406ZM6.567,24.012h9.205V22.9H6.567Zm-1.72,4.167H7.231V25.205H4.847Zm10.274,0h2.391V25.2H15.121Z" transform="translate(0 0)" fill="#2d3ddf" stroke="#2d3ddf" stroke-width="0.5"/>
    <path id="Path_8219" data-name="Path 8219" d="M47.734,117.354a.572.572,0,0,1,.578.555.592.592,0,0,1-.576.594.581.581,0,0,1-.573-.592.563.563,0,0,1,.571-.557" transform="translate(-43.55 -108.366)" fill="#2d3ddf" stroke="#2d3ddf" stroke-width="0.5"/>
  </g>
</svg>
