<svg id="Group_967" data-name="Group 967" xmlns="http://www.w3.org/2000/svg" xmlns:xlink="http://www.w3.org/1999/xlink" width="31.161" height="26.325" viewBox="0 0 31.161 26.325">
  <defs>
    <clipPath id="clip-path">
      <rect id="Rectangle_635" data-name="Rectangle 635" width="31.161" height="26.325" fill="#2d3ddf" stroke="#2d3ddf" stroke-width="0.5"/>
    </clipPath>
  </defs>
  <g id="Group_966" data-name="Group 966" clip-path="url(#clip-path)">
    <path id="Path_1652" data-name="Path 1652" d="M31.161,23.068a10.51,10.51,0,0,1-.739,1.382,4.441,4.441,0,0,1-3.681,1.864c-.892.014-1.785,0-2.678,0a.471.471,0,0,1-.521-.326c-.1-.334.13-.6.554-.6.832-.006,1.664.011,2.5-.008a5.545,5.545,0,0,0,1.112-.128A3.518,3.518,0,0,0,29.979,23.4H1.18a2.944,2.944,0,0,0,.878,1.126,3.546,3.546,0,0,0,2.2.855c.162.006.324.007.487.007q8.551,0,17.1,0a.793.793,0,0,1,.441.06.641.641,0,0,1,.269.445c-.013.143-.2.294-.343.392-.086.059-.236.028-.357.028q-8.612,0-17.224,0A4.525,4.525,0,0,1,.774,24.492a6.921,6.921,0,0,1-.733-1.421c-.137-.319.092-.6.458-.612.333-.013.666,0,1.016,0-.013-.256-.034-.486-.034-.715q0-5.478,0-10.955a2.246,2.246,0,0,1,.028-.393.405.405,0,0,1,.424-.359.412.412,0,0,1,.453.361,2.1,2.1,0,0,1,.028.393q0,5.478,0,10.955c0,.608.1.711.7.711H6.528c-.112-.1-.171-.157-.237-.207a5.733,5.733,0,0,1-2.133-6.241,5.5,5.5,0,0,1,2.68-3.393.587.587,0,0,0,.36-.608c-.024-.933-.009-1.866-.009-2.8,0-.558.138-.693.7-.693H9.247c0-.751.015-1.469-.008-2.185-.008-.261-.221-.367-.476-.367H7.029q-2.008,0-4.017,0c-.467,0-.594.127-.6.6,0,.609,0,1.217,0,1.826a1.787,1.787,0,0,1-.02.3.423.423,0,0,1-.459.394A.418.418,0,0,1,1.5,8.693a1.424,1.424,0,0,1-.021-.242c0-.639-.007-1.278,0-1.917a1.367,1.367,0,0,1,1.492-1.5c.191,0,.382,0,.6,0,.007-.12.017-.217.017-.314,0-.629-.008-1.258,0-1.887A1.334,1.334,0,0,1,4.907,1.474c.618-.026,1.238-.027,1.856,0A1.346,1.346,0,0,1,8.081,2.9c.011.7,0,1.4,0,2.139.243,0,.463,0,.682,0a1.334,1.334,0,0,1,1.411,1.413c.01.568,0,1.136,0,1.7v.356h1.005c1.022,0,1.025,0,1.025,1.041v1.5a4.844,4.844,0,0,1,4.26-1.589c-.294-.233-.6-.451-.881-.7a6.5,6.5,0,0,1-2.229-5.392c.021-.449.139-.563.593-.6a6.475,6.475,0,0,1,3.683.827c.105.058.208.121.342.2.09-.285.168-.55.259-.811A6.486,6.486,0,0,1,20.15.187a.489.489,0,0,1,.774.008,6.563,6.563,0,0,1,2.082,3.358c.015.059.034.117.054.174.006.018.023.031.007.01.61-.248,1.2-.527,1.808-.725a5.656,5.656,0,0,1,2.315-.231c.365.037.494.174.511.545a6.514,6.514,0,0,1-2.954,6c-.055.038-.107.08-.234.177.465,0,.844,0,1.224,0a4.151,4.151,0,0,1,4.117,3.225,2.909,2.909,0,0,1,.09.661c.008,1.988.019,3.976,0,5.964a3.95,3.95,0,0,1-1.315,2.909,1.208,1.208,0,0,1-.15.105l.028.083h.371c.538,0,1.076.012,1.613,0a.69.69,0,0,1,.669.313ZM15.413,18.576a.4.4,0,0,0,.083.025c2.738,0,5.476.01,8.214,0a1.372,1.372,0,0,0,1.388-.979,3.01,3.01,0,0,0,.088-.81,1.472,1.472,0,0,0-1.649-1.652H16.024a1.591,1.591,0,0,1-.333-.015.454.454,0,0,1,.013-.893,1.416,1.416,0,0,1,.273-.011c2.535,0,5.071,0,7.606,0a2.261,2.261,0,0,1,2.295,1.387,2.936,2.936,0,0,1-.251,2.955,2.339,2.339,0,0,1-2.035.954q-4.077,0-8.154,0a.357.357,0,0,0-.405.256,5.6,5.6,0,0,1-1.937,2.483c-.058.043-.109.1-.211.187H25.569c.132,0,.264,0,.4-.006a3.221,3.221,0,0,0,3.059-3.055c.026-1.967.014-3.935,0-5.9a2.889,2.889,0,0,0-.651-1.766,3.257,3.257,0,0,0-2.749-1.291c-3.265.01-6.531,0-9.8,0-.263,0-.527.01-.79.03a3.146,3.146,0,0,0-2.584,2.047,5.858,5.858,0,0,1,2.959,6.059m-7.3-6.941c0,.359,0,.682,0,1.005a.509.509,0,0,1-.317.507c-.119.055-.235.119-.352.179a4.84,4.84,0,1,0,6.8,2.627,4.762,4.762,0,0,0-2.527-2.739.685.685,0,0,1-.451-.738c.016-.278,0-.557,0-.841ZM20.531,9.3a5.654,5.654,0,0,0,.008-8.185A5.651,5.651,0,0,0,20.531,9.3m6.249-5.575c-.037-.016-.055-.03-.073-.031a5.43,5.43,0,0,0-3.353,1.071.46.46,0,0,0-.131.332,6.644,6.644,0,0,1-1.386,4.159c-.045.058-.078.125-.127.2a5.652,5.652,0,0,0,5.07-5.736m-7.4,5.729a6.077,6.077,0,0,1-1.487-3.822,1.3,1.3,0,0,0-.937-1.341c-.093-.04-.181-.091-.274-.13A5.386,5.386,0,0,0,14.3,3.695,5.621,5.621,0,0,0,19.379,9.45M7.148,5.026c0-.762.012-1.489-.006-2.214-.007-.29-.188-.415-.526-.419q-.774-.01-1.548,0c-.4.005-.552.156-.556.553-.006.526,0,1.052,0,1.578,0,.166,0,.332,0,.5Zm4.109,4.432H8.141v1.233h3.117Z" transform="translate(0 0)" fill="#2d3ddf" stroke="#2d3ddf" stroke-width="0.5"/>
  </g>
</svg>
