<svg id="Group_1086" data-name="Group 1086" xmlns="http://www.w3.org/2000/svg" xmlns:xlink="http://www.w3.org/1999/xlink" width="38.93" height="30.774" viewBox="0 0 38.93 30.774">
  <defs>
    <clipPath id="clip-path">
      <rect id="Rectangle_676" data-name="Rectangle 676" width="38.93" height="30.774" fill="#2d3ddf" stroke="#2d3ddf" stroke-width="0.5"/>
    </clipPath>
  </defs>
  <g id="Group_1085" data-name="Group 1085" clip-path="url(#clip-path)">
    <path id="Path_1690" data-name="Path 1690" d="M0,21.088c.391-.535.712-.541,1.144-.022a4,4,0,0,0,6.161.269.958.958,0,0,0,.236-.594c.022-1.216.011-2.433.011-3.649a3.041,3.041,0,0,1,.007-.342.551.551,0,0,1,.6-.546.527.527,0,0,1,.527.579c.008.7,0,1.394.005,2.091a9.247,9.247,0,0,1-.012,1.367,1.53,1.53,0,0,0,.828,1.6c.184.123.374.239.628.4V21.7q0-7.28,0-14.56a4.273,4.273,0,0,1,2.552-4.185,4.224,4.224,0,0,1,5.936,3.691c.034,1.317.01,2.636.012,3.954,0,.137,0,.274,0,.438H20.06c.007-.1.022-.2.022-.314,0-1.28.01-2.56,0-3.84a5.739,5.739,0,0,0-4.8-5.679,5.669,5.669,0,0,0-6.531,5.02C8.659,7.478,8.7,8.736,8.7,9.991c-.007,1.369,0,2.737,0,4.106,0,.1,0,.2,0,.3-.017.4-.221.632-.553.638s-.578-.239-.586-.651c-.011-.57,0-1.14,0-1.711,0-.138,0-.275,0-.467H.916a2.731,2.731,0,0,1-.38-.01.51.51,0,0,1-.477-.5.508.508,0,0,1,.385-.579,1.642,1.642,0,0,1,.45-.045q3.079,0,6.159,0h.5c0-.183,0-.33,0-.477.013-1.457-.044-2.918.053-4.37A6.81,6.81,0,0,1,20.494,3.8c.036.067.069.135.105.2a.39.39,0,0,0,.049.05c.056-.095.113-.181.159-.273A6.821,6.821,0,0,1,33.692,6.014a14.871,14.871,0,0,1,.068,1.706c.01,1.1,0,2.2,0,3.329.166.007.3.019.435.019,1.305,0,2.61,0,3.916,0,.15,0,.349-.021.439.061a1.043,1.043,0,0,1,.355.558.472.472,0,0,1-.462.507,3.006,3.006,0,0,1-.417.012H23.834c-.009.166-.021.289-.021.412,0,2.7-.007,5.4.01,8.1a1,1,0,0,0,.255.624,4.007,4.007,0,0,0,6.137-.26c.449-.539.728-.537,1.178.009a4.041,4.041,0,0,0,6.324.056c.049-.058.1-.118.145-.176a.581.581,0,0,1,.86-.145.566.566,0,0,1,.037.845,5.256,5.256,0,0,1-3.057,1.99,5.04,5.04,0,0,1-4.587-1.223c-.1-.083-.186-.171-.313-.288a5.166,5.166,0,0,1-7.548.009,5.194,5.194,0,0,1-7.543.019c-2.523,2.177-5.054,2.185-7.608,0a5.544,5.544,0,0,1-2.329,1.417A5.231,5.231,0,0,1,.119,21.607C.083,21.558.04,21.514,0,21.468v-.38M32.621,11.06c0-.488.007-.941,0-1.394a36.263,36.263,0,0,0-.094-3.68,5.68,5.68,0,0,0-11.3.922q-.011,7.47,0,14.94c0,.107.011.214.023.43.4-.3.725-.553,1.051-.8a.972.972,0,0,0,.378-.852c-.015-3.649-.009-7.3-.009-10.948,0-.938-.02-1.876.006-2.813A4.261,4.261,0,0,1,28.13,2.765a4.323,4.323,0,0,1,3.036,4.812.564.564,0,0,1-1.121-.006c-.029-.289,0-.583-.016-.874A3.106,3.106,0,0,0,26.2,3.818a3.186,3.186,0,0,0-2.389,3.14c-.013,1.254,0,2.509,0,3.763,0,.108.015.216.023.319h6.2c0-.395,0-.761,0-1.126.005-.413.22-.671.557-.68s.578.258.583.692c0,.375,0,.751,0,1.134Zm-15.135-.007c0-1.538.055-3.032-.014-4.521a3.077,3.077,0,0,0-3.7-2.739A3.181,3.181,0,0,0,11.286,7c-.015,1.253,0,2.506,0,3.759a2.4,2.4,0,0,0,.036.292Zm2.583,7.917h-8.76v3.637a4.092,4.092,0,0,0,3.837-1.579c.382-.458.709-.46,1.082,0a4.306,4.306,0,0,0,1.734,1.318,3.658,3.658,0,0,0,2.106.241Zm-.013-6.73H11.314V15.03h8.742ZM11.3,17.767h8.759V16.222H11.3Z" transform="translate(0 0)" fill="#2d3ddf" stroke="#2d3ddf" stroke-width="0.5"/>
    <path id="Path_1691" data-name="Path 1691" d="M180.9,273.885a5.234,5.234,0,0,1-7.556.025c-.375.279-.74.57-1.125.83a.567.567,0,0,1-.862-.119c-.187-.29-.077-.575.248-.84a16.272,16.272,0,0,0,1.236-1.111.6.6,0,0,1,1,.025,4.035,4.035,0,0,0,6.539.019.589.589,0,0,1,1.036.005,4.029,4.029,0,0,0,6.513,0c.279-.333.616-.4.885-.177s.262.558-.009.908a5.158,5.158,0,0,1-7.624.682l-.278-.246" transform="translate(-153.866 -244.735)" fill="#2d3ddf" stroke="#2d3ddf" stroke-width="0.5"/>
    <path id="Path_1692" data-name="Path 1692" d="M45.367,273.879a5.309,5.309,0,0,1-2.882,1.551,5.151,5.151,0,0,1-5.08-2.048.569.569,0,1,1,.888-.7,4.17,4.17,0,0,0,2.389,1.581,3.982,3.982,0,0,0,4-1.337c.068-.075.128-.157.194-.233a.578.578,0,0,1,.988.008,4.166,4.166,0,0,0,3.186,1.671c.433.016.693.276.668.616s-.294.533-.744.522a5.031,5.031,0,0,1-3.126-1.2c-.156-.127-.3-.265-.484-.423" transform="translate(-33.461 -244.743)" fill="#2d3ddf" stroke="#2d3ddf" stroke-width="0.5"/>
  </g>
</svg>
