<svg xmlns="http://www.w3.org/2000/svg" xmlns:xlink="http://www.w3.org/1999/xlink" width="26.129" height="24.5" viewBox="0 0 26.129 24.5">
  <defs>
    <clipPath id="clip-path">
      <rect id="Rectangle_636" data-name="Rectangle 636" width="26.129" height="24.5" fill="#2d3ddf"/>
    </clipPath>
  </defs>
  <g id="Group_975" data-name="Group 975" transform="translate(-44 -1060)">
    <g id="Group_974" data-name="Group 974" transform="translate(44 1060)">
      <g id="Group_973" data-name="Group 973" clip-path="url(#clip-path)">
        <path id="Path_1653" data-name="Path 1653" d="M26.129,16.232v1.225a1.487,1.487,0,0,0-.045.195,7.65,7.65,0,0,1-14.829,1.73c-.116-.326-.2-.662-.3-1.006h-.307q-4.108,0-8.215,0A2.3,2.3,0,0,1,0,15.94q0-6.749,0-13.5A2.3,2.3,0,0,1,2.448,0H20.614a2.3,2.3,0,0,1,2.453,2.461q0,3.981-.005,7.962a.558.558,0,0,0,.233.49,7.4,7.4,0,0,1,2.529,3.829c.136.487.205.993.3,1.49m-1.531.622a6.124,6.124,0,1,0-6.128,6.115A6.134,6.134,0,0,0,24.6,16.854M10.8,16.844A7.71,7.71,0,0,1,21.516,9.8V7.671H1.531v.288q0,3.981,0,7.961c0,.635.285.923.913.923H10.8ZM21.536,4.611H1.551v1.5h19.97a.915.915,0,0,0,.014-.107c0-.458,0-.917,0-1.4m0-1.56c0-.209,0-.387,0-.565,0-.682-.274-.954-.959-.954H2.493c-.068,0-.136,0-.2,0A.712.712,0,0,0,1.57,2.1a6.218,6.218,0,0,0-.01.946Z" transform="translate(0 0)" fill="#2d3ddf"/>
        <path id="Path_1654" data-name="Path 1654" d="M217.981,216.929l3.12-3.122c.066-.066.13-.136.2-.195a.763.763,0,0,1,1.087,1.063,1.929,1.929,0,0,1-.157.168q-1.794,1.795-3.588,3.589a.809.809,0,0,1-1.336.006c-.716-.715-1.435-1.426-2.144-2.148a.766.766,0,1,1,1.095-1.069l1.516,1.514c.059.059.121.115.2.194" transform="translate(-200.264 -198.877)" fill="#2d3ddf"/>
        <path id="Path_1655" data-name="Path 1655" d="M48.039,158.772c-.747,0-1.495,0-2.242,0a.771.771,0,1,1,.008-1.53h4.484a.772.772,0,1,1-.008,1.531H48.039" transform="translate(-41.874 -146.522)" fill="#2d3ddf"/>
        <path id="Path_1656" data-name="Path 1656" d="M48.073,202.166c.747,0,1.495,0,2.242,0a.768.768,0,1,1,.012,1.53q-2.28,0-4.56,0a.768.768,0,1,1,.013-1.53c.764,0,1.528,0,2.293,0" transform="translate(-41.872 -188.385)" fill="#2d3ddf"/>
      </g>
    </g>
  </g>
</svg>
