<svg xmlns="http://www.w3.org/2000/svg" xmlns:xlink="http://www.w3.org/1999/xlink" width="25.35" height="25.352" viewBox="0 0 25.35 25.352">
  <defs>
    <clipPath id="clip-path">
      <rect id="Rectangle_703" data-name="Rectangle 703" width="25.35" height="25.352" transform="translate(0 0)" fill="#2d3ddf"/>
    </clipPath>
  </defs>
  <g id="Group_1236" data-name="Group 1236" transform="translate(0 0)">
    <g id="Group_1236-2" data-name="Group 1236" transform="translate(0 0)" clip-path="url(#clip-path)">
      <path id="Path_8243" data-name="Path 8243" d="M25.35,37.833a.975.975,0,0,1-1.022.6Q12.656,38.42.984,38.426a1.8,1.8,0,0,1-.345-.017.79.79,0,0,1,.124-1.564c.2-.008.393,0,.6,0,.209-.835.413-1.649.618-2.462a.81.81,0,0,1,.9-.707q1.188,0,2.376,0h.279V32.487H3.344c-.566,0-.918-.26-.964-.711s.232-.765.786-.894a9.566,9.566,0,0,1,8.7-9.851V19.814c-.392,0-.785.008-1.177,0a.787.787,0,0,1-.731-1.078.735.735,0,0,1,.7-.5q2-.013,4.01,0a.789.789,0,0,1,0,1.578c-.393.01-.787,0-1.193,0V21.03a9.563,9.563,0,0,1,8.7,9.855c.062.014.117.023.17.037a.791.791,0,0,1-.187,1.563c-.718.006-1.436,0-2.154,0h-.189v1.188h.263q1.2,0,2.4,0a.809.809,0,0,1,.883.7c.2.815.408,1.629.619,2.473.548-.027,1.11-.056,1.361.593ZM4.741,30.885H20.609a7.772,7.772,0,0,0-3.833-7.13,7.5,7.5,0,0,0-8.247.028,7.766,7.766,0,0,0-3.789,7.1M3,36.833h19.35l-.388-1.558H3.387c-.13.523-.256,1.033-.387,1.558m15.2-4.328H7.142v1.158H18.2Z" transform="translate(0 -13.082)" fill="#2d3ddf"/>
      <path id="Path_8244" data-name="Path 8244" d="M43.059,0a.939.939,0,0,1,.6,1.021c-.026.436,0,.874-.006,1.311a.792.792,0,1,1-1.582,0c0-.437.019-.875-.006-1.311a.934.934,0,0,1,.6-1.02Z" transform="translate(-30.186 0)" fill="#2d3ddf"/>
      <path id="Path_8245" data-name="Path 8245" d="M81.737,43.049a.94.94,0,0,1-1.022.6c-.436-.025-.874,0-1.311-.006a.792.792,0,1,1,0-1.582c.437,0,.875.019,1.311-.006a.939.939,0,0,1,1.022.6Z" transform="translate(-56.387 -30.178)" fill="#2d3ddf"/>
      <path id="Path_8246" data-name="Path 8246" d="M1.6,42.075c.264,0,.528-.006.792,0A.789.789,0,0,1,2.4,43.655q-.816.017-1.633,0a.789.789,0,0,1,.012-1.578c.272-.008.544,0,.816,0" transform="translate(-0.002 -30.194)" fill="#2d3ddf"/>
      <path id="Path_8247" data-name="Path 8247" d="M13.219,12.3a1.851,1.851,0,0,1,.451.249c.389.356.757.735,1.123,1.115a.788.788,0,0,1-1.112,1.117q-.579-.558-1.137-1.137a.743.743,0,0,1-.15-.869.833.833,0,0,1,.824-.476" transform="translate(-8.84 -8.828)" fill="#2d3ddf"/>
      <path id="Path_8248" data-name="Path 8248" d="M70.589,13.208a1.927,1.927,0,0,1-.256.464c-.349.384-.724.745-1.1,1.106a.789.789,0,1,1-1.126-1.1q.558-.579,1.138-1.136a.74.74,0,0,1,.848-.152.836.836,0,0,1,.494.824" transform="translate(-48.71 -8.837)" fill="#2d3ddf"/>
    </g>
  </g>
</svg>
