<svg xmlns="http://www.w3.org/2000/svg" xmlns:xlink="http://www.w3.org/1999/xlink" width="179" height="34" viewBox="0 0 179 34">
  <defs>
    <clipPath id="clip-path">
      <rect id="Rectangle_660" data-name="Rectangle 660" width="12.171" height="12.171" fill="#fff"/>
    </clipPath>
  </defs>
  <g id="Group_1112" data-name="Group 1112" transform="translate(-1048 -597)">
    <g id="Path_8241" data-name="Path 8241" transform="translate(1048 597)" fill="rgba(10,21,139,0.7)">
      <path d="M 175 33.5 L 4 33.5 C 2.070091009140015 33.5 0.5 31.92990875244141 0.5 30 L 0.5 4 C 0.5 2.070091009140015 2.070091009140015 0.5 4 0.5 L 175 0.5 C 176.9299163818359 0.5 178.5 2.070091009140015 178.5 4 L 178.5 30 C 178.5 31.92990875244141 176.9299163818359 33.5 175 33.5 Z" stroke="none"/>
      <path d="M 4 1 C 2.345794677734375 1 1 2.345794677734375 1 4 L 1 30 C 1 31.65420532226562 2.345794677734375 33 4 33 L 175 33 C 176.6542053222656 33 178 31.65420532226562 178 30 L 178 4 C 178 2.345794677734375 176.6542053222656 1 175 1 L 4 1 M 4 0 L 175 0 C 177.2091369628906 0 179 1.790863037109375 179 4 L 179 30 C 179 32.20913696289062 177.2091369628906 34 175 34 L 4 34 C 1.790863037109375 34 0 32.20913696289062 0 30 L 0 4 C 0 1.790863037109375 1.790863037109375 0 4 0 Z" stroke="none" fill="#fff"/>
    </g>
    <g id="Group_1001" data-name="Group 1001" transform="translate(-32.775 90)">
      <g id="Group_1000" data-name="Group 1000" transform="translate(1089.775 518.318)">
        <g id="Group_999" data-name="Group 999" transform="translate(0 0)" clip-path="url(#clip-path)">
          <path id="Path_1673" data-name="Path 1673" d="M.807,2.9c.209,0,.419,0,.628,0s.431,0,.646,0a.793.793,0,0,0,.793-.792c.007-.434.006-.869,0-1.3a.792.792,0,0,0-.8-.8C1.647,0,1.222,0,.8,0A.79.79,0,0,0,0,.795C0,1.229,0,1.664,0,2.1a.794.794,0,0,0,.8.8" transform="translate(0 0)" fill="#fff"/>
          <path id="Path_1674" data-name="Path 1674" d="M2.108,48.36q-.655-.011-1.31,0a.791.791,0,0,0-.779.786c-.006.217,0,.434,0,.651s0,.447,0,.67a.792.792,0,0,0,.78.785q.655.011,1.31,0a.789.789,0,0,0,.779-.786q.011-.66,0-1.321a.788.788,0,0,0-.78-.785" transform="translate(-0.015 -43.721)" fill="#fff"/>
          <path id="Path_1675" data-name="Path 1675" d="M2.1,96.729q-.646-.009-1.292,0a.793.793,0,0,0-.789.8c0,.211,0,.422,0,.633s0,.447,0,.67a.793.793,0,0,0,.789.795q.646.009,1.292,0a.791.791,0,0,0,.788-.8q.01-.651,0-1.3a.79.79,0,0,0-.789-.795" transform="translate(-0.016 -87.456)" fill="#fff"/>
          <path id="Path_1676" data-name="Path 1676" d="M49.687,2.9c.209,0,.419,0,.628,0s.431,0,.646,0a.793.793,0,0,0,.792-.792q.01-.651,0-1.3a.792.792,0,0,0-.8-.8C50.526,0,50.1,0,49.677,0a.79.79,0,0,0-.792.791c-.007.434-.006.869,0,1.3a.794.794,0,0,0,.8.8" transform="translate(-44.234 0)" fill="#fff"/>
          <path id="Path_1677" data-name="Path 1677" d="M50.989,48.36q-.655-.011-1.31,0a.791.791,0,0,0-.779.786c-.006.217,0,.434,0,.651s0,.447,0,.67a.792.792,0,0,0,.78.785q.655.011,1.31,0a.789.789,0,0,0,.779-.786q.011-.66,0-1.321a.788.788,0,0,0-.78-.785" transform="translate(-44.25 -43.721)" fill="#fff"/>
          <path id="Path_1678" data-name="Path 1678" d="M50.982,96.729q-.646-.009-1.292,0a.793.793,0,0,0-.789.8c0,.211,0,.422,0,.633s0,.447,0,.67a.793.793,0,0,0,.789.795q.646.009,1.292,0a.791.791,0,0,0,.788-.8q.01-.651,0-1.3a.79.79,0,0,0-.789-.795" transform="translate(-44.251 -87.456)" fill="#fff"/>
          <path id="Path_1679" data-name="Path 1679" d="M98.568,2.9c.209,0,.419,0,.628,0s.431,0,.646,0a.793.793,0,0,0,.792-.792q.01-.651,0-1.3a.792.792,0,0,0-.8-.8c-.425,0-.85-.005-1.274,0a.79.79,0,0,0-.792.791c-.007.434-.006.869,0,1.3a.794.794,0,0,0,.8.8" transform="translate(-88.469 0)" fill="#fff"/>
          <path id="Path_1680" data-name="Path 1680" d="M97.78,50.468a.792.792,0,0,0,.78.785q.655.011,1.31,0a.789.789,0,0,0,.779-.786q.011-.66,0-1.321a.788.788,0,0,0-.78-.785q-.655-.011-1.31,0a.791.791,0,0,0-.779.786c-.005.217,0,.434,0,.652s0,.446,0,.67" transform="translate(-88.484 -43.722)" fill="#fff"/>
          <path id="Path_1681" data-name="Path 1681" d="M99.862,96.729q-.646-.009-1.292,0a.793.793,0,0,0-.789.8c0,.211,0,.422,0,.633s0,.447,0,.67a.793.793,0,0,0,.789.795q.646.009,1.292,0a.791.791,0,0,0,.788-.8q.01-.651,0-1.3a.79.79,0,0,0-.789-.795" transform="translate(-88.486 -87.456)" fill="#fff"/>
        </g>
      </g>
      <text id="Show_all_photo" data-name="Show all photo" transform="translate(1180 529)" fill="#fff" font-size="14" font-family="Poppins-Medium, Poppins" font-weight="500" letter-spacing="0.1em"><tspan x="-69" y="0">SHOW ALL PHOTO</tspan></text>
    </g>
  </g>
</svg>
