<svg id="Group_982" data-name="Group 982" xmlns="http://www.w3.org/2000/svg" xmlns:xlink="http://www.w3.org/1999/xlink" width="30.7" height="18.423" viewBox="0 0 30.7 18.423">
  <defs>
    <clipPath id="clip-path">
      <rect id="Rectangle_654" data-name="Rectangle 654" width="30.7" height="18.423" fill="#9d9898"/>
    </clipPath>
  </defs>
  <g id="Group_981" data-name="Group 981" clip-path="url(#clip-path)">
    <path id="Path_1661" data-name="Path 1661" d="M15.374,18.423q-6.075,0-12.15-.007a4,4,0,0,1-1.131-.16A2.849,2.849,0,0,1,0,15.376C0,12.562,0,9.747,0,6.933Q0,5.062,0,3.191A2.989,2.989,0,0,1,3.175,0Q15.341,0,27.508,0a2.984,2.984,0,0,1,3.086,2.224,3.78,3.78,0,0,1,.1.885q.01,6.076,0,12.153a2.983,2.983,0,0,1-3.173,3.159q-6.075,0-12.15,0m-.01-2.047H24.89c.916,0,1.833.005,2.749,0a.917.917,0,0,0,1.008-.958c.008-.117,0-.234,0-.352q0-5.787,0-11.575c0-.17.005-.341,0-.511a.874.874,0,0,0-.784-.9,2.6,2.6,0,0,0-.477-.027H3.251a3.3,3.3,0,0,0-.351.008.838.838,0,0,0-.8.7,2.254,2.254,0,0,0-.048.506q0,5.979,0,11.958c0,.1,0,.192.007.288a.843.843,0,0,0,.719.82,2.517,2.517,0,0,0,.538.045q6.026,0,12.052,0" transform="translate(0 0)" fill="#9d9898"/>
    <rect id="Rectangle_639" data-name="Rectangle 639" width="14.296" height="2.007" transform="translate(8.203 12.305)" fill="#9d9898"/>
    <rect id="Rectangle_640" data-name="Rectangle 640" width="2.007" height="2.007" transform="translate(4.111 4.119)" fill="#9d9898"/>
    <rect id="Rectangle_641" data-name="Rectangle 641" width="2.007" height="2.008" transform="translate(8.213 4.117)" fill="#9d9898"/>
    <rect id="Rectangle_642" data-name="Rectangle 642" width="2.009" height="2.004" transform="translate(12.302 4.113)" fill="#9d9898"/>
    <rect id="Rectangle_643" data-name="Rectangle 643" width="2.008" height="2.007" transform="translate(16.39 4.119)" fill="#9d9898"/>
    <rect id="Rectangle_644" data-name="Rectangle 644" width="1.995" height="2.019" transform="translate(20.493 4.101)" fill="#9d9898"/>
    <rect id="Rectangle_645" data-name="Rectangle 645" width="2.005" height="2.011" transform="translate(24.577 4.109)" fill="#9d9898"/>
    <rect id="Rectangle_646" data-name="Rectangle 646" width="2.009" height="2.007" transform="translate(4.116 8.203)" fill="#9d9898"/>
    <rect id="Rectangle_647" data-name="Rectangle 647" width="2.007" height="2.007" transform="translate(8.204 8.213)" fill="#9d9898"/>
    <rect id="Rectangle_648" data-name="Rectangle 648" width="2.007" height="2.006" transform="translate(12.294 8.206)" fill="#9d9898"/>
    <rect id="Rectangle_649" data-name="Rectangle 649" width="2.011" height="2.006" transform="translate(16.394 8.206)" fill="#9d9898"/>
    <rect id="Rectangle_650" data-name="Rectangle 650" width="2.007" height="2.007" transform="translate(20.484 8.214)" fill="#9d9898"/>
    <rect id="Rectangle_651" data-name="Rectangle 651" width="2.007" height="2.007" transform="translate(24.576 8.213)" fill="#9d9898"/>
    <rect id="Rectangle_652" data-name="Rectangle 652" width="2.007" height="2.008" transform="translate(4.12 12.304)" fill="#9d9898"/>
    <rect id="Rectangle_653" data-name="Rectangle 653" width="2.007" height="2.013" transform="translate(24.582 12.302)" fill="#9d9898"/>
  </g>
</svg>
