<svg xmlns="http://www.w3.org/2000/svg" xmlns:xlink="http://www.w3.org/1999/xlink" width="50" height="50" viewBox="0 0 50 50">
  <defs>
    <filter id="Ellipse_70" x="0" y="0" width="50" height="50" filterUnits="userSpaceOnUse">
      <feOffset dy="3" input="SourceAlpha"/>
      <feGaussianBlur stdDeviation="3" result="blur"/>
      <feFlood flood-opacity="0.161"/>
      <feComposite operator="in" in2="blur"/>
      <feComposite in="SourceGraphic"/>
    </filter>
  </defs>
  <g id="Group_835" data-name="Group 835" transform="translate(-940 -351)">
    <g transform="matrix(1, 0, 0, 1, 940, 351)" filter="url(#Ellipse_70)">
      <circle id="Ellipse_70-2" data-name="Ellipse 70" cx="16" cy="16" r="16" transform="translate(9 6)" fill="#f90"/>
    </g>
    <g id="Group_812" data-name="Group 812" transform="translate(953 361)">
      <path id="Path_1362" data-name="Path 1362" d="M10.028,42.374c.34-.34.675-.679,1.019-1.019.395-.395.552-.412,1.01-.025a7.287,7.287,0,0,0,3.769,1.677A7.5,7.5,0,0,0,21.8,41.3c.382-.314.569-.318.913.025q1.063,1.057,2.122,2.122c.357.361.361.59-.025.93a11.912,11.912,0,0,1-15.7.123c-.535-.446-.539-.666-.038-1.163l.959-.959Z" transform="translate(-5.007 -23.63)" fill="#fff"/>
      <path id="Path_1363" data-name="Path 1363" d="M19.283,2.468c-.348-.344-.628-.34-.93.042-.458.577-.9,1.172-1.35,1.762-.7.913-1.392,1.829-2.088,2.742-.178.233-.42.378-.662.161a.834.834,0,0,1-.208-.573c-.013-1.961-.008-3.918-.008-5.879,0-.548-.17-.713-.713-.713H10.489c-.615,0-.743.127-.743.751,0,1.961.008,3.918-.017,5.879a.793.793,0,0,1-.318.586c-.246.157-.454-.055-.611-.263Q7.125,4.753,5.442,2.553c-.31-.407-.569-.437-.942-.072-.666.654-1.324,1.312-1.982,1.974-.467.471-.463.658,0,1.125Q4.559,7.616,6.6,9.65c.2.2.416.391.263.709s-.441.267-.717.229L.768,9.849C.212,9.773,0,9.959,0,10.511v2.755c0,.658.127.777.8.777H8.468s.543.013.535-.463a2.926,2.926,0,0,1,.887-1.753c1.982-1.982,4.716-.42,5.217,1.66a.749.749,0,0,0,.637.556H23c.662,0,.768-.106.768-.764v-2.67c0-.7-.166-.845-.866-.751-1.779.242-3.553.5-5.336.717a.812.812,0,0,1-.628-.216c-.212-.238-.021-.475.174-.671.7-.7,1.4-1.4,2.093-2.093h0c.709-.7,1.418-1.409,2.122-2.122.352-.352.352-.594.008-.947q-1.025-1.038-2.067-2.063Z" transform="translate(0 -0.01)" fill="#fff"/>
    </g>
  </g>
</svg>
