<svg id="rating" xmlns="http://www.w3.org/2000/svg" width="112.977" height="19.191" viewBox="0 0 112.977 19.191">
  <path id="Path_18" data-name="Path 18" d="M63.6,79.427l5.93,3.764-1.569-7.1,5.234-4.774-6.9-.623L63.6,64l-2.7,6.693-6.9.623,5.234,4.774-1.569,7.1Z" transform="translate(-54 -64)" fill="#dfa12d" opacity="0.999"/>
  <path id="Path_19" data-name="Path 19" d="M63.6,79.427l5.93,3.764-1.569-7.1,5.234-4.774-6.9-.623L63.6,64l-2.7,6.693-6.9.623,5.234,4.774-1.569,7.1Z" transform="translate(-30.554 -64)" fill="#dfa12d"/>
  <path id="Path_20" data-name="Path 20" d="M63.6,79.427l5.93,3.764-1.569-7.1,5.234-4.774-6.9-.623L63.6,64l-2.7,6.693-6.9.623,5.234,4.774-1.569,7.1Z" transform="translate(-7.107 -64)" fill="#dfa12d"/>
  <path id="Path_21" data-name="Path 21" d="M63.6,79.427l5.93,3.764-1.569-7.1,5.234-4.774-6.9-.623L63.6,64l-2.7,6.693-6.9.623,5.234,4.774-1.569,7.1Z" transform="translate(16.339 -64)" fill="#dfa12d"/>
  <path id="Path_22" data-name="Path 22" d="M63.6,79.427l5.93,3.764-1.569-7.1,5.234-4.774-6.9-.623L63.6,64l-2.7,6.693-6.9.623,5.234,4.774-1.569,7.1Z" transform="translate(39.786 -64)" fill="#dfa12d"/>
</svg>
