<svg xmlns="http://www.w3.org/2000/svg" width="17.961" height="18.567" viewBox="0 0 17.961 18.567">
  <g id="share" transform="translate(-13.3 0.5)">
    <path id="Path_72" data-name="Path 72" d="M27.541,11.286a3.247,3.247,0,0,0-2.548,1.226l-4.943-2.7A3.084,3.084,0,0,0,20.23,8.78a3.017,3.017,0,0,0-.183-1.04l4.939-2.692a3.239,3.239,0,0,0,2.552,1.233,3.184,3.184,0,0,0,3.217-3.141,3.218,3.218,0,0,0-6.433,0A3,3,0,0,0,24.5,4.18L19.568,6.872a3.228,3.228,0,0,0-2.552-1.233,3.142,3.142,0,1,0,0,6.281,3.244,3.244,0,0,0,2.555-1.237l4.939,2.7a3.06,3.06,0,0,0-.187,1.047,3.218,3.218,0,1,0,3.213-3.141Zm0-10.3a2.184,2.184,0,0,1,2.208,2.156,2.209,2.209,0,0,1-4.416,0A2.187,2.187,0,0,1,27.541.989ZM17.02,10.936A2.156,2.156,0,1,1,19.228,8.78,2.184,2.184,0,0,1,17.02,10.936Zm10.52,5.643a2.156,2.156,0,1,1,2.208-2.156A2.184,2.184,0,0,1,27.541,16.578Z" fill="#272d3b" stroke="#003aa8" stroke-width="1"/>
  </g>
</svg>
