<svg xmlns="http://www.w3.org/2000/svg" xmlns:xlink="http://www.w3.org/1999/xlink" width="218" height="38" viewBox="0 0 218 38">
  <defs>
    <linearGradient id="linear-gradient" x1="-0.207" y1="-0.911" x2="0.5" y2="0.919" gradientUnits="objectBoundingBox">
      <stop offset="0" stop-color="#c080ff"/>
      <stop offset="1" stop-color="#713dd2"/>
    </linearGradient>
    <linearGradient id="linear-gradient-2" x1="0" y1="0.5" x2="1" y2="0.5" xlink:href="#linear-gradient"/>
  </defs>
  <g id="Layer_1" data-name="Layer 1" transform="translate(0 -0.01)">
    <g id="Group_657" data-name="Group 657" transform="translate(0 0.01)">
      <path id="Path_1362" data-name="Path 1362" d="M10.458,42.8c.449-.449.893-.9,1.348-1.348.522-.522.73-.545,1.337-.034a9.642,9.642,0,0,0,4.987,2.218,9.921,9.921,0,0,0,7.9-2.263c.505-.416.753-.421,1.208.034q1.407,1.4,2.808,2.808c.472.477.477.781-.034,1.23a15.762,15.762,0,0,1-20.775.163c-.708-.59-.713-.882-.051-1.539L10.458,42.8Z" transform="translate(-3.814 -18)" fill="url(#linear-gradient)"/>
      <path id="Path_1363" data-name="Path 1363" d="M25.515,3.262c-.461-.455-.831-.449-1.23.056-.607.764-1.191,1.55-1.786,2.331-.921,1.208-1.842,2.421-2.763,3.628-.236.309-.556.5-.876.213a1.1,1.1,0,0,1-.275-.758c-.017-2.595-.011-5.184-.011-7.779,0-.725-.225-.944-.944-.944H13.878C13.064.01,12.9.178,12.9,1c0,2.595.011,5.184-.022,7.779a1.05,1.05,0,0,1-.421.775c-.326.208-.6-.073-.809-.348Q9.427,6.286,7.2,3.374c-.41-.539-.753-.578-1.247-.1C5.072,4.144,4.2,5.014,3.331,5.89c-.618.623-.612.871.006,1.488q2.7,2.7,5.392,5.386c.264.264.55.517.348.938s-.584.354-.949.3l-7.11-.977C.281,12.928,0,13.175,0,13.9V17.55c0,.871.168,1.028,1.061,1.028H11.2s.719.017.708-.612a3.872,3.872,0,0,1,1.174-2.32c2.623-2.623,6.24-.556,6.9,2.2a.991.991,0,0,0,.842.736h9.6c.876,0,1.017-.14,1.017-1.011V14.034c0-.927-.219-1.118-1.146-.994-2.353.32-4.7.657-7.06.949a1.075,1.075,0,0,1-.831-.286c-.281-.315-.028-.629.23-.887.927-.921,1.848-1.848,2.769-2.769h0c.938-.932,1.876-1.865,2.808-2.808.466-.466.466-.786.011-1.252Q26.877,4.613,25.5,3.256Z" transform="translate(0 -0.01)" fill="#fbb52d"/>
    </g>
    <g id="Group_658" data-name="Group 658" transform="translate(42.155 5.419)">
      <path id="Path_1364" data-name="Path 1364" d="M124.03,22.985a2.076,2.076,0,0,1,.6,1.5v8.766a7.941,7.941,0,0,1-2.078,5.833,9.336,9.336,0,0,1-11.811,0,8,8,0,0,1-2.056-5.833V24.485a2.052,2.052,0,0,1,2.095-2.105,2,2,0,0,1,1.5.605,2.076,2.076,0,0,1,.6,1.5v8.766a4.458,4.458,0,0,0,.944,3.122,3.674,3.674,0,0,0,2.825,1.017,3.745,3.745,0,0,0,2.859-1.017,4.468,4.468,0,0,0,.944-3.122V24.485a2.052,2.052,0,0,1,2.095-2.105,2,2,0,0,1,1.5.605Z" transform="translate(-90.47 -15.225)" fill="#22293c"/>
      <path id="Path_1365" data-name="Path 1365" d="M160.036,23.849a10.493,10.493,0,0,1,1.359,5.777v8.832a2.036,2.036,0,0,1-.6,1.5,2.16,2.16,0,0,1-3,0,2.058,2.058,0,0,1-.6-1.5V29.626a4.926,4.926,0,0,0-.8-2.983,3.214,3.214,0,0,0-2.758-1.089,4.337,4.337,0,0,0-3.173,1.155,3.959,3.959,0,0,0-1.151,2.916v8.832a2.036,2.036,0,0,1-.6,1.5,2.16,2.16,0,0,1-3,0,2.058,2.058,0,0,1-.6-1.5V24.21a2.052,2.052,0,0,1,2.095-2.105,2,2,0,0,1,1.5.605,2.076,2.076,0,0,1,.6,1.5V24.8a8.455,8.455,0,0,1,2.46-2.139,6.411,6.411,0,0,1,3.331-.9q3.555,0,4.92,2.089Z" transform="translate(-106.448 -14.953)" fill="#22293c"/>
      <path id="Path_1366" data-name="Path 1366" d="M197.056,23.849a10.493,10.493,0,0,1,1.359,5.777v8.832a2.036,2.036,0,0,1-.6,1.5,2.16,2.16,0,0,1-3,0,2.058,2.058,0,0,1-.6-1.5V29.626a4.926,4.926,0,0,0-.8-2.983,3.214,3.214,0,0,0-2.758-1.089,4.337,4.337,0,0,0-3.173,1.155,3.959,3.959,0,0,0-1.151,2.916v8.832a2.036,2.036,0,0,1-.6,1.5,2.16,2.16,0,0,1-3,0,2.058,2.058,0,0,1-.6-1.5V24.21a2.052,2.052,0,0,1,2.095-2.105,2,2,0,0,1,1.5.605,2.076,2.076,0,0,1,.6,1.5V24.8a8.455,8.455,0,0,1,2.46-2.139,6.411,6.411,0,0,1,3.331-.9q3.555,0,4.92,2.089Z" transform="translate(-122.676 -14.953)" fill="#22293c"/>
      <path id="Path_1367" data-name="Path 1367" d="M234.23,23.005a2.112,2.112,0,0,1,.6,1.516V39.349q0,4.532-2.443,6.61a9.751,9.751,0,0,1-6.526,2.078,15.675,15.675,0,0,1-2.426-.191,9.237,9.237,0,0,1-2.005-.505q-1.71-.733-1.707-2.022a1.691,1.691,0,0,1,.107-.556,2.154,2.154,0,0,1,.713-1.168,1.715,1.715,0,0,1,1.1-.4,2,2,0,0,1,.663.107c.163.067.449.185.854.348a8.25,8.25,0,0,0,1.292.4,6.177,6.177,0,0,0,1.415.157,5.3,5.3,0,0,0,3.645-1.061,4.754,4.754,0,0,0,1.168-3.645v-.348q-1.811,2.266-5.65,2.269a6.063,6.063,0,0,1-3.213-.854,5.736,5.736,0,0,1-2.162-2.37,7.59,7.59,0,0,1-.769-3.471V24.539a2.07,2.07,0,0,1,.6-1.516,2.006,2.006,0,0,1,1.5-.612,1.986,1.986,0,0,1,1.5.612,2.112,2.112,0,0,1,.6,1.516v8.93a4.34,4.34,0,0,0,.96,3.156,3.8,3.8,0,0,0,2.808.96,3.621,3.621,0,0,0,2.808-1.061,4.3,4.3,0,0,0,.994-3.055v-8.93a2.07,2.07,0,0,1,.6-1.516,2.006,2.006,0,0,1,1.5-.612,1.986,1.986,0,0,1,1.5.612Z" transform="translate(-138.777 -15.446)" fill="#22293c"/>
      <path id="Path_1368" data-name="Path 1368" d="M300.01,23.005a2.111,2.111,0,0,1,.6,1.516V39.349q0,4.532-2.443,6.61a9.751,9.751,0,0,1-6.526,2.078,15.675,15.675,0,0,1-2.426-.191,9.238,9.238,0,0,1-2.005-.505q-1.71-.733-1.707-2.022a1.692,1.692,0,0,1,.107-.556,2.155,2.155,0,0,1,.713-1.168,1.715,1.715,0,0,1,1.1-.4,2,2,0,0,1,.663.107c.163.067.449.185.854.348a8.252,8.252,0,0,0,1.292.4,6.177,6.177,0,0,0,1.415.157,5.3,5.3,0,0,0,3.645-1.061,4.754,4.754,0,0,0,1.168-3.645v-.348q-1.811,2.266-5.65,2.269a6.062,6.062,0,0,1-3.213-.854,5.736,5.736,0,0,1-2.162-2.37,7.589,7.589,0,0,1-.769-3.471V24.539a2.071,2.071,0,0,1,.6-1.516,2.006,2.006,0,0,1,1.5-.612,1.986,1.986,0,0,1,1.5.612,2.112,2.112,0,0,1,.6,1.516v8.93a4.34,4.34,0,0,0,.96,3.156,3.8,3.8,0,0,0,2.808.96,3.621,3.621,0,0,0,2.808-1.061,4.3,4.3,0,0,0,.994-3.055v-8.93a2.07,2.07,0,0,1,.6-1.516,2.006,2.006,0,0,1,1.5-.612,1.986,1.986,0,0,1,1.5.612Z" transform="translate(-167.613 -15.446)" fill="#22293c"/>
      <path id="Path_1369" data-name="Path 1369" d="M336.6,10.241a2.087,2.087,0,0,1,.6,1.533V33.335a2.071,2.071,0,0,1-.6,1.516,1.986,1.986,0,0,1-1.5.612,1.959,1.959,0,0,1-1.483-.6,2.191,2.191,0,0,1-.612-1.5,7.2,7.2,0,0,1-2.353,1.73,7.083,7.083,0,0,1-3.123.713,7.908,7.908,0,0,1-4.358-1.241,8.7,8.7,0,0,1-3.089-3.437,10.7,10.7,0,0,1-1.134-4.987,10.931,10.931,0,0,1,1.118-5,8.6,8.6,0,0,1,3.055-3.454,7.769,7.769,0,0,1,4.274-1.241,8.023,8.023,0,0,1,3.139.612,8.379,8.379,0,0,1,2.477,1.55V11.769a2.07,2.07,0,0,1,.6-1.516,2.164,2.164,0,0,1,3-.017Zm-4.847,20.079a6.149,6.149,0,0,0,1.432-4.167,6.2,6.2,0,0,0-1.432-4.184,4.631,4.631,0,0,0-3.7-1.674,4.565,4.565,0,0,0-3.662,1.674,6.213,6.213,0,0,0-1.432,4.184,6.184,6.184,0,0,0,1.415,4.167,4.931,4.931,0,0,0,7.374,0Z" transform="translate(-182.644 -9.64)" fill="#22293c"/>
      <path id="Path_1370" data-name="Path 1370" d="M374.789,32.26a2.247,2.247,0,0,1-1.466.517H361.809a5.222,5.222,0,0,0,1.921,3.195,5.394,5.394,0,0,0,3.387,1.156,7.609,7.609,0,0,0,2.235-.261,5.95,5.95,0,0,0,1.275-.55c.315-.194.528-.328.646-.394a2.715,2.715,0,0,1,1.185-.311,1.727,1.727,0,0,1,1.258.517,1.65,1.65,0,0,1,.522,1.206,2.143,2.143,0,0,1-.977,1.689,8.348,8.348,0,0,1-2.617,1.345,10.949,10.949,0,0,1-8.424-.656,8.457,8.457,0,0,1-3.364-3.328A9.612,9.612,0,0,1,357.67,31.6a10.5,10.5,0,0,1,1.258-5.211,8.883,8.883,0,0,1,3.314-3.434,8.622,8.622,0,0,1,4.4-1.189,8.144,8.144,0,0,1,4.341,1.245,9.337,9.337,0,0,1,3.263,3.35,8.926,8.926,0,0,1,1.219,4.556,1.754,1.754,0,0,1-.663,1.345Zm-12.946-2.934h9.138v-.239a3.549,3.549,0,0,0-1.432-2.484,4.56,4.56,0,0,0-2.932-1.033q-4.044,0-4.78,3.761Z" transform="translate(-199.618 -14.957)" fill="#22293c"/>
      <path id="Path_1371" data-name="Path 1371" d="M267.75,32.95a5.376,5.376,0,0,0-2.129-1.707,23.814,23.814,0,0,0-3.14-1.084c-.91-.258-1.612-.472-2.112-.646a3.414,3.414,0,0,1-1.241-.73,1.641,1.641,0,0,1-.489-1.241q0-1.921,2.651-1.921a5.36,5.36,0,0,1,2.252.455,4.469,4.469,0,0,1,1.623,1.219,1.7,1.7,0,0,0,1.258.489,1.773,1.773,0,0,0,1.118-.382,1.616,1.616,0,0,0,.663-1.325,1.948,1.948,0,0,0-.455-1.258,6.218,6.218,0,0,0-2.791-1.955A10.081,10.081,0,0,0,261.4,22.2a8,8,0,0,0-3.3.68,6.343,6.343,0,0,0-2.51,1.921,4.618,4.618,0,0,0-.96,2.915,4.663,4.663,0,0,0,.927,3.05,5.8,5.8,0,0,0,2.2,1.691,24.941,24.941,0,0,0,3.3,1.118,12.936,12.936,0,0,1,2.876,1.045A2.69,2.69,0,0,1,265.037,36a2.243,2.243,0,0,0,.309.612c.96,1.3,1.151,1.522,1.73,2.286a.381.381,0,0,0,.6-.017,4.674,4.674,0,0,0,.949-2.9A4.9,4.9,0,0,0,267.75,32.95Z" transform="translate(-154.449 -15.238)" fill="#22293c"/>
      <path id="Path_1372" data-name="Path 1372" d="M254.609,46.726c.315-.191.629-.382.944-.567.365-.219.489-.2.758.168a5.586,5.586,0,0,0,2.494,1.943,5.723,5.723,0,0,0,4.757-.168c.343-.163.483-.129.674.185.4.657.792,1.314,1.185,1.971.2.337.157.505-.191.685a9.122,9.122,0,0,1-11.7-2.808c-.314-.432-.275-.6.185-.871.3-.18.6-.359.893-.534Z" transform="translate(-153.878 -25.745)" fill="url(#linear-gradient-2)"/>
      <path id="Path_1373" data-name="Path 1373" d="M90.68,32.5a5.377,5.377,0,0,0-2.129-1.707,23.815,23.815,0,0,0-3.14-1.084c-.91-.258-1.612-.472-2.112-.646a3.413,3.413,0,0,1-1.241-.73,1.641,1.641,0,0,1-.489-1.241q0-1.921,2.651-1.921a5.36,5.36,0,0,1,2.252.455A4.469,4.469,0,0,1,88.1,26.844a1.7,1.7,0,0,0,1.258.489,1.773,1.773,0,0,0,1.118-.382,1.615,1.615,0,0,0,.663-1.325,1.948,1.948,0,0,0-.455-1.258,6.218,6.218,0,0,0-2.791-1.954,10.081,10.081,0,0,0-3.561-.663,8,8,0,0,0-3.3.68A6.343,6.343,0,0,0,78.52,24.35a4.618,4.618,0,0,0-.96,2.915,4.663,4.663,0,0,0,.927,3.05,5.8,5.8,0,0,0,2.2,1.691,24.936,24.936,0,0,0,3.3,1.118,12.939,12.939,0,0,1,2.876,1.045,2.69,2.69,0,0,1,1.112,1.382,2.241,2.241,0,0,0,.309.612c.96,1.3,1.151,1.522,1.73,2.286a.381.381,0,0,0,.6-.017,4.674,4.674,0,0,0,.949-2.9A4.9,4.9,0,0,0,90.68,32.5Z" transform="translate(-76.828 -15.037)" fill="#22293c"/>
      <path id="Path_1374" data-name="Path 1374" d="M77.539,46.276c.314-.191.629-.382.944-.567.365-.219.489-.2.758.168a5.586,5.586,0,0,0,2.494,1.943,5.723,5.723,0,0,0,4.757-.168c.343-.163.483-.129.674.185.4.657.792,1.314,1.185,1.971.2.337.157.505-.191.685a9.121,9.121,0,0,1-11.7-2.808c-.315-.432-.275-.6.185-.871.3-.18.6-.359.893-.534Z" transform="translate(-76.257 -25.546)" fill="url(#linear-gradient-2)"/>
    </g>
  </g>
</svg>
