<?xml version="1.0" encoding="UTF-8"?>
<svg id="Layer_2" data-name="Layer 2" xmlns="http://www.w3.org/2000/svg" xmlns:xlink="http://www.w3.org/1999/xlink" viewBox="0 0 389.33 68.04">
  <defs>
    <style>
      .cls-1 {
        fill: url(#linear-gradient);
      }

      .cls-1, .cls-2, .cls-3, .cls-4, .cls-5 {
        stroke-width: 0px;
      }

      .cls-2 {
        fill: url(#linear-gradient-2);
      }

      .cls-3 {
        fill: url(#linear-gradient-3);
      }

      .cls-4 {
        fill: #424850;
      }

      .cls-5 {
        fill: #fbb52d;
      }
    </style>
    <linearGradient id="linear-gradient" x1=".7" y1="27.45" x2="28.02" y2="54.77" gradientTransform="translate(-11.2 29.61) rotate(-45)" gradientUnits="userSpaceOnUse">
      <stop offset="0" stop-color="#c080ff"/>
      <stop offset="1" stop-color="#713dd2"/>
    </linearGradient>
    <linearGradient id="linear-gradient-2" x1="253.33" y1="51.35" x2="275.08" y2="51.35" gradientTransform="matrix(1,0,0,1,0,0)" xlink:href="#linear-gradient"/>
    <linearGradient id="linear-gradient-3" x1="76.26" y1="50.9" x2="98.01" y2="50.9" gradientTransform="matrix(1,0,0,1,0,0)" xlink:href="#linear-gradient"/>
  </defs>
  <g id="Layer_1-2" data-name="Layer 1">
    <g>
      <path class="cls-1" d="M11.83,44.17c.8-.8,1.59-1.6,2.4-2.4.93-.93,1.3-.97,2.38-.06,2.59,2.17,5.55,3.5,8.88,3.95,5.27.71,9.96-.67,14.07-4.03.9-.74,1.34-.75,2.15.06,1.67,1.66,3.34,3.33,5,5,.84.85.85,1.39-.06,2.19-6,5.26-13,7.61-20.94,7.01-6.08-.45-11.39-2.82-16.05-6.72-1.26-1.05-1.27-1.57-.09-2.74.75-.75,1.51-1.51,2.26-2.26Z"/>
      <path class="cls-5" d="M45.43,5.8c-.82-.81-1.48-.8-2.19.1-1.08,1.36-2.12,2.76-3.18,4.15-1.64,2.15-3.28,4.31-4.92,6.46-.42.55-.99.89-1.56.38-.32-.28-.49-.89-.49-1.35-.03-4.62-.02-9.23-.02-13.85,0-1.29-.4-1.68-1.68-1.68-2.23,0-4.46,0-6.68,0-1.45,0-1.75.3-1.75,1.77,0,4.62.02,9.23-.04,13.85,0,.48-.35,1.13-.75,1.38-.58.37-1.07-.13-1.44-.62-2.63-3.47-5.27-6.93-7.91-10.39-.73-.96-1.34-1.03-2.22-.17-1.57,1.54-3.12,3.09-4.67,4.65-1.1,1.11-1.09,1.55.01,2.65,3.2,3.2,6.39,6.4,9.6,9.59.47.47.98.92.62,1.67-.36.75-1.04.63-1.69.54-4.22-.58-8.44-1.16-12.66-1.74-1.31-.18-1.81.26-1.81,1.56,0,2.16,0,4.33,0,6.49,0,1.55.3,1.83,1.89,1.83,3.68,0,7.36,0,11.04,0,2.34,0,4.68,0,7.02,0,0,0,1.28.03,1.26-1.09.16-1.41.8-2.84,2.09-4.13,4.67-4.67,11.11-.99,12.29,3.91.05.59.78,1.22,1.5,1.31,5.7,0,11.4,0,17.1,0,1.56,0,1.81-.25,1.81-1.8,0-2.1,0-4.2,0-6.29,0-1.65-.39-1.99-2.04-1.77-4.19.57-8.37,1.17-12.57,1.69-.48.06-1.18-.16-1.48-.51-.5-.56-.05-1.12.41-1.58,1.65-1.64,3.29-3.29,4.93-4.93h0c1.67-1.66,3.34-3.32,5-5,.83-.83.83-1.4.02-2.23-1.61-1.63-3.23-3.25-4.87-4.86Z"/>
    </g>
    <g>
      <path class="cls-4" d="M136.01,23.47c.7.73,1.06,1.63,1.06,2.7v15.78c0,4.47-1.23,7.97-3.7,10.5-2.46,2.53-5.97,3.79-10.53,3.79s-8.05-1.26-10.5-3.79c-2.44-2.53-3.66-6.03-3.66-10.5v-15.78c0-1.08.35-1.98,1.06-2.7.7-.72,1.59-1.09,2.67-1.09s1.97.36,2.67,1.09c.7.73,1.06,1.63,1.06,2.7v15.78c0,2.53.56,4.4,1.68,5.62,1.12,1.22,2.8,1.83,5.03,1.83s3.98-.61,5.09-1.83c1.12-1.22,1.68-3.1,1.68-5.62v-15.78c0-1.08.35-1.98,1.06-2.7.7-.72,1.59-1.09,2.67-1.09s1.97.36,2.67,1.09Z"/>
      <path class="cls-4" d="M171.67,25.52c1.62,2.51,2.42,5.97,2.42,10.4v15.9c0,1.08-.35,1.98-1.06,2.7-.7.73-1.59,1.09-2.67,1.09s-1.97-.36-2.67-1.09c-.7-.72-1.06-1.62-1.06-2.7v-15.9c0-2.28-.48-4.07-1.43-5.37-.95-1.3-2.59-1.96-4.91-1.96s-4.29.69-5.65,2.08c-1.37,1.39-2.05,3.14-2.05,5.25v15.9c0,1.08-.35,1.98-1.06,2.7-.7.73-1.59,1.09-2.67,1.09s-1.97-.36-2.67-1.09c-.7-.72-1.06-1.62-1.06-2.7v-25.65c0-1.08.35-1.98,1.06-2.7.7-.72,1.59-1.09,2.67-1.09s1.97.36,2.67,1.09c.7.73,1.06,1.63,1.06,2.7v1.06c1.12-1.49,2.58-2.77,4.38-3.85,1.8-1.08,3.78-1.62,5.93-1.62,4.22,0,7.14,1.25,8.76,3.76Z"/>
      <path class="cls-4" d="M208.69,25.52c1.62,2.51,2.42,5.97,2.42,10.4v15.9c0,1.08-.35,1.98-1.06,2.7-.7.73-1.6,1.09-2.67,1.09s-1.97-.36-2.67-1.09c-.7-.72-1.06-1.62-1.06-2.7v-15.9c0-2.28-.48-4.07-1.43-5.37-.95-1.3-2.59-1.96-4.91-1.96s-4.29.69-5.65,2.08c-1.37,1.39-2.05,3.14-2.05,5.25v15.9c0,1.08-.35,1.98-1.06,2.7-.7.73-1.59,1.09-2.67,1.09s-1.97-.36-2.67-1.09c-.7-.72-1.06-1.62-1.06-2.7v-25.65c0-1.08.35-1.98,1.06-2.7.7-.72,1.59-1.09,2.67-1.09s1.97.36,2.67,1.09c.7.73,1.06,1.63,1.06,2.7v1.06c1.12-1.49,2.58-2.77,4.38-3.85,1.8-1.08,3.78-1.62,5.93-1.62,4.22,0,7.14,1.25,8.76,3.76Z"/>
      <path class="cls-4" d="M246.21,23.47c.7.73,1.06,1.63,1.06,2.7v26.4c0,5.38-1.45,9.31-4.35,11.77-2.9,2.46-6.77,3.7-11.62,3.7-1.41,0-2.85-.11-4.32-.34-1.47-.23-2.66-.53-3.57-.9-2.03-.87-3.04-2.07-3.04-3.6,0-.29.06-.62.19-.99.25-.91.67-1.61,1.27-2.08.6-.48,1.25-.71,1.96-.71.41,0,.81.06,1.18.19.29.12.8.33,1.52.62.72.29,1.49.53,2.3.71.81.19,1.65.28,2.52.28,2.94,0,5.1-.63,6.49-1.89,1.39-1.26,2.08-3.43,2.08-6.49v-.62c-2.15,2.69-5.51,4.04-10.06,4.04-2.15,0-4.06-.51-5.72-1.52-1.66-1.01-2.94-2.42-3.85-4.22-.91-1.8-1.37-3.86-1.37-6.18v-18.14c0-1.08.35-1.98,1.06-2.7.7-.72,1.59-1.09,2.67-1.09s1.97.36,2.67,1.09c.7.73,1.06,1.63,1.06,2.7v15.9c0,2.61.57,4.48,1.71,5.62,1.14,1.14,2.8,1.71,5,1.71s3.82-.63,5-1.89c1.18-1.26,1.77-3.07,1.77-5.44v-15.9c0-1.08.35-1.98,1.06-2.7.7-.72,1.59-1.09,2.67-1.09s1.97.36,2.67,1.09Z"/>
      <path class="cls-4" d="M311.99,23.47c.7.73,1.06,1.63,1.06,2.7v26.4c0,5.38-1.45,9.31-4.35,11.77-2.9,2.46-6.77,3.7-11.62,3.7-1.41,0-2.85-.11-4.32-.34-1.47-.23-2.66-.53-3.57-.9-2.03-.87-3.04-2.07-3.04-3.6,0-.29.06-.62.19-.99.25-.91.67-1.61,1.27-2.08.6-.48,1.25-.71,1.96-.71.41,0,.81.06,1.18.19.29.12.8.33,1.52.62.72.29,1.49.53,2.3.71.81.19,1.65.28,2.52.28,2.94,0,5.1-.63,6.49-1.89,1.39-1.26,2.08-3.43,2.08-6.49v-.62c-2.15,2.69-5.51,4.04-10.06,4.04-2.15,0-4.06-.51-5.72-1.52-1.66-1.01-2.94-2.42-3.85-4.22-.91-1.8-1.37-3.86-1.37-6.18v-18.14c0-1.08.35-1.98,1.06-2.7.7-.72,1.59-1.09,2.67-1.09s1.97.36,2.67,1.09c.7.73,1.06,1.63,1.06,2.7v15.9c0,2.61.57,4.48,1.71,5.62,1.14,1.14,2.8,1.71,5,1.71s3.82-.63,5-1.89c1.18-1.26,1.77-3.07,1.77-5.44v-15.9c0-1.08.35-1.98,1.06-2.7.7-.72,1.59-1.09,2.67-1.09s1.97.36,2.67,1.09Z"/>
      <path class="cls-4" d="M350.38,10.71c.7.7,1.06,1.62,1.06,2.73v38.39c0,1.08-.35,1.98-1.06,2.7-.7.73-1.59,1.09-2.67,1.09s-1.96-.35-2.64-1.06c-.68-.7-1.05-1.59-1.09-2.67-1.04,1.2-2.43,2.23-4.19,3.08-1.76.85-3.61,1.27-5.56,1.27-2.86,0-5.45-.73-7.76-2.21-2.32-1.47-4.15-3.51-5.5-6.12-1.35-2.61-2.02-5.57-2.02-8.88s.66-6.28,1.99-8.91c1.33-2.63,3.14-4.68,5.44-6.15,2.3-1.47,4.83-2.21,7.61-2.21,1.99,0,3.85.36,5.59,1.09,1.74.73,3.21,1.65,4.41,2.76v-12.18c0-1.08.35-1.98,1.06-2.7.7-.72,1.59-1.09,2.67-1.09s1.97.35,2.67,1.06ZM341.75,46.46c1.7-1.97,2.55-4.44,2.55-7.42s-.85-5.47-2.55-7.45c-1.7-1.99-3.89-2.98-6.58-2.98s-4.82.99-6.52,2.98c-1.7,1.99-2.55,4.47-2.55,7.45s.84,5.46,2.52,7.42c1.68,1.97,3.86,2.95,6.55,2.95s4.89-.98,6.58-2.95Z"/>
      <path class="cls-4" d="M388.15,40.65c-.75.62-1.62.93-2.61.93h-20.5c.5,2.44,1.64,4.36,3.42,5.75,1.78,1.39,3.79,2.08,6.03,2.08,1.7,0,3.02-.16,3.98-.47.95-.31,1.71-.64,2.27-.99.56-.35.94-.59,1.15-.71.75-.37,1.45-.56,2.11-.56.87,0,1.62.31,2.24.93s.93,1.35.93,2.17c0,1.12-.58,2.13-1.74,3.04-1.16.95-2.71,1.76-4.66,2.42s-3.91.99-5.9.99c-3.48,0-6.51-.72-9.1-2.17-2.59-1.45-4.59-3.45-5.99-5.99-1.41-2.55-2.11-5.41-2.11-8.6,0-3.56.75-6.69,2.24-9.38,1.49-2.69,3.46-4.75,5.9-6.18,2.44-1.43,5.05-2.14,7.83-2.14s5.31.75,7.73,2.24c2.42,1.49,4.36,3.5,5.81,6.03,1.45,2.53,2.17,5.26,2.17,8.2-.04.99-.43,1.8-1.18,2.42ZM365.1,35.37h16.27v-.43c-.17-1.74-1.01-3.23-2.55-4.47-1.53-1.24-3.27-1.86-5.22-1.86-4.8,0-7.64,2.26-8.51,6.77Z"/>
      <path class="cls-4" d="M277.99,41.34c-1.04-1.37-2.3-2.38-3.79-3.04-1.49-.66-3.35-1.3-5.59-1.93-1.62-.46-2.87-.84-3.76-1.15-.89-.31-1.63-.75-2.21-1.3-.58-.56-.87-1.29-.87-2.21,0-2.28,1.57-3.42,4.72-3.42,1.49,0,2.83.27,4.01.81,1.18.54,2.14,1.26,2.89,2.17.58.58,1.32.87,2.24.87.75,0,1.41-.23,1.99-.68.79-.62,1.18-1.41,1.18-2.36,0-.83-.27-1.57-.81-2.24-1.2-1.53-2.86-2.69-4.97-3.48-2.11-.79-4.22-1.18-6.34-1.18s-4.03.4-5.87,1.21c-1.84.81-3.33,1.95-4.47,3.42-1.14,1.47-1.71,3.2-1.71,5.19,0,2.28.55,4.09,1.65,5.43,1.1,1.35,2.4,2.35,3.91,3.01,1.51.66,3.47,1.33,5.87,1.99,2.32.62,4.03,1.24,5.12,1.86.84.47,1.67,1.51,1.98,2.46.13.39.31.76.55,1.09,1.71,2.31,2.05,2.71,3.08,4.07.27.36.75.29,1.06-.03,1.12-1.48,1.69-3.2,1.69-5.16,0-2.24-.52-4.04-1.55-5.4Z"/>
      <path class="cls-2" d="M255.61,47.28c.56-.34,1.12-.68,1.68-1.01.65-.39.87-.36,1.35.3,1.15,1.58,2.63,2.74,4.44,3.46,2.86,1.14,5.69,1.02,8.47-.3.61-.29.86-.23,1.2.33.71,1.17,1.41,2.34,2.11,3.51.36.6.28.9-.34,1.22-4.11,2.12-8.37,2.46-12.75,1.02-3.35-1.1-6.01-3.18-8.08-6.02-.56-.77-.49-1.06.33-1.55.53-.32,1.06-.64,1.59-.95Z"/>
      <path class="cls-4" d="M100.92,40.89c-1.04-1.37-2.3-2.38-3.79-3.04-1.49-.66-3.35-1.3-5.59-1.93-1.62-.46-2.87-.84-3.76-1.15-.89-.31-1.63-.75-2.21-1.3-.58-.56-.87-1.29-.87-2.21,0-2.28,1.57-3.42,4.72-3.42,1.49,0,2.83.27,4.01.81,1.18.54,2.14,1.26,2.89,2.17.58.58,1.32.87,2.24.87.75,0,1.41-.23,1.99-.68.79-.62,1.18-1.41,1.18-2.36,0-.83-.27-1.57-.81-2.24-1.2-1.53-2.86-2.69-4.97-3.48-2.11-.79-4.22-1.18-6.34-1.18s-4.03.4-5.87,1.21c-1.84.81-3.33,1.95-4.47,3.42-1.14,1.47-1.71,3.2-1.71,5.19,0,2.28.55,4.09,1.65,5.43,1.1,1.35,2.4,2.35,3.91,3.01,1.51.66,3.47,1.33,5.87,1.99,2.32.62,4.03,1.24,5.12,1.86.84.47,1.67,1.51,1.98,2.46.13.39.31.76.55,1.09,1.71,2.31,2.05,2.71,3.08,4.07.27.36.75.29,1.06-.03,1.12-1.48,1.69-3.2,1.69-5.16,0-2.24-.52-4.04-1.55-5.4Z"/>
      <path class="cls-3" d="M78.54,46.83c.56-.34,1.12-.68,1.68-1.01.65-.39.87-.36,1.35.3,1.15,1.58,2.63,2.74,4.44,3.46,2.86,1.14,5.69,1.02,8.47-.3.61-.29.86-.23,1.2.33.71,1.17,1.41,2.34,2.11,3.51.36.6.28.9-.34,1.22-4.11,2.12-8.37,2.46-12.75,1.02-3.35-1.1-6.01-3.18-8.08-6.02-.56-.77-.49-1.06.33-1.55.53-.32,1.06-.64,1.59-.95Z"/>
    </g>
  </g>
</svg>