<svg xmlns="http://www.w3.org/2000/svg" width="14.52" height="21.994" viewBox="0 0 14.52 21.994">
  <g id="Group_1084" data-name="Group 1084" transform="translate(0.049 0.055)">
    <g id="Group_1240" data-name="Group 1240">
      <path id="Path_1573" data-name="Path 1573" d="M0,15.919q0-1.83,0-3.661a3.647,3.647,0,0,1,2.888-3.6q1.395-.319,2.783-.664A2.226,2.226,0,0,0,7.409,5.824,1.694,1.694,0,0,0,6.1,4.155a1.643,1.643,0,0,0-1.869.98A2,2,0,0,1,2.3,6.449,2.027,2.027,0,0,1,.38,3.714,5.494,5.494,0,0,1,4.921.063,5.69,5.69,0,0,1,11.4,4.639a4.6,4.6,0,0,1,.1.874c.013,1.1.009,2.205.006,3.308a.694.694,0,0,1-.516.688.666.666,0,0,1-.766-.289.977.977,0,0,1-.122-.457c-.011-.985,0-1.97-.006-2.955A4.342,4.342,0,0,0,1.743,4.084a.65.65,0,0,0,.314.891A.638.638,0,0,0,2.922,4.6a3.064,3.064,0,0,1,5.855.688A3.646,3.646,0,0,1,5.875,9.4q-1.352.31-2.7.638a2.227,2.227,0,0,0-1.762,2.257q0,3.694,0,7.387a.716.716,0,0,0,.789.794c.713,0,1.426,0,2.139,0a.709.709,0,1,1,0,1.411c-.728,0-1.455,0-2.183,0A2.113,2.113,0,0,1,0,19.734C0,18.462,0,17.191,0,15.919" transform="translate(0 0.001)" fill="#2d3ddf" stroke="#2d3ddf" stroke-width="0.1"/>
      <path id="Path_1574" data-name="Path 1574" d="M87.911,209.858a4.763,4.763,0,1,1-4.77,4.694,4.769,4.769,0,0,1,4.77-4.694m0,1.412a3.352,3.352,0,1,0,3.339,3.363,3.353,3.353,0,0,0-3.339-3.363" transform="translate(-78.244 -197.498)" fill="#2d3ddf" stroke="#2d3ddf" stroke-width="0.1"/>
      <path id="Path_1575" data-name="Path 1575" d="M172.908,174.666a.7.7,0,0,1-1.409.028.7.7,0,1,1,1.409-.028" transform="translate(-161.398 -163.726)" fill="#2d3ddf" stroke="#2d3ddf" stroke-width="0.1"/>
      <path id="Path_1576" data-name="Path 1576" d="M135.469,263.17c-.193.2-.369.383-.552.561a.7.7,0,1,1-1-.994c.18-.182.369-.354.574-.55-.208-.2-.393-.381-.572-.563a.7.7,0,1,1,.992-1c.182.179.354.369.549.573.2-.2.371-.382.548-.556a.707.707,0,1,1,1,.993c-.175.177-.358.344-.558.535.207.2.393.379.571.562a.705.705,0,1,1-.994,1c-.183-.178-.361-.362-.56-.563" transform="translate(-125.814 -245.057)" fill="#2d3ddf" stroke="#2d3ddf" stroke-width="0.1"/>
    </g>
  </g>
</svg>
