<svg id="Group_1167" data-name="Group 1167" xmlns="http://www.w3.org/2000/svg" xmlns:xlink="http://www.w3.org/1999/xlink" width="23.703" height="28.494" viewBox="0 0 23.703 28.494">
  <defs>
    <clipPath id="clip-path">
      <rect id="Rectangle_691" data-name="Rectangle 691" width="23.703" height="28.494" fill="#4452e2" stroke="#2d3ddf" stroke-width="0.5"/>
    </clipPath>
  </defs>
  <g id="Group_1166" data-name="Group 1166" clip-path="url(#clip-path)">
    <path id="Path_8220" data-name="Path 8220" d="M11.073,28.494c-.6-.092-1.215-.148-1.809-.283a11.9,11.9,0,0,1-7.283-4.558,10.244,10.244,0,0,1-1.949-7A14.123,14.123,0,0,1,2.623,9.559,3.8,3.8,0,0,1,4.9,8.172a14.165,14.165,0,0,1,4.833-.324c.064,0,.127.007.238.012L9.7,5.249l-1.615.165q-2.85.3-5.7.6c-.247.026-.452-.016-.537-.276a.464.464,0,0,1,.244-.56Q5.692,2.653,9.286.122a.576.576,0,0,1,.62-.059q4,1.7,8.006,3.4c.051.022.1.047.152.069a.406.406,0,0,1,.277.461.421.421,0,0,1-.408.388q-1.618.173-3.237.342l-4.133.437.293,2.789c.475.083.948.158,1.417.25a22.969,22.969,0,0,1,4.333,1.294.285.285,0,0,0,.42-.131c.655-1,1.322-1.993,1.988-2.988.272-.406.543-.428.869-.065q1.812,2.02,3.62,4.044c.166.185.288.372.118.617-.187.268-.479.271-.726,0q-.923-1.023-1.838-2.053L19.509,7.177,17.675,9.923c.345.18.674.346,1,.522a11.848,11.848,0,0,1,3.088,2.3,3.972,3.972,0,0,1,1.216,2.264,14.084,14.084,0,0,1,.051,2.194,12.821,12.821,0,0,1-1.642,5.72,10.447,10.447,0,0,1-7.626,5.438c-.318.054-.64.088-.96.132ZM22.12,17.286a4.088,4.088,0,0,1-2.8,1.093,1.323,1.323,0,0,0-.961.4c-.169.159-.336.321-.518.464a4.375,4.375,0,0,1-.6.4,1.15,1.15,0,0,1-1.351-.12,5.227,5.227,0,0,1-.552-.545c-.183-.2-.352-.406-.53-.608a1.025,1.025,0,0,0-.727-.356,13.9,13.9,0,0,1-1.8-.186,1.1,1.1,0,0,0-1.194.322.685.685,0,0,1-1.126-.1c-.212-.268-.365-.582-.574-.851a1.345,1.345,0,0,0-.453-.377c-.607-.3-1.241-.541-1.839-.853a1.734,1.734,0,0,0-1.274-.195,1.117,1.117,0,0,1-1.389-.641,2.91,2.91,0,0,1-.171-.318,6.705,6.705,0,0,0-1.193-1.892,6.094,6.094,0,0,1-.624-1.013c-.034-.056-.059-.118-.1-.209A11.144,11.144,0,0,0,.9,18.405a9.974,9.974,0,0,0,4.64,7.408,10.873,10.873,0,0,0,7.947,1.66,9.886,9.886,0,0,0,3.967-1.444,10.278,10.278,0,0,0,4.084-5.563,11.479,11.479,0,0,0,.578-3.182M10.074,8.734A15.514,15.514,0,0,0,5.939,8.8a5,5,0,0,0-2.129.757A1.463,1.463,0,0,0,3.243,11.5a3.373,3.373,0,0,0,.561.92A6.352,6.352,0,0,1,4.973,14.3c.053.128.134.243.2.368a.438.438,0,0,0,.587.261,2.051,2.051,0,0,1,1.678.233,12.822,12.822,0,0,0,1.788.827,1.792,1.792,0,0,1,.981.849c.118.212.252.416.381.629a2.9,2.9,0,0,1,.488-.431,1.186,1.186,0,0,1,.617-.174c.811.072,1.617.2,2.428.28a1.937,1.937,0,0,1,1.389.718c.106.129.215.256.328.378.17.183.341.366.52.54a.418.418,0,0,0,.62.029c.286-.236.577-.466.853-.713a2.045,2.045,0,0,1,1.447-.587,3.066,3.066,0,0,0,2.383-1.015,1.6,1.6,0,0,0,.326-1.875,5.281,5.281,0,0,0-.677-1.075,9.091,9.091,0,0,0-2.5-2.018c-.523-.308-1.066-.58-1.608-.873l-.686,1.039c.719.443,1.435.823,2.077,1.3a5.278,5.278,0,0,1,1.137,1.2,1.081,1.081,0,0,1-.313,1.543,2.818,2.818,0,0,1-.741.368c-.629.213-1.272.388-1.9.6a1.377,1.377,0,0,1-1.406-.238,1.6,1.6,0,0,0-.645-.279c-.7-.159-1.421-.266-2.121-.441a2.391,2.391,0,0,0-1.309-.02A1.148,1.148,0,0,1,10,15.313c-.059-.071-.129-.135-.183-.209a1.576,1.576,0,0,0-.728-.53,8.384,8.384,0,0,1-2.759-1.633A4.435,4.435,0,0,1,5.461,11.8.982.982,0,0,1,5.9,10.422a2.933,2.933,0,0,1,.714-.3,7.459,7.459,0,0,1,2.456-.189c.375.023.749.049,1.143.074l-.137-1.274m1.493,5.931c.514.108.965.194,1.411.3a.316.316,0,0,0,.407-.152c.535-.822,1.088-1.633,1.634-2.449.044-.065.078-.137.125-.218a19.923,19.923,0,0,0-3.957-1.1l.381,3.618M10.29,10.831c-.847-.009-1.67-.049-2.49-.014a5.344,5.344,0,0,0-1.325.266c-.331.1-.382.324-.178.608a3.152,3.152,0,0,0,.525.569A10.207,10.207,0,0,0,9.481,13.8a2.157,2.157,0,0,1,.925.683c.072.1.16.178.241.266l.058-.04-.415-3.878m3.893,4.38c.1.015.167.025.237.037a2.325,2.325,0,0,1,1.308.4.88.88,0,0,0,1.06.135c.457-.17.932-.293,1.4-.442a3.732,3.732,0,0,0,.571-.21c.313-.161.365-.343.169-.629a2.783,2.783,0,0,0-.481-.534,9.981,9.981,0,0,0-2.285-1.414c-.16-.075-.225-.022-.308.1-.518.791-1.043,1.577-1.565,2.365-.034.051-.059.108-.1.186m2.193-4.886a22.394,22.394,0,0,0-5.422-1.471c.04.368.092.706.109,1.045.01.191.072.259.264.3.9.2,1.8.409,2.7.65.55.148,1.082.36,1.632.547l.72-1.073M8.185,4.539l3.7-.394L9.708,1.255,8.185,4.539m2.827-3.062a.568.568,0,0,0,.039.113c.585.777,1.167,1.556,1.762,2.326a.368.368,0,0,0,.28.095c.462-.034.922-.086,1.383-.135.538-.057,1.075-.118,1.613-.177l.012-.06L11.012,1.476M3.941,4.945l.023.046c.993-.109,1.985-.224,2.98-.32A.368.368,0,0,0,7.29,4.42c.37-.819.752-1.632,1.128-2.448.028-.06.045-.124.089-.249L3.941,4.945" transform="translate(0 0)" fill="#4452e2" stroke="#2d3ddf" stroke-width="0.5"/>
  </g>
</svg>
