<svg id="Group_1088" data-name="Group 1088" xmlns="http://www.w3.org/2000/svg" xmlns:xlink="http://www.w3.org/1999/xlink" width="33.955" height="33.745" viewBox="0 0 33.955 33.745">
  <defs>
    <clipPath id="clip-path">
      <rect id="Rectangle_677" data-name="Rectangle 677" width="33.955" height="33.745" fill="#2d3ddf"/>
    </clipPath>
  </defs>
  <g id="Group_1087" data-name="Group 1087" clip-path="url(#clip-path)">
    <path id="Path_1693" data-name="Path 1693" d="M32.353,198.059a3.386,3.386,0,0,1-1.191,1.754,3.173,3.173,0,0,1-1.93.647c-.858.006-1.717,0-2.5,0-.254.33-.46.627-.7.9-.541.623-1.118,1.215-1.642,1.852a3.38,3.38,0,0,0-.9,2.413c.009.131.041.261.07.438.579-.224.931.107,1.3.459.794.767,1.605,1.516,2.412,2.269a.887.887,0,0,1,.346.823.786.786,0,0,1-.55.657.824.824,0,0,1-.866-.2q-.927-.87-1.852-1.741c-.13-.122-.261-.242-.408-.378l-2.467,1.724c-1.3.906-2.592,1.817-3.893,2.718a.824.824,0,0,1-1.28-.266.812.812,0,0,1,.261-1.04c.21-.162.431-.309.645-.461-1.7-1.617-3.414-3.179-5.04-4.829-.99-1.005-1.845-2.144-2.755-3.228-.53-.632-1.043-1.279-1.581-1.9a.625.625,0,0,0-.414-.192c-.892-.017-1.784-.008-2.676-.009a3.234,3.234,0,0,1-3.3-2.268c-.015-.04-.035-.079-.06-.136-.2,0-.4.01-.6,0a.823.823,0,0,1-.125-1.626,1.694,1.694,0,0,1,.365-.034q15.958,0,31.915,0c.634,0,1.009.3,1.025.807a.8.8,0,0,1-.795.854c-.266.012-.533,0-.807,0M9.9,200.462c2.465,3.511,5.63,6.307,8.726,9.179,1.154-.8,2.277-1.586,3.407-2.361.16-.11.142-.2.078-.359a3.917,3.917,0,0,1-.1-2.745A6.23,6.23,0,0,1,23.4,201.8c.373-.408.738-.823,1.106-1.235a2.614,2.614,0,0,0-1.546.8c-.385.371-.746.767-1.12,1.15a5.3,5.3,0,0,1-5.1,1.435,7.432,7.432,0,0,1-3.726-1.822c-.546-.539-1.158-1.011-1.754-1.5a.847.847,0,0,0-.442-.167c-.3-.026-.6-.008-.918-.008m20.639-2.379H3.194a1.664,1.664,0,0,0,1.466.714q12.207-.007,24.414,0a2.673,2.673,0,0,0,.3-.006,1.551,1.551,0,0,0,1.165-.7m-16.825,2.4a5.142,5.142,0,0,0,1.952,1.422c.492.172,1,.318,1.5.442,1.868.457,3.228-.482,4.261-1.864Z" transform="translate(-0.001 -178.84)" fill="#2d3ddf"/>
    <path id="Path_1694" data-name="Path 1694" d="M35.424,2.355c-.078-.3-.167-.568-.212-.84A1.283,1.283,0,0,1,36.469.006q.836-.013,1.672,0A1.283,1.283,0,0,1,39.4,1.483c-.04.284-.119.562-.184.861.568.116,1.123.215,1.672.344A14.87,14.87,0,0,1,52.033,14.721c.047.3.1.594.124.893a.837.837,0,0,1-.727.984c-.475.053-.829-.292-.937-.841a19.191,19.191,0,0,0-.62-2.8A12.766,12.766,0,0,0,39.489,4.108a13.105,13.105,0,0,0-14.86,9.145,19.08,19.08,0,0,0-.51,2.481c-.109.637-.482,1.016-.992.923a.819.819,0,0,1-.684-.923,12.74,12.74,0,0,1,.7-3.325A14.714,14.714,0,0,1,33.532,2.732c.31-.088.629-.145.945-.208s.611-.11.947-.169m1.528-.676c.161.208,0,.585.4.549.342-.032.2-.342.3-.549Z" transform="translate(-20.435 0)" fill="#2d3ddf"/>
    <path id="Path_1695" data-name="Path 1695" d="M231.757,75.453a.858.858,0,0,1-.642.9.828.828,0,0,1-.95-.5c-.123-.3-.213-.609-.342-.9a8.311,8.311,0,0,0-4.672-4.52.836.836,0,0,1-.421-1.36.881.881,0,0,1,1.075-.17,10.1,10.1,0,0,1,4.393,3.373,9.938,9.938,0,0,1,1.476,2.865c.042.126.067.257.082.316" transform="translate(-204.447 -62.646)" fill="#2d3ddf"/>
  </g>
</svg>
