<svg xmlns="http://www.w3.org/2000/svg" width="40" height="40" viewBox="0 0 40 40">
  <g id="Group_888" data-name="Group 888" transform="translate(-13042.795 -2522.794)">
    <path id="path3263" d="M284.794,303.794a19,19,0,1,1,19-19A19,19,0,0,1,284.794,303.794Z" transform="translate(12778.001 2258)" fill="#e2e4ff" stroke="#2d3ddf" stroke-width="2"/>
    <path id="path3267" d="M123.75,69.375v2.159c-.876,0-4.819,1.113-4.819,4.681,0,3.174,2.845,4.038,4.817,4.322l0,3.587a2.688,2.688,0,0,1-1.9-2.427h-3.161a6.051,6.051,0,0,0,5.062,5.482v2.2h3V87.212c2.379-.126,5.2-2.174,5.2-4.98,0-3.214-2.806-4.126-5.2-4.372V74.573a2.088,2.088,0,0,1,1.753,1.943h3.13c0-3.188-2.91-4.866-4.914-4.982V69.375Zm.017,5.229v2.725C121.648,77.3,121.607,74.982,123.766,74.6Zm3.024,6.445c2.621.066,2.912,2.674,0,3.091Z" transform="translate(12937.234 2463.104)" fill="#2d3ddf"/>
  </g>
</svg>
