<svg xmlns="http://www.w3.org/2000/svg" width="22.835" height="22.79" viewBox="0 0 22.835 22.79">
  <g id="Group_1432" data-name="Group 1432" transform="translate(0.4 0.399)">
    <g id="Group_747" data-name="Group 747" transform="translate(0 0)">
      <path id="Path_1372" data-name="Path 1372" d="M.019,5.006q0-1.443,0-2.886A1.97,1.97,0,0,1,2.147,0Q5.069,0,7.991,0A1.906,1.906,0,0,1,9.908,1.274a2.314,2.314,0,0,1,.138.8q.016,2.9,0,5.8A1.956,1.956,0,0,1,8.464,9.981a2.6,2.6,0,0,1-.536.046c-1.916,0-3.833.009-5.749-.005a2.75,2.75,0,0,1-.938-.158A1.783,1.783,0,0,1,.033,8.151C0,7.1.025,6.055.025,5.006H.019M2.381,7.664H7.7V2.348H2.381Z" transform="translate(-0.012 0)" fill="#2d3ddf" stroke="#fff" stroke-width="0.8"/>
      <path id="Path_8650" data-name="Path 8650" d="M.019,5.006q0-1.443,0-2.886A1.97,1.97,0,0,1,2.147,0Q5.069,0,7.991,0A1.906,1.906,0,0,1,9.908,1.274a2.314,2.314,0,0,1,.138.8q.016,2.9,0,5.8A1.956,1.956,0,0,1,8.464,9.981a2.6,2.6,0,0,1-.536.046c-1.916,0-3.833.009-5.749-.005a2.75,2.75,0,0,1-.938-.158A1.783,1.783,0,0,1,.033,8.151C0,7.1.025,6.055.025,5.006H.019M2.381,7.664H7.7V2.348H2.381Z" transform="translate(11.988 0)" fill="#2d3ddf" stroke="#fff" stroke-width="0.8"/>
      <path id="Path_1373" data-name="Path 1373" d="M10.031,76.16c0,.978,0,1.956,0,2.934a1.943,1.943,0,0,1-2.055,2.091q-2.969.021-5.938,0A1.943,1.943,0,0,1,.007,79.14q-.012-2.957,0-5.914a1.953,1.953,0,0,1,2.043-2.06c1.979-.011,3.958,0,5.938-.005a1.977,1.977,0,0,1,2.041,2c-.01,1,0,2,0,3h.006M2.36,78.837H7.679V73.524H2.36Z" transform="translate(0 -59.204)" fill="#2d3ddf" stroke="#fff" stroke-width="0.8"/>
      <path id="Path_8649" data-name="Path 8649" d="M10.031,76.16c0,.978,0,1.956,0,2.934a1.943,1.943,0,0,1-2.055,2.091q-2.969.021-5.938,0A1.943,1.943,0,0,1,.007,79.14q-.012-2.957,0-5.914a1.953,1.953,0,0,1,2.043-2.06c1.979-.011,3.958,0,5.938-.005a1.977,1.977,0,0,1,2.041,2c-.01,1,0,2,0,3h.006M2.36,78.837H7.679V73.524H2.36Z" transform="translate(12 -59.204)" fill="#2d3ddf" stroke="#fff" stroke-width="0.8"/>
      <rect id="Rectangle_744" data-name="Rectangle 744" width="8" height="8" rx="2" transform="translate(1.021 0.991)" fill="#2d3ddf"/>
      <rect id="Rectangle_745" data-name="Rectangle 745" width="8" height="8" rx="2" transform="translate(13.021 0.991)" fill="#2d3ddf"/>
      <rect id="Rectangle_746" data-name="Rectangle 746" width="8" height="8" rx="2" transform="translate(13.021 12.991)" fill="#2d3ddf"/>
      <rect id="Rectangle_747" data-name="Rectangle 747" width="8" height="8" rx="2" transform="translate(1.021 12.991)" fill="#2d3ddf"/>
    </g>
  </g>
</svg>
