<svg xmlns="http://www.w3.org/2000/svg" xmlns:xlink="http://www.w3.org/1999/xlink" width="32.805" height="18.516" viewBox="0 0 32.805 18.516">
  <defs>
    <clipPath id="clip-path">
      <rect id="Rectangle_634" data-name="Rectangle 634" width="32.805" height="18.516" fill="none" stroke="#2d3ddf" stroke-width="1.4"/>
    </clipPath>
  </defs>
  <g id="Group_965" data-name="Group 965" clip-path="url(#clip-path)">
    <path id="Path_1647" data-name="Path 1647" d="M89.6,18.516a5.079,5.079,0,0,1-1.026-.463,2,2,0,0,1-.766-1.684q-.008-7.13,0-14.26A2.1,2.1,0,0,1,88.643.355a1.793,1.793,0,0,1,2.8,1.027,3.461,3.461,0,0,1,.127.944c.012,1.6.006,3.2.006,4.8V7.5h13.7c0-.138,0-.263,0-.389.007-1.748-.015-3.5.03-5.243a1.889,1.889,0,0,1,2.122-1.84,2.008,2.008,0,0,1,1.582,1.782c.016.18.022.362.022.543q0,6.89,0,13.781a2.209,2.209,0,0,1-.739,1.89,5.065,5.065,0,0,1-1.078.5h-.128c-.017-.012-.034-.034-.051-.035a2.011,2.011,0,0,1-1.757-2.06c-.006-1.683-.005-3.367-.008-5.05,0-.125,0-.25,0-.387h-13.7v.372q0,2.413,0,4.827a2.548,2.548,0,0,1-.408,1.484,2.055,2.055,0,0,1-1.436.85Z" transform="translate(-82.167 0)" fill="none" stroke="#2d3ddf" stroke-width="1.4"/>
    <path id="Path_1648" data-name="Path 1648" d="M494.469,105.231c-.132.273-.263.556-.643.5-.287-.04-.484-.332-.487-.767-.01-1.359,0-2.719,0-4.078a1.344,1.344,0,0,1,.035-.252.565.565,0,0,1,.486-.517.517.517,0,0,1,.54.363c.023.048.047.095.071.142Z" transform="translate(-461.665 -93.688)" fill="none" stroke="#2d3ddf" stroke-width="1.4"/>
    <path id="Path_1649" data-name="Path 1649" d="M31.2,50.57c0,1.609,0,3.218,0,4.827a1.428,1.428,0,0,1-.988,1.509A1.5,1.5,0,0,1,28.17,55.4q-.008-4.508,0-9.015a7.635,7.635,0,0,1,.038-1.02,1.4,1.4,0,0,1,1.557-1.2,1.355,1.355,0,0,1,1.406,1.289c.041,1.1.022,2.194.026,3.292,0,.607,0,1.215,0,1.822" transform="translate(-26.358 -41.331)" fill="none" stroke="#2d3ddf" stroke-width="1.4"/>
    <path id="Path_1650" data-name="Path 1650" d="M435.385,50.437c0,1.62-.014,3.24,0,4.859a1.5,1.5,0,0,1-2.063,1.465,1.423,1.423,0,0,1-.968-1.5q0-2.957,0-5.915,0-1.9,0-3.8a1.492,1.492,0,0,1,2.095-1.422,1.251,1.251,0,0,1,.909,1.2c.031.926.019,1.854.022,2.781,0,.778,0,1.556,0,2.334" transform="translate(-404.603 -41.197)" fill="none" stroke="#2d3ddf" stroke-width="1.4"/>
    <path id="Path_1651" data-name="Path 1651" d="M0,102.937c0-.649,0-1.3,0-1.948a1.53,1.53,0,0,1,.066-.47.506.506,0,0,1,.521-.392.537.537,0,0,1,.489.438,1.741,1.741,0,0,1,.052.474q.006,1.9,0,3.8a1.722,1.722,0,0,1-.053.473.535.535,0,0,1-.491.436.507.507,0,0,1-.519-.394,1.547,1.547,0,0,1-.066-.47c-.007-.649,0-1.3,0-1.948" transform="translate(0 -93.699)" fill="none" stroke="#2d3ddf" stroke-width="1.4"/>
  </g>
</svg>
