<svg xmlns="http://www.w3.org/2000/svg" xmlns:xlink="http://www.w3.org/1999/xlink" width="20" height="22.735" viewBox="0 0 20 22.735">
  <defs>
    <clipPath id="clip-path">
      <rect id="Rectangle_638" data-name="Rectangle 638" width="20" height="22.735" fill="#2d3ddf"/>
    </clipPath>
  </defs>
  <g id="Group_977" data-name="Group 977" transform="translate(-44.76 -1059.111)">
    <g id="Group_980" data-name="Group 980" transform="translate(44.76 1059.111)">
      <g id="Group_979" data-name="Group 979" clip-path="url(#clip-path)">
        <path id="Path_1659" data-name="Path 1659" d="M.5,22.736A.851.851,0,0,1,0,21.84c.018-1.221,0-2.442.008-3.663a4.612,4.612,0,0,1,2.264-4.1,4.517,4.517,0,0,1,2.094-.663.651.651,0,0,0,.233-.056q1.113-.55,2.222-1.109a.163.163,0,0,0,.042-.029c-.155-.171-.305-.341-.46-.508a8.431,8.431,0,0,1-2.389-5.63A5.989,5.989,0,0,1,15.877,4.829a7.157,7.157,0,0,1-.541,4.2A8.228,8.228,0,0,1,13.194,12.1c-.032.028-.059.061-.106.111l.824.412c.4.2.819.383,1.205.612a2.919,2.919,0,0,0,1.044.258,4.624,4.624,0,0,1,3.817,4.376c.044,1.4.013,2.8.014,4.2a.744.744,0,0,1-.487.673ZM11.65,13.064a4.687,4.687,0,0,1-.183-.691,1.193,1.193,0,0,1,.585-1.057,6.845,6.845,0,0,0,1.965-2.592,6.938,6.938,0,0,0,.594-2.078A3.541,3.541,0,0,1,11.33,5.327,3.521,3.521,0,0,1,8.253,6.664c-.872-.029-1.746-.006-2.62-.006H5.392a7.311,7.311,0,0,0,2.348,4.476c.157.135.316.269.463.414a1.046,1.046,0,0,1,.2,1.3.259.259,0,0,0,.021.33c.484.717.962,1.439,1.442,2.158.039.059.084.113.142.191l1.643-2.464M9.322,17.837c-.084.037-.15.064-.214.1L7.759,18.6A.706.706,0,0,1,6.7,18.322C5.964,17.215,5.218,16.112,4.494,15A.39.39,0,0,0,4,14.81a3.33,3.33,0,0,0-2.662,3.274c-.008,1.058,0,2.116,0,3.174,0,.042.005.085.008.132H9.322Zm1.35,3.551H18.65c0-1.206.05-2.4-.013-3.586a3.284,3.284,0,0,0-2.678-3,.357.357,0,0,0-.437.173c-.731,1.121-1.479,2.231-2.222,3.344a.713.713,0,0,1-1.075.281c-.456-.227-.912-.456-1.368-.683-.055-.028-.115-.047-.186-.076ZM5.4,5.32c1.134,0,2.251.008,3.368,0a1.818,1.818,0,0,0,1.089-.389,2,2,0,0,0,.811-1.582A.673.673,0,0,1,11,2.756a.661.661,0,0,1,1,.578,2.051,2.051,0,0,0,.8,1.587,2.527,2.527,0,0,0,1.8.4,4.647,4.647,0,0,0-9.2,0m.247,9.014,1.92,2.879,1.463-.733L7.107,13.6l-1.463.731m5.33,2.147,1.464.731,1.918-2.879L12.892,13.6l-1.919,2.878" transform="translate(-0.001 0)" fill="#2d3ddf"/>
        <path id="Path_1660" data-name="Path 1660" d="M87.141,121.025c-.407,0-.814,0-1.221,0a.671.671,0,1,1-.012-1.331q1.254,0,2.509,0a.67.67,0,1,1-.011,1.331c-.422,0-.844,0-1.265,0" transform="translate(-71.829 -100.954)" fill="#2d3ddf"/>
      </g>
    </g>
  </g>
</svg>
