<svg id="Group_1238" data-name="Group 1238" xmlns="http://www.w3.org/2000/svg" xmlns:xlink="http://www.w3.org/1999/xlink" width="17.438" height="29.425" viewBox="0 0 17.438 29.425">
  <defs>
    <clipPath id="clip-path">
      <rect id="Rectangle_704" data-name="Rectangle 704" width="17.438" height="29.425" fill="#2d3ddf"/>
    </clipPath>
  </defs>
  <g id="Group_1237" data-name="Group 1237" clip-path="url(#clip-path)">
    <path id="Path_8252" data-name="Path 8252" d="M167.117,0a.944.944,0,0,1,.633.644.847.847,0,0,1-.553,1,.855.855,0,0,1-1.033-.451.839.839,0,0,1,.358-1.087L166.715,0Z" transform="translate(-153.337)" fill="#2d3ddf"/>
    <path id="Path_8253" data-name="Path 8253" d="M3.527,31.872c-.427,0-.819,0-1.211,0a.842.842,0,0,1-.939-.914c-.007-.651-.008-1.3,0-1.953a.827.827,0,0,1,.9-.894c2.719,0,5.439-.022,8.157.005a4.029,4.029,0,0,1,3.978,3.98.843.843,0,0,1-.89.907c-.507.006-1.015,0-1.522,0a.731.731,0,0,0-.809.822c0,.881-.006,1.762.006,2.642a.5.5,0,0,0,.152.334,3.887,3.887,0,0,1,1.395,3.031q.013,5.874,0,11.748A3.763,3.763,0,0,1,9.9,55.271a3.9,3.9,0,0,1-.853.088c-1.4.009-2.8-.017-4.193.009a3.675,3.675,0,0,1-3.7-3.562c-.066-2.114-.042-4.232,0-6.347a3.789,3.789,0,0,1,.419-1.532C2.559,41.938,3.588,39.972,4.6,38a3.846,3.846,0,0,1,1.31-1.457.446.446,0,0,0,.179-.309c.015-.814.015-1.628.005-2.441a.835.835,0,0,0-1.154-.777c-.073.028-.124.134-.17.213A4.435,4.435,0,0,1,.949,35.539.836.836,0,0,1,0,34.726a.867.867,0,0,1,.921-.855,2.793,2.793,0,0,0,2.55-1.79,1.688,1.688,0,0,0,.056-.209M11.08,45.679c0-1.934-.007-3.867,0-5.8a2.1,2.1,0,0,0-2.211-2.212c-.315.019-.632.007-.948,0a1.912,1.912,0,0,0-1.849,1.125c-.995,1.929-1.99,3.857-2.967,5.795a2.353,2.353,0,0,0-.287.979c-.026,2.048-.042,4.1,0,6.145a2.023,2.023,0,0,0,2.1,1.99c1.378-.034,2.757-.01,4.135-.007a1.812,1.812,0,0,0,1.154-.364,2.228,2.228,0,0,0,.873-1.851q.006-2.9,0-5.8M5.344,31.3a.3.3,0,0,0,.071.031,2.416,2.416,0,0,1,2.158,1.423.353.353,0,0,0,.267.133c.516.013,1.033,0,1.549.01a.363.363,0,0,0,.39-.232,2.308,2.308,0,0,1,2.089-1.327c.226-.008.453,0,.674,0,.008-.048.017-.068.013-.084a.758.758,0,0,0-.052-.133,2.31,2.31,0,0,0-2.115-1.337c-1.607-.016-3.214-.005-4.821,0a1.875,1.875,0,0,0-.223.027ZM7.792,36H9.5V34.57H7.792ZM3.058,30.188h.59V29.8h-.59Z" transform="translate(0 -25.943)" fill="#2d3ddf"/>
    <path id="Path_8254" data-name="Path 8254" d="M193.209,27.334c0,.134.01.269,0,.4a.839.839,0,0,1-.788.773.827.827,0,0,1-.851-.7c-.058-.387-.059-.783-.126-1.168a5.157,5.157,0,0,0-.795-1.951,1.569,1.569,0,0,1-.21-.4.829.829,0,0,1,1.5-.671,6.755,6.755,0,0,1,1.138,2.639c.069.356.1.718.156,1.077l-.017,0" transform="translate(-175.788 -21.45)" fill="#2d3ddf"/>
  </g>
</svg>
