<svg id="Group_1234" data-name="Group 1234" xmlns="http://www.w3.org/2000/svg" xmlns:xlink="http://www.w3.org/1999/xlink" width="30.139" height="29.953" viewBox="0 0 30.139 29.953">
  <defs>
    <clipPath id="clip-path">
      <rect id="Rectangle_677" data-name="Rectangle 677" width="30.139" height="29.953" fill="#2d3ddf"/>
    </clipPath>
  </defs>
  <g id="Group_1087" data-name="Group 1087" clip-path="url(#clip-path)">
    <path id="Path_1693" data-name="Path 1693" d="M28.717,197.872a3.005,3.005,0,0,1-1.057,1.557,2.817,2.817,0,0,1-1.713.575c-.762.005-1.524,0-2.223,0-.225.293-.408.557-.618.8-.481.553-.992,1.079-1.458,1.644a3,3,0,0,0-.8,2.142c.008.116.037.231.063.388.514-.2.827.095,1.15.407.705.68,1.425,1.345,2.141,2.014a.788.788,0,0,1,.307.731.7.7,0,0,1-.488.584.731.731,0,0,1-.769-.179l-1.644-1.546c-.115-.108-.232-.214-.362-.335l-2.19,1.53c-1.152.8-2.3,1.612-3.455,2.412a.732.732,0,0,1-1.136-.236.72.72,0,0,1,.232-.923c.186-.143.382-.274.573-.409-1.506-1.435-3.03-2.821-4.474-4.287-.879-.892-1.638-1.9-2.446-2.865-.471-.561-.925-1.135-1.4-1.69a.554.554,0,0,0-.367-.17C5.788,200,5,200.006,4.2,200.005a2.871,2.871,0,0,1-2.93-2.013c-.014-.036-.031-.07-.053-.121-.179,0-.356.009-.533,0a.73.73,0,0,1-.111-1.443A1.5,1.5,0,0,1,.9,196.4q14.164,0,28.329,0c.563,0,.9.266.91.716a.714.714,0,0,1-.705.758c-.236.01-.474,0-.716,0M8.788,200.005a53.058,53.058,0,0,0,7.745,8.147c1.024-.711,2.021-1.408,3.024-2.1.142-.1.126-.181.069-.319a3.477,3.477,0,0,1-.091-2.436A5.53,5.53,0,0,1,20.77,201.2c.331-.362.655-.731.982-1.1a2.32,2.32,0,0,0-1.372.712c-.342.329-.662.681-.994,1.021a4.7,4.7,0,0,1-4.525,1.274,6.6,6.6,0,0,1-3.308-1.617c-.485-.478-1.028-.9-1.557-1.33a.751.751,0,0,0-.392-.148c-.265-.023-.533-.007-.815-.007m18.32-2.112H2.835a1.477,1.477,0,0,0,1.3.634q10.835-.006,21.67,0a2.373,2.373,0,0,0,.267-.005,1.377,1.377,0,0,0,1.034-.626M12.174,200.02a4.564,4.564,0,0,0,1.732,1.262c.437.153.883.282,1.333.392a3.506,3.506,0,0,0,3.782-1.654Z" transform="translate(-0.001 -180.813)" fill="#2d3ddf"/>
    <path id="Path_1694" data-name="Path 1694" d="M33.965,2.091c-.069-.268-.148-.5-.189-.746A1.139,1.139,0,0,1,34.893.005q.742-.011,1.484,0A1.139,1.139,0,0,1,37.5,1.317c-.036.252-.105.5-.163.765.5.1,1,.191,1.484.306a13.2,13.2,0,0,1,9.889,10.68c.041.264.088.527.11.793a.743.743,0,0,1-.645.873c-.422.047-.736-.259-.831-.746a17.034,17.034,0,0,0-.551-2.482,11.332,11.332,0,0,0-9.217-7.859,11.633,11.633,0,0,0-13.19,8.117,16.936,16.936,0,0,0-.453,2.2c-.1.566-.428.9-.88.82a.727.727,0,0,1-.607-.819,11.308,11.308,0,0,1,.623-2.951,13.06,13.06,0,0,1,9.219-8.589c.275-.078.558-.129.839-.185s.542-.1.84-.15m1.357-.6c.143.185,0,.519.354.487.3-.028.173-.3.264-.487Z" transform="translate(-20.66 0)" fill="#2d3ddf"/>
    <path id="Path_1695" data-name="Path 1695" d="M230.943,74.7a.762.762,0,0,1-.57.8.735.735,0,0,1-.843-.446c-.11-.264-.189-.541-.3-.8a7.377,7.377,0,0,0-4.147-4.012.742.742,0,0,1-.373-1.207.782.782,0,0,1,.954-.151,8.966,8.966,0,0,1,3.9,2.994,8.821,8.821,0,0,1,1.311,2.543c.037.111.059.228.073.28" transform="translate(-206.702 -63.337)" fill="#2d3ddf"/>
  </g>
</svg>
