<svg id="Group_1230" data-name="Group 1230" xmlns="http://www.w3.org/2000/svg" xmlns:xlink="http://www.w3.org/1999/xlink" width="27.018" height="25.922" viewBox="0 0 27.018 25.922">
  <defs>
    <clipPath id="clip-path">
      <rect id="Rectangle_686" data-name="Rectangle 686" width="27.018" height="25.922" fill="#2d3ddf" stroke="#2d3cdd" stroke-width="0.3"/>
    </clipPath>
  </defs>
  <g id="Group_1154" data-name="Group 1154" clip-path="url(#clip-path)">
    <path id="Path_8202" data-name="Path 8202" d="M7.184,201.529c.14.248.272.472.4.7a1.153,1.153,0,0,1-.457,1.631c-.436.256-.875.508-1.319.748a1.141,1.141,0,0,1-1.611-.451q-2.015-3.543-4.016-7.095a1.141,1.141,0,0,1,.448-1.63c.436-.255.876-.505,1.32-.747a1.155,1.155,0,0,1,1.615.441c.111.184.214.373.333.582l.318-.179c1.326-.755,2.64-1.53,3.98-2.259a3.613,3.613,0,0,1,3.085-.2c1.348.483,2.727.882,4.095,1.311.223.07.465.086.681.17a1.831,1.831,0,0,1,1.043,2.47.45.45,0,0,0-.04.233c.262-.123.534-.227.783-.371,1.563-.9,3.122-1.816,4.682-2.724a5.682,5.682,0,0,1,2.317-.855,1.878,1.878,0,0,1,2.065,1.224,1.976,1.976,0,0,1-.846,2.374c-2.86,1.762-5.726,3.513-8.577,5.288a4.005,4.005,0,0,1-3.367.487c-1.92-.538-3.852-1.031-5.775-1.556a.652.652,0,0,0-.6.077c-.167.118-.352.21-.547.325m-.432-.763c.3-.173.581-.321.847-.491a.72.72,0,0,1,.618-.081c2.082.562,4.166,1.116,6.249,1.677a2.845,2.845,0,0,0,2.323-.287q4.457-2.735,8.9-5.489a1.024,1.024,0,0,0,.39-.524,1.041,1.041,0,0,0-1.178-1.4,4.683,4.683,0,0,0-1.861.7q-2.4,1.395-4.8,2.8a3.38,3.38,0,0,1-2.284.5c-.818-.132-1.628-.318-2.435-.508-.571-.134-1.132-.309-1.695-.474a.429.429,0,0,1-.335-.555.437.437,0,0,1,.562-.286c.07.017.139.039.209.058.959.256,1.914.526,2.878.763a.949.949,0,0,0,1.229-.716,1,1,0,0,0-.841-1.134c-.387-.088-.781-.158-1.157-.279-1.228-.4-2.45-.807-3.673-1.219a1.957,1.957,0,0,0-1.2-.086,6.64,6.64,0,0,0-1.3.516c-1.256.7-2.491,1.428-3.734,2.147-.044.026-.084.06-.136.1l2.421,4.278m-4.167-5.405c-.122.049-.183.067-.237.1-.425.238-.849.479-1.273.719a.315.315,0,0,0-.12.5q1.984,3.5,3.964,7c.149.262.258.287.532.135.379-.21.755-.425,1.131-.64.343-.2.368-.283.175-.624Q5.7,200.671,4.636,198.8c-.591-1.045-1.179-2.092-1.777-3.133a1.835,1.835,0,0,0-.275-.3" transform="translate(0 -178.852)" fill="#2d3ddf" stroke="#2d3cdd" stroke-width="0.3"/>
    <path id="Path_8203" data-name="Path 8203" d="M129.177,12.49c-.059.116-.113.21-.156.309-.083.193-.232.343-.432.3a.659.659,0,0,1-.4-.3,3.083,3.083,0,0,0-1.236-1.363,1.424,1.424,0,0,1-.309-.162c-.114-.113-.27-.264-.266-.394a.681.681,0,0,1,.274-.414c.315-.251.662-.461.98-.71a.364.364,0,0,0,.093-.3A7.638,7.638,0,0,1,128.9,3.326a.864.864,0,0,0,.046-.1c-.166-.088-.33-.176-.5-.26s-.32-.224-.27-.421a.636.636,0,0,1,.269-.392A3.056,3.056,0,0,0,130,.59c.08-.182.228-.316.422-.265a.8.8,0,0,1,.392.275,3.988,3.988,0,0,1,.319.578A7.63,7.63,0,0,1,137.9.495a7.494,7.494,0,0,1,4.089,3.539,7.7,7.7,0,0,1-12.807,8.456m.572-.737A6.814,6.814,0,1,0,140.511,3.4a6.715,6.715,0,0,0-8.7-1.551c.177.095.34.189.51.271a.462.462,0,0,1,.318.428.45.45,0,0,1-.312.431,2.889,2.889,0,0,0-1.5,1.5.447.447,0,0,1-.432.31.47.47,0,0,1-.427-.32c-.1-.206-.222-.4-.341-.614A6.522,6.522,0,0,0,128.474,8.6c.4.062.417.075.612.468a2.836,2.836,0,0,0,1.368,1.338c.207.1.387.207.383.468s-.181.348-.373.45c-.244.13-.476.283-.715.428m-1.15-1.63-.76.733.748.765.766-.748-.754-.75m1.039-7.569.763.759.762-.76-.755-.771-.771.772" transform="translate(-117.221 0)" fill="#2d3ddf" stroke="#2d3cdd" stroke-width="0.3"/>
    <path id="Path_8204" data-name="Path 8204" d="M77.805,56.64c-.152.173-.235.343-.368.405a3.175,3.175,0,0,0-1.575,1.57.43.43,0,0,1-.786.006,3.2,3.2,0,0,0-1.57-1.576.518.518,0,0,1-.258-.39.573.573,0,0,1,.278-.407,3.184,3.184,0,0,0,1.537-1.536.432.432,0,0,1,.81,0,3.16,3.16,0,0,0,1.537,1.535c.142.067.237.234.4.4m-2.338-.749-.762.759.753.759.76-.752-.751-.765" transform="translate(-67.941 -50.486)" fill="#2d3ddf" stroke="#2d3cdd" stroke-width="0.3"/>
    <path id="Path_8205" data-name="Path 8205" d="M24.6,241.046a.562.562,0,0,1,.558.575.569.569,0,1,1-1.138-.021.566.566,0,0,1,.58-.555" transform="translate(-22.283 -223.583)" fill="#2d3ddf" stroke="#2d3cdd" stroke-width="0.3"/>
    <path id="Path_8206" data-name="Path 8206" d="M185.445,59.265c1.1-1.074,2.174-2.111,3.24-3.154A1.511,1.511,0,0,1,191,58.052a3.539,3.539,0,0,1-.274.3q-2,2.024-4.006,4.047a1.533,1.533,0,0,1-2.395.011c-.747-.748-1.5-1.489-2.24-2.246a1.505,1.505,0,0,1,.555-2.515,1.437,1.437,0,0,1,1.55.351c.442.425.865.869,1.258,1.266m5.041-2.113a.715.715,0,0,0-.573-.652.723.723,0,0,0-.666.28q-1.646,1.669-3.3,3.332c-.351.354-.521.352-.88-.006-.479-.478-.955-.961-1.438-1.436a.636.636,0,0,0-.96-.043.65.65,0,0,0,.049.943q1.144,1.155,2.3,2.3a.63.63,0,0,0,.979.012q2.122-2.131,4.229-4.278a2.041,2.041,0,0,0,.259-.453" transform="translate(-168.46 -51.584)" fill="#2d3ddf" stroke="#2d3cdd" stroke-width="0.3"/>
  </g>
</svg>
