<svg xmlns="http://www.w3.org/2000/svg" width="27.718" height="27.724" viewBox="0 0 27.718 27.724">
  <g id="Group_1231" data-name="Group 1231" transform="translate(0.35 0.35)">
    <g id="Group_1229" data-name="Group 1229">
      <path id="Path_8207" data-name="Path 8207" d="M63.873,127.977a1.009,1.009,0,0,0-1,1.009.993.993,0,0,0,.289.71,1.008,1.008,0,1,0,.722-1.719h-.008v-.144h0Z" transform="translate(-58.345 -118.632)" fill="#2d3ddf" stroke="#2d3ddf" stroke-width="0.7"/>
      <path id="Path_8208" data-name="Path 8208" d="M130.284,127.976h-.012a1.013,1.013,0,0,0-.995,1,.992.992,0,0,0,1,1.009,1.01,1.01,0,0,0,.722-.3.986.986,0,0,0,.29-.706,1.026,1.026,0,0,0-1.008-1.006v0Z" transform="translate(-119.973 -118.632)" fill="#2d3ddf" stroke="#2d3ddf" stroke-width="0.7"/>
      <path id="Path_8209" data-name="Path 8209" d="M196.557,127.977a1.006,1.006,0,0,0-.012,2.012h.011a.992.992,0,0,0,1-.995,1.01,1.01,0,0,0-.295-.722.992.992,0,0,0-.707-.3v-.144h0Z" transform="translate(-181.472 -118.632)" fill="#2d3ddf" stroke="#2d3ddf" stroke-width="0.7"/>
      <path id="Path_8210" data-name="Path 8210" d="M12.456,20.347a10.685,10.685,0,0,0,4.491-2.237,10.418,10.418,0,0,0,2.84-3.808A10.059,10.059,0,0,0,20.6,9.83a10.258,10.258,0,0,0-1.4-4.653A10.437,10.437,0,0,0,15.432,1.4,10.058,10.058,0,0,0,10.373,0h0A9.318,9.318,0,0,0,8.446.2,10.12,10.12,0,0,0,.26,8.073,9.051,9.051,0,0,0,.072,9.12C.05,9.28.027,9.445,0,9.609v1.3c.007.043.014.087.021.131.016.105.031.2.055.3.067.274.133.553.2.823.153.653.311,1.329.51,1.975a6.918,6.918,0,0,1,.3,2.757,6.372,6.372,0,0,1-.9,2.628.547.547,0,0,0-.077.436.606.606,0,0,0,.33.36,5.483,5.483,0,0,0,2.492.646,5.311,5.311,0,0,0,2.97-.98.685.685,0,0,1,.388-.133.717.717,0,0,1,.263.054,10.014,10.014,0,0,0,3.653.709,9.9,9.9,0,0,0,2.254-.265M6.474,18.716a.9.9,0,0,0-.371-.1.751.751,0,0,0-.5.227,3.941,3.941,0,0,1-2.664,1.035,4.677,4.677,0,0,1-.941-.1c-.073-.015-.14-.035-.2-.053L1.74,19.71l-.287-.081.091-.284c.052-.163.107-.324.16-.48.116-.342.226-.665.307-1a7.145,7.145,0,0,0-.133-3.733c-.051-.178-.1-.355-.155-.533a19.241,19.241,0,0,1-.554-2.2,8.091,8.091,0,0,1,.86-5.164A9.02,9.02,0,0,1,9.41,1.128a8.793,8.793,0,0,1,.961-.053A9.3,9.3,0,0,1,19.407,8.7a9.064,9.064,0,0,1-1.528,6.855,9.487,9.487,0,0,1-6.142,3.858,9.39,9.39,0,0,1-1.539.13,8.851,8.851,0,0,1-3.724-.828" fill="#2d3ddf" stroke="#2d3ddf" stroke-width="0.7"/>
      <path id="Path_8211" data-name="Path 8211" d="M152.8,148.7l-.04-.071a5.949,5.949,0,0,1-.441-5.217,10.621,10.621,0,0,0,.73-3.853,10.77,10.77,0,0,0-.754-3.846A9.662,9.662,0,0,0,150.683,133a.544.544,0,0,0-.42-.223.569.569,0,0,0-.232.053.482.482,0,0,0-.292.555,1.157,1.157,0,0,0,.222.4,9.1,9.1,0,0,1,1.414,9.062,7.29,7.29,0,0,0,.087,5.6.723.723,0,0,1,.045.165c0,.017.007.036.011.056l.063.276-.275.068a5.075,5.075,0,0,1-1.209.155,3.889,3.889,0,0,1-2.616-.994.837.837,0,0,0-.553-.253,1.006,1.006,0,0,0-.41.1,8.968,8.968,0,0,1-3.719.806,9.8,9.8,0,0,1-1.412-.1,9.193,9.193,0,0,1-4.63-2.064.646.646,0,0,0-.413-.187.468.468,0,0,0-.055,0,.5.5,0,0,0-.457.362.533.533,0,0,0,.215.613,10.429,10.429,0,0,0,6.568,2.442,11.688,11.688,0,0,0,3.837-.69.909.909,0,0,1,.3-.058.729.729,0,0,1,.446.161,4.8,4.8,0,0,0,1.673.772c.176.045.353.08.541.116l.228.045h.959l.027-.007a1.344,1.344,0,0,1,.18-.039,5.033,5.033,0,0,0,1.824-.606.526.526,0,0,0,.3-.6,1.305,1.305,0,0,0-.139-.295" transform="translate(-126.027 -123.224)" fill="#2d3ddf" stroke="#2d3ddf" stroke-width="0.7"/>
    </g>
  </g>
</svg>
