<svg id="Group_1160" data-name="Group 1160" xmlns="http://www.w3.org/2000/svg" xmlns:xlink="http://www.w3.org/1999/xlink" width="25.972" height="25.963" viewBox="0 0 25.972 25.963">
  <defs>
    <clipPath id="clip-path">
      <rect id="Rectangle_688" data-name="Rectangle 688" width="25.972" height="25.963" fill="#2d3ddf" stroke="#2d3ddf" stroke-width="0.5"/>
    </clipPath>
  </defs>
  <g id="Group_1160-2" data-name="Group 1160" clip-path="url(#clip-path)">
    <path id="Path_8212" data-name="Path 8212" d="M14.653,6.132A4.615,4.615,0,0,1,16.765.785,4.458,4.458,0,0,1,22.01.923a4.6,4.6,0,0,1,1.9,5.207l1.01.459c.2.092.407.176.6.277a.777.777,0,0,1,.452.726c0,.053,0,.106,0,.159q0,8.534,0,17.068c0,.547-.236.891-.695.936a1.221,1.221,0,0,1-.583-.124q-2.582-1.15-5.153-2.324a.565.565,0,0,0-.521,0c-1.883.859-3.773,1.7-5.655,2.565a.824.824,0,0,1-.752,0c-1.882-.861-3.771-1.708-5.655-2.565a.539.539,0,0,0-.5,0c-1.722.785-3.46,1.538-5.17,2.348A.867.867,0,0,1,0,24.812Q.032,16.278.007,7.744a.944.944,0,0,1,.627-.965Q3.495,5.506,6.341,4.2a.8.8,0,0,1,.73,0c1.892.862,3.788,1.713,5.68,2.575a.5.5,0,0,0,.473.007c.477-.229.961-.442,1.428-.654m4.229,10.557V16.4c0-1.169-.042-2.341.016-3.507a1.9,1.9,0,0,0-.647-1.589,16.527,16.527,0,0,1-3-3.9c-.091-.168-.176-.339-.271-.521-.45.2-.873.4-1.3.584a.376.376,0,0,0-.272.409q.011,8.384.006,16.768v.3c.07-.022.1-.029.135-.043q2.587-1.168,5.175-2.333c.156-.07.169-.171.169-.312q0-2.232,0-4.464c0-.076-.009-.153-.015-.252-.1.03-.187.051-.268.079a8.806,8.806,0,0,1-2.633.446c-.348.008-.543-.135-.55-.4s.168-.381.53-.421c.649-.072,1.3-.153,1.941-.264a8.8,8.8,0,0,0,1-.293m6.285,8.271V7.846a.4.4,0,0,0,0-.132c-.022-.059-.049-.141-.1-.163-.486-.227-.976-.444-1.478-.669-.1.189-.181.354-.269.515a19.7,19.7,0,0,1-3.458,4.386.6.6,0,0,0-.167.382c-.009,3.366-.006,6.732-.011,10.1a.293.293,0,0,0,.2.32c1.2.533,2.4,1.076,3.606,1.617l1.678.758M.816,24.936a.687.687,0,0,0,.123-.026q2.6-1.176,5.195-2.361a.342.342,0,0,0,.152-.255c.016-.434-.037-.874.017-1.3a1.761,1.761,0,0,0-.643-1.586A16.051,16.051,0,0,1,2.5,15.2a4.731,4.731,0,0,1-.607-2.181A4.658,4.658,0,0,1,4.573,8.675,12.034,12.034,0,0,1,6.28,8.1V5.134c-.066.024-.115.038-.162.059-1.7.767-3.4,1.538-5.106,2.3a.31.31,0,0,0-.2.346q.006,4.6,0,9.2c0,.074.007.149.011.234.384-.25.741-.493,1.108-.719a.4.4,0,0,1,.63.2.451.451,0,0,1-.231.515c-.455.333-.9.683-1.348,1.025a.468.468,0,0,0-.175.415c.006,1.985,0,3.97,0,5.955v.275m11.736,0a.35.35,0,0,0,.022-.073q0-3.64,0-7.279a.281.281,0,0,0-.152-.2c-.7-.283-1.4-.551-2.095-.831a.2.2,0,0,0-.28.091,22.8,22.8,0,0,1-2.783,3.273.578.578,0,0,0-.154.363c-.015.655,0,1.311-.012,1.966a.325.325,0,0,0,.234.352q2.494,1.113,4.982,2.24c.078.035.158.065.239.1M19.238,11.19a.429.429,0,0,0,.091-.038,18.177,18.177,0,0,0,3.338-4.243,4.01,4.01,0,0,0,.573-2.623,3.855,3.855,0,0,0-2.81-3.247,3.757,3.757,0,0,0-4.124,1.169,3.675,3.675,0,0,0-.66,4.173,12.682,12.682,0,0,0,2.088,3.155c.487.571,1.009,1.112,1.5,1.654M6.706,19.334c.336-.353.653-.673.956-1.007a15.53,15.53,0,0,0,2.527-3.5A3.97,3.97,0,0,0,10.7,13,3.839,3.839,0,0,0,8.5,9.418a3.811,3.811,0,0,0-4.227.39,3.855,3.855,0,0,0-1.1,4.951,18.507,18.507,0,0,0,3.531,4.575m.41-11.163a4.81,4.81,0,0,1,3.467,7.617l1.97.773a1.023,1.023,0,0,0,.024-.128q0-4.334.006-8.667c0-.175-.1-.221-.222-.278Q9.892,6.376,7.426,5.259c-.093-.042-.19-.077-.31-.125Z" transform="translate(0 0)" fill="#2d3ddf" stroke="#2d3ddf" stroke-width="0.5"/>
    <path id="Path_8213" data-name="Path 8213" d="M273.244,168.64c.126.106.3.183.337.3a.558.558,0,0,1-.094.448,6.191,6.191,0,0,1-.629.567c-.519.467-1.035.938-1.555,1.4-.238.213-.49.218-.651.027s-.129-.412.106-.623q1.056-.948,2.115-1.891a2.865,2.865,0,0,1,.371-.233" transform="translate(-249.573 -155.564)" fill="#2d3ddf" stroke="#2d3ddf" stroke-width="0.5"/>
    <path id="Path_8214" data-name="Path 8214" d="M211.421,27.565a2.891,2.891,0,1,1,2.879,2.9,2.9,2.9,0,0,1-2.879-2.9m4.966.047a2.081,2.081,0,1,0-2.114,2.046,2.08,2.08,0,0,0,2.114-2.046" transform="translate(-195.028 -22.767)" fill="#2d3ddf" stroke="#2d3ddf" stroke-width="0.5"/>
    <path id="Path_8215" data-name="Path 8215" d="M52.012,135.248a2.888,2.888,0,1,1,2.884-2.895,2.9,2.9,0,0,1-2.884,2.895M52,134.432a2.077,2.077,0,1,0-2.072-2.083A2.085,2.085,0,0,0,52,134.432" transform="translate(-45.306 -119.434)" fill="#2d3ddf" stroke="#2d3ddf" stroke-width="0.5"/>
  </g>
</svg>
