  <svg id="Group_1232" data-name="Group 1232" xmlns="http://www.w3.org/2000/svg" xmlns:xlink="http://www.w3.org/1999/xlink" width="25.524" height="25.666" viewBox="0 0 25.524 25.666">
  <defs>
    <clipPath id="clip-path">
      <rect id="Rectangle_689" data-name="Rectangle 689" width="25.524" height="25.666" fill="#2d3ddf" stroke="#2d3ddf" stroke-width="0.1"/>
    </clipPath>
  </defs>
  <g id="Group_1161" data-name="Group 1161" clip-path="url(#clip-path)">
    <path id="Path_8216" data-name="Path 8216" d="M20.966,41.073H4.556a.839.839,0,0,1-.55-.759c0-1-.005-2,0-3.007a.744.744,0,0,1,.728-.744c.081,0,.163,0,.27,0,0-.394-.013-.768,0-1.141a.821.821,0,0,0-.218-.606Q3.07,32.763,1.364,30.7A5.781,5.781,0,0,1,0,26.867c0-1.019,0-2.038,0-3.057,0-1.687-.008-3.375,0-5.062a2.248,2.248,0,0,1,4.5.013c.011,1.746,0,3.491,0,5.237v.28a2.4,2.4,0,0,1,3.24.479c1.291,1.362,2.651,2.659,3.965,4,.342.349.624.757.933,1.139.039.049.075.1.128.173A11.192,11.192,0,0,1,14.761,27.8c1.072-1.087,2.157-2.163,3.234-3.245a2.182,2.182,0,0,1,2.094-.666,6.433,6.433,0,0,1,.927.346v-.262c0-1.737-.007-3.475,0-5.212a2.249,2.249,0,1,1,4.5.036c.006,2.648-.011,5.3.007,7.943a6.1,6.1,0,0,1-1.505,4.134c-1.13,1.328-2.235,2.678-3.348,4.02a.506.506,0,0,0-.147.249c-.014.465-.007.931-.007,1.4.055.006.087.013.119.014.626.022.881.288.881.922,0,.86-.017,1.721.007,2.581a.952.952,0,0,1-.557,1.01m-1.951-4.522c0-.545.01-1.063,0-1.58a1.1,1.1,0,0,1,.282-.775c1.232-1.472,2.455-2.952,3.685-4.425a4.365,4.365,0,0,0,1.042-2.9c-.006-1.829,0-3.659,0-5.488q0-1.278,0-2.556a.752.752,0,1,0-1.5.011c0,1.963-.007,3.926,0,5.889A3.856,3.856,0,0,1,21.33,27.6c-.884.875-1.758,1.759-2.637,2.639-.165.165-.323.34-.5.492a.744.744,0,0,1-1.206-.311.78.78,0,0,1,.236-.841q1.447-1.439,2.884-2.887a.764.764,0,0,0,.057-1.134.75.75,0,0,0-1.111.064q-2.142,2.143-4.28,4.289A4.213,4.213,0,0,0,13.511,33q0,1.654,0,3.308c0,.08.007.161.011.246Zm-7,0c0-1.18-.007-2.332,0-3.484a4.337,4.337,0,0,0-1.338-3.235c-1.385-1.376-2.761-2.763-4.14-4.145a1.7,1.7,0,0,0-.2-.188.746.746,0,0,0-1.2.577.811.811,0,0,0,.283.617q1.454,1.449,2.9,2.906a.753.753,0,1,1-1.065,1.057q-1.586-1.583-3.165-3.173a3.463,3.463,0,0,1-.95-1.677,4.809,4.809,0,0,1-.125-1.04C3,22.8,3,20.841,3.007,18.878a.848.848,0,0,0-.242-.659.723.723,0,0,0-.812-.137.76.76,0,0,0-.449.746q0,4.035,0,8.07a4.319,4.319,0,0,0,1.029,2.857C3.739,31.2,4.938,32.659,6.154,34.1a1.361,1.361,0,0,1,.358,1c-.024.48-.006.962-.006,1.45ZM12,38.082H5.526v1.474H12Zm8,0H13.531v1.482h6.463Z" transform="translate(0 -15.407)" fill="#2d3ddf" stroke="#2d3ddf" stroke-width="0.1"/>
    <path id="Path_8217" data-name="Path 8217" d="M113.7,0c.216.057.436.1.647.172a3.244,3.244,0,0,1,1.441,5.141c-.085.1-.177.2-.271.294q-2.04,2.046-4.082,4.091a.781.781,0,0,1-1.273,0c-1.385-1.387-2.778-2.766-4.151-4.164A3.239,3.239,0,0,1,107.393.128c.167-.047.336-.086.5-.128h.8a1.464,1.464,0,0,0,.162.05A3.155,3.155,0,0,1,110.5.881a2.789,2.789,0,0,1,.25.324c.121-.115.188-.175.251-.238a3.167,3.167,0,0,1,1.324-.813c.188-.059.381-.1.572-.153Zm-2.911,8.2c.057-.05.089-.075.118-.1,1.2-1.2,2.408-2.4,3.6-3.614a1.733,1.733,0,1,0-2.429-2.471c-.242.229-.471.472-.709.706a.755.755,0,0,1-1.148,0c-.25-.245-.488-.5-.747-.739a1.665,1.665,0,0,0-1.715-.391,1.727,1.727,0,0,0-.7,2.875c.849.872,1.718,1.726,2.578,2.588.376.377.752.756,1.144,1.15" transform="translate(-98.039)" fill="#2d3ddf" stroke="#2d3ddf" stroke-width="0.1"/>
  </g>
</svg>
