<svg id="Group_2874" data-name="Group 2874" xmlns="http://www.w3.org/2000/svg" width="36" height="36" viewBox="0 0 36 36">
  <path id="Path_1409" data-name="Path 1409" d="M18,0A18,18,0,1,1,0,18,18,18,0,0,1,18,0Z" fill="#fff" opacity="0.9"/>
  <g id="Group_676" data-name="Group 676" transform="translate(6.441 4.083)">
    <g id="Group_801" data-name="Group 801" transform="translate(0.028 7.153)">
      <path id="Path_1365" data-name="Path 1365" d="M141.849,127.077c.667.954,1.312,1.873,1.952,2.795a2.085,2.085,0,0,1,.272.469.964.964,0,0,1-.446,1.153.926.926,0,0,1-1.23-.3c-.672-.9-1.36-1.8-1.963-2.745a1.487,1.487,0,0,0-1.523-.788c-1.022.067-2.051.017-3.157.017,0,.654,0,1.291,0,1.929,0,.331.01.663,0,.993a.93.93,0,0,1-.93.958.94.94,0,0,1-.947-.947c-.01-.148,0-.3,0-.447q0-5.09,0-10.18c0-1.5.092-1.6,1.593-1.6,1.39,0,2.783-.031,4.171.037a4.57,4.57,0,0,1,4.155,3.232,4.75,4.75,0,0,1-1.568,5.135c-.1.082-.208.161-.371.287m-6.092-1.3c1.194,0,2.333.011,3.47,0a2.752,2.752,0,1,0-.015-5.5c-1.008-.01-2.017,0-3.026,0-.141,0-.281.024-.43.038Z" transform="translate(-120.589 -118.381)" fill="#2d3ddf"/>
      <path id="Path_1367" data-name="Path 1367" d="M11.284,135.648a1.04,1.04,0,0,1-.922-.671c-.4-.9-.824-1.8-1.216-2.713a.543.543,0,0,0-.586-.389c-1.472.019-2.946.023-4.418,0a.564.564,0,0,0-.612.422c-.388.912-.806,1.811-1.2,2.719a1,1,0,0,1-.841.672.843.843,0,0,1-.974-1.131,7.75,7.75,0,0,1,.384-.912q2.169-4.865,4.341-9.73c.034-.075.071-.149.1-.226a1,1,0,0,1,.945-.746,1.018,1.018,0,0,1,.961.727q1.655,3.6,3.318,7.2c.519,1.125,1.049,2.245,1.554,3.376a.946.946,0,0,1-.831,1.4m-4.943-9.463-1.706,3.827H8.1l-1.763-3.827" transform="translate(-0.462 -122.487)" fill="#2d3ddf"/>
    </g>
  </g>
</svg>
