<svg xmlns="http://www.w3.org/2000/svg" xmlns:xlink="http://www.w3.org/1999/xlink" width="31.27" height="28.663" viewBox="0 0 31.27 28.663">
  <defs>
    <clipPath id="clip-path">
      <rect id="Rectangle_637" data-name="Rectangle 637" width="31.27" height="28.663" fill="#2d3ddf" stroke="#2d3ddf" stroke-width="0.4"/>
    </clipPath>
  </defs>
  <g id="Group_976" data-name="Group 976" transform="translate(-38.185 -1056.087)">
    <g id="Group_978" data-name="Group 978" transform="translate(38.185 1056.087)">
      <g id="Group_978-2" data-name="Group 978" clip-path="url(#clip-path)">
        <path id="Path_1657" data-name="Path 1657" d="M0,15.978a1.9,1.9,0,0,1,.412-.336A2.262,2.262,0,0,0,1.7,12.395,4.538,4.538,0,0,1,1.739,8.58a2.933,2.933,0,0,1,2.594-1.8,3.412,3.412,0,0,1,3.5,1.74c.091.158.159.329.212.441,2.74-.215,5.462-.054,8.181-.108.355-.007.51-.165.57-.546a14.416,14.416,0,0,1,1.462-4.628A6.644,6.644,0,0,1,21.615.445,5.641,5.641,0,0,1,25.842.378.938.938,0,0,0,26.3.384C27.04.262,27.774.1,28.516.008c.49-.06.708.23.641.714a3.714,3.714,0,0,1-.885,1.941c.068.116.143.233.208.355.654,1.228,1.32,2.45,1.954,3.688a3.346,3.346,0,0,1,.081,2.644,2.531,2.531,0,0,1-4.123.89,2.364,2.364,0,0,0-1.236-.767c.032.239.062.462.091.685a13.316,13.316,0,0,1-.086,4.793,7.086,7.086,0,0,0-.206.731.784.784,0,0,0,.095.561A15.783,15.783,0,0,1,28,20.55a7.292,7.292,0,0,1,1.4-.181,1.9,1.9,0,0,1,1.725,1.342,1.968,1.968,0,0,1-.46,2.146,11.693,11.693,0,0,1-3.1,2.243A22.024,22.024,0,0,1,20.5,28.31a32.983,32.983,0,0,1-6.7.3A24.285,24.285,0,0,1,3.707,26.1,13.332,13.332,0,0,1,.855,24.128,2.906,2.906,0,0,1,0,22.756v-.672a.7.7,0,0,0,.051-.11A2.078,2.078,0,0,1,3.629,21c.117.116.244.221.386.348a14.494,14.494,0,0,1,2.264-3.575.458.458,0,0,0,.057-.567c-.119-.2-.256-.384-.382-.571-.283.209-.539.426-.82.6a3.958,3.958,0,0,1-2.593.445A3.2,3.2,0,0,1,0,16.344v-.366M26.35,8.854c.077-.073.152-.14.223-.21.756-.755,1.507-1.515,2.271-2.262a.32.32,0,0,0,.075-.466c-.548-.939-1.077-1.889-1.622-2.83-.28-.483-.265-.569.08-.994.241-.3.434-.631.648-.948l-.086-.088c-.384.089-.768.175-1.151.267a1.162,1.162,0,0,0-.623.4,3.694,3.694,0,0,1-2.8,1.412,1.466,1.466,0,0,0-1.048.429,3.54,3.54,0,0,0-.739.917,18.363,18.363,0,0,0-.814,2.158,9.585,9.585,0,0,1-.859,2.239A1.942,1.942,0,0,1,18.064,9.9c-.279-.014-.56,0-.865,0,0,.69,0,1.329,0,1.969a3.043,3.043,0,0,1-1.652,2.854,9.01,9.01,0,0,1-1.462.489v2.923l1.855-.3c1.243-.2,2.481-.437,3.729-.592.784-.1,1.584-.052,2.374-.112a1.725,1.725,0,0,1,1.459.53A13.205,13.205,0,0,1,26.232,21.7c.038.088.085.172.14.283l.848-.6c-.041-.1-.072-.188-.109-.27a14.209,14.209,0,0,0-2.757-4.071,1.587,1.587,0,0,1-.38-1.742,7.617,7.617,0,0,0,.39-2.275,16.709,16.709,0,0,0-.348-3.88c-.118-.589.077-.82.68-.81a3.3,3.3,0,0,1,1.654.514m-.936,13.632a11.583,11.583,0,0,0-2.736-4.157.879.879,0,0,0-.528-.148c-.395,0-.791.03-1.186.055-.821.052-1.65.054-2.461.172-1.527.222-3.037.559-4.566.758a15.527,15.527,0,0,1-4.258,0,.593.593,0,0,0-.578.191c-.334.382-.692.747-1,1.148a9.335,9.335,0,0,0-1.351,2.4c4.8,2.21,14.063,2.142,18.667-.417m-9.767,5.13.007.085c1.6-.144,3.206-.23,4.8-.444A19.557,19.557,0,0,0,27.3,25.077a10.474,10.474,0,0,0,2.617-1.93,1.016,1.016,0,0,0-.007-1.476,1.028,1.028,0,0,0-1.458,0,11.2,11.2,0,0,1-3.987,2.418,23.542,23.542,0,0,1-7.884,1.422,26.884,26.884,0,0,1-8.068-.87,13.012,13.012,0,0,1-5.743-3.015,1,1,0,0,0-1.387.015,1.006,1.006,0,0,0-.122,1.381,4.354,4.354,0,0,0,.6.6,14.516,14.516,0,0,0,4.9,2.664,27.566,27.566,0,0,0,8.89,1.323M13.006,15.129l-.4-.054a3.075,3.075,0,0,1-2.619-2.391,5.624,5.624,0,0,1-.089-1.09c-.014-.555,0-1.111,0-1.66a3.007,3.007,0,0,0-3.341,1.831,4.705,4.705,0,0,0,.516,4.665,1.562,1.562,0,0,1-.093,2.137,13.364,13.364,0,0,0-1.867,2.884c-.081.17-.155.342-.238.525l.875.491c.032-.03.051-.041.06-.058.033-.063.065-.126.093-.192a11.486,11.486,0,0,1,2.441-3.582A1.659,1.659,0,0,1,9.9,18.146a14.84,14.84,0,0,0,3.11.035ZM1.455,16.31a3.728,3.728,0,0,0,2.452.282,1.976,1.976,0,0,0,1.411-.921.626.626,0,0,0,.058-.388c-.06-.4-.191-.8-.214-1.2A4.874,4.874,0,0,1,6.875,9.7a.365.365,0,0,0,.132-.527A2.455,2.455,0,0,0,4.289,7.83,1.985,1.985,0,0,0,2.628,9.139a3.629,3.629,0,0,0,.042,2.874,3.253,3.253,0,0,1-1.147,4.219.519.519,0,0,0-.067.079m9.494-6.4c0,.773-.043,1.517.011,2.255a2.008,2.008,0,0,0,1.816,1.875,9.021,9.021,0,0,0,1.157.03,2.093,2.093,0,0,0,2.221-2.187c.008-.58,0-1.159,0-1.739a1.951,1.951,0,0,0-.029-.234ZM25.164,1.265c-.129-.043-.213-.079-.3-.1a3.819,3.819,0,0,0-.479-.088,4.821,4.821,0,0,0-4.358,1.838,11.759,11.759,0,0,0-2.264,5.891A.973.973,0,0,0,19.036,8.3a7.476,7.476,0,0,0,.5-1.2c.232-.7.385-1.434.651-2.123.629-1.628,1.583-2.879,3.547-2.94a2.1,2.1,0,0,0,1.428-.77m2.078,8.29a1.533,1.533,0,0,0,2.034-.073,2.418,2.418,0,0,0,.251-2.223l-2.285,2.3" transform="translate(0 0)" fill="#2d3ddf" stroke="#2d3ddf" stroke-width="0.4"/>
        <path id="Path_1658" data-name="Path 1658" d="M320,57.486a.535.535,0,0,1,.524.525.522.522,0,0,1-.533.51.5.5,0,0,1-.5-.5.515.515,0,0,1,.509-.531" transform="translate(-293.429 -52.796)" fill="#2d3ddf" stroke="#2d3ddf" stroke-width="0.4"/>
      </g>
    </g>
  </g>
</svg>
