<svg xmlns="http://www.w3.org/2000/svg" width="23.467" height="22.79" viewBox="0 0 23.467 22.79">
  <g id="Group_742" data-name="Group 742" transform="translate(0.4 0.399)">
    <g id="Group_747" data-name="Group 747" transform="translate(0 0)">
      <path id="Path_1372" data-name="Path 1372" d="M.019,5.006q0-1.443,0-2.886A1.97,1.97,0,0,1,2.147,0Q5.069,0,7.991,0A1.906,1.906,0,0,1,9.908,1.274a2.314,2.314,0,0,1,.138.8q.016,2.9,0,5.8A1.956,1.956,0,0,1,8.464,9.981a2.6,2.6,0,0,1-.536.046c-1.916,0-3.833.009-5.749-.005a2.75,2.75,0,0,1-.938-.158A1.783,1.783,0,0,1,.033,8.151C0,7.1.025,6.055.025,5.006H.019M2.381,7.664H7.7V2.348H2.381Z" transform="translate(-0.012 0)" stroke="#fff" stroke-width="0.8"/>
      <path id="Path_1373" data-name="Path 1373" d="M10.031,76.16c0,.978,0,1.956,0,2.934a1.943,1.943,0,0,1-2.055,2.091q-2.969.021-5.938,0A1.943,1.943,0,0,1,.007,79.14q-.012-2.957,0-5.914a1.953,1.953,0,0,1,2.043-2.06c1.979-.011,3.958,0,5.938-.005a1.977,1.977,0,0,1,2.041,2c-.01,1,0,2,0,3h.006M2.36,78.837H7.679V73.524H2.36Z" transform="translate(0 -59.204)" stroke="#fff" stroke-width="0.8"/>
      <path id="Path_1374" data-name="Path 1374" d="M73.6,83.991c-1.47,0-2.94,0-4.41,0a1.169,1.169,0,0,1-.983-1.813,1.212,1.212,0,0,1,1.086-.533q2.932,0,5.864,0c.962,0,1.923-.006,2.885,0a1.174,1.174,0,0,1,.988,1.828,1.156,1.156,0,0,1-1.021.517q-2.2,0-4.41,0" transform="translate(-56.577 -67.924)" stroke="#fff" stroke-width="0.8"/>
      <path id="Path_1375" data-name="Path 1375" d="M73.654,12.773c-1.446,0-2.893,0-4.339,0a1.173,1.173,0,1,1-.052-2.345c.445-.014.891,0,1.337,0q3.718,0,7.435,0a1.165,1.165,0,0,1,1.2.849,1.146,1.146,0,0,1-1.082,1.489c-.993.021-1.986.008-2.979.009H73.654" transform="translate(-56.636 -8.669)" stroke="#fff" stroke-width="0.8"/>
      <path id="Path_1376" data-name="Path 1376" d="M71.887,35.225c.861,0,1.721,0,2.582,0a1.175,1.175,0,1,1,.007,2.346q-2.605.006-5.21,0a1.175,1.175,0,1,1,.016-2.346q1.3,0,2.6,0" transform="translate(-56.598 -29.306)" stroke="#fff" stroke-width="0.8"/>
      <path id="Path_1377" data-name="Path 1377" d="M71.9,106.426c.9,0,1.8-.011,2.7,0a1.073,1.073,0,0,1,.993.637,1.171,1.171,0,0,1-1.047,1.7q-2.663.01-5.327,0a1.17,1.17,0,1,1,.008-2.34c.892-.01,1.784,0,2.675,0v0" transform="translate(-56.598 -88.539)" stroke="#fff" stroke-width="0.8"/>
    </g>
  </g>
</svg>
