<svg xmlns="http://www.w3.org/2000/svg" xmlns:xlink="http://www.w3.org/1999/xlink" width="22" height="22" viewBox="0 0 22 22">
  <defs>
    <clipPath id="clip-path">
      <rect id="Rectangle_669" data-name="Rectangle 669" width="12" height="12.474" fill="#818181"/>
    </clipPath>
  </defs>
  <g id="Group_1032" data-name="Group 1032" transform="translate(-440.047 -572.981)">
    <circle id="Ellipse_76" data-name="Ellipse 76" cx="11" cy="11" r="11" transform="translate(440.047 572.981)" fill="#f4f4f4"/>
    <g id="Group_1026" data-name="Group 1026" transform="translate(444.97 578.982)">
      <g id="Group_1025" data-name="Group 1025" clip-path="url(#clip-path)">
        <path id="Path_1682" data-name="Path 1682" d="M106.471,7.518h.166c1.219,0,2.439,0,3.658,0a1.083,1.083,0,0,0,1.117-1.073,1.06,1.06,0,0,0-.529-.943c-.033-.02-.066-.039-.1-.058,0,0,0-.007-.011-.019a1.123,1.123,0,0,0-.275-1.836,1.129,1.129,0,0,0,.362-1.13,1.1,1.1,0,0,0-.814-.827,2.643,2.643,0,0,0,.181-.486A.963.963,0,0,0,109.24.007c-1.03,0-2.061,0-3.091,0-.67,0-1.34-.017-2.009.007-.366.013-.728.1-1.093.148-.089.012-.09.069-.09.139,0,.421,0,.841,0,1.262q0,2.26,0,4.521a.389.389,0,0,0,.085.243,2.538,2.538,0,0,1,.3.506c.336.826.659,1.657.984,2.487a.569.569,0,0,1,.035.2c0,.442,0,.884,0,1.327a.886.886,0,0,0,1.187.886,1.205,1.205,0,0,0,.586-.378,3.161,3.161,0,0,0,.682-3.029,4.985,4.985,0,0,0-.273-.663c-.018-.042-.042-.082-.074-.142" transform="translate(-99.412 0.698)" fill="#818181"/>
        <path id="Path_1683" data-name="Path 1683" d="M0,150.4q0,1.487,0,2.974a.656.656,0,0,0,.724.725H2.488a.651.651,0,0,0,.7-.7q0-3.013,0-6.026a.652.652,0,0,0-.7-.7H.685a.649.649,0,0,0-.685.687q0,1.519,0,3.039" transform="translate(0 -146.676)" fill="#818181"/>
      </g>
    </g>
  </g>
</svg>
