<?xml version="1.0" encoding="utf-8"?>
<!-- Generator: Adobe Illustrator 28.1.0, SVG Export Plug-In . SVG Version: 6.00 Build 0)  -->
<svg version="1.1" id="Layer_1" xmlns="http://www.w3.org/2000/svg" xmlns:xlink="http://www.w3.org/1999/xlink" x="0px" y="0px"
	 viewBox="0 0 56 55.9" style="enable-background:new 0 0 56 55.9;" xml:space="preserve">
<style type="text/css">
	.st0{fill:url(#SVGID_1_);}
	.st1{fill:#FCB62D;}
</style>
<g>
	
		<linearGradient id="SVGID_1_" gradientUnits="userSpaceOnUse" x1="-0.1876" y1="38.3752" x2="27.1447" y2="11.0429" gradientTransform="matrix(1 0 0 -1 0 67.2106)">
		<stop  offset="0" style="stop-color:#C180FF"/>
		<stop  offset="1" style="stop-color:#713DD3"/>
	</linearGradient>
	<path class="st0" d="M5.1,28c1.1,0,2.3,0,3.4,0c1.3,0,1.6,0.2,1.7,1.6c0.3,3.4,1.4,6.4,3.5,9.1c3.2,4.2,7.5,6.6,12.8,7.1
		c1.2,0.1,1.5,0.4,1.5,1.6c0,2.4,0,4.7,0,7.1c0,1.2-0.4,1.6-1.6,1.5c-8-0.5-14.6-3.8-19.8-9.9C2.7,41.5,0.6,36,0,30
		c-0.2-1.6,0.2-2,1.9-2C3,28,4,28,5.1,28L5.1,28z"/>
	<path class="st1" d="M47.3,33c-2.3,0-4.7,0-7,0c-0.7,0-1.4,0.1-1.4,0.8c0,0.5,0.3,1.1,0.7,1.4c3.3,2.6,6.7,5.1,10.1,7.7
		c1.3,1,1.4,1.5,0.2,2.7c-1.5,1.5-3,3-4.5,4.5c-1.1,1.1-1.5,1.1-2.5,0c-9.7-9.7-19.5-19.5-29.2-29.2c-2.6-2.6-5.2-5.2-7.8-7.8
		c-1.1-1.1-1.1-1.5,0-2.6c1.5-1.5,3-3.1,4.6-4.6C11.4,5,12.1,5,12.9,6.1c2.6,3.4,5.2,6.8,7.7,10.2c0.4,0.5,0.8,1.1,1.6,0.8
		c0.8-0.3,0.7-1,0.7-1.6c0-4.5,0-9.1,0-13.6c0-1.5,0.3-1.9,1.9-1.9c2.2,0,4.4,0,6.6,0c1.2,0,1.6,0.5,1.5,1.7
		c-0.6,4.3-1.2,8.6-1.8,12.9c-0.1,0.6-0.1,1.3,0.6,1.5c0.5,0.1,1.2-0.1,1.5-0.4c3.3-3.2,6.5-6.5,9.8-9.8c1-1,1.5-1,2.5,0
		c1.6,1.6,3.2,3.2,4.7,4.7c0.9,0.9,0.9,1.5,0,2.4c-3.3,3.3-6.5,6.5-9.8,9.8c-0.3,0.3-0.6,0.9-0.6,1.3c0,0.8,0.7,0.9,1.4,0.8
		c2.7-0.4,5.4-0.7,8-1.1c1.7-0.2,3.5-0.5,5.2-0.7c1.1-0.1,1.6,0.3,1.6,1.5c0,2.3,0,4.6,0,6.9c0,1.2-0.4,1.6-1.6,1.6
		C52.1,33.1,49.7,33.1,47.3,33L47.3,33L47.3,33z"/>
</g>
</svg>
