<svg xmlns="http://www.w3.org/2000/svg" width="36" height="36" viewBox="0 0 36 36">
  <g id="Group_2750" data-name="Group 2750" transform="translate(-357 -517)">
    <circle id="Ellipse_1" data-name="Ellipse 1" cx="18" cy="18" r="18" transform="translate(357 517)" fill="#2d3ddf"/>
    <g id="Group_676" data-name="Group 676" transform="translate(363.233 528.494)">
      <g id="Group_819" data-name="Group 819">
        <path id="Path_1365" data-name="Path 1365" d="M141.846,127.074c.667.954,1.311,1.872,1.951,2.794a2.083,2.083,0,0,1,.272.469.964.964,0,0,1-.446,1.152.925.925,0,0,1-1.23-.3c-.672-.9-1.36-1.8-1.962-2.744a1.486,1.486,0,0,0-1.522-.788c-1.021.067-2.05.017-3.156.017,0,.654,0,1.291,0,1.928,0,.331.01.662,0,.993a.93.93,0,0,1-.93.958.94.94,0,0,1-.947-.946c-.01-.148,0-.3,0-.447q0-5.089,0-10.177c0-1.5.092-1.6,1.592-1.6,1.39,0,2.782-.031,4.17.037a4.568,4.568,0,0,1,4.154,3.231,4.749,4.749,0,0,1-1.567,5.134c-.1.082-.208.161-.371.287m-6.09-1.3c1.194,0,2.332.011,3.469,0a2.751,2.751,0,1,0-.015-5.5c-1.008-.01-2.016,0-3.025,0-.14,0-.281.024-.429.038Z" transform="translate(-120.594 -118.381)" fill="#fff"/>
        <path id="Path_1367" data-name="Path 1367" d="M11.28,135.644a1.039,1.039,0,0,1-.922-.67c-.4-.9-.823-1.8-1.216-2.712a.542.542,0,0,0-.586-.389c-1.472.019-2.945.023-4.416,0a.564.564,0,0,0-.611.422c-.388.911-.806,1.81-1.2,2.718a1,1,0,0,1-.841.671.842.842,0,0,1-.974-1.131,7.746,7.746,0,0,1,.384-.912q2.168-4.864,4.339-9.726c.034-.075.071-.149.1-.226a1,1,0,0,1,.945-.746,1.018,1.018,0,0,1,.96.727q1.654,3.6,3.317,7.2c.519,1.125,1.048,2.244,1.553,3.375a.945.945,0,0,1-.831,1.4m-4.941-9.46L4.634,130.01H8.1l-1.763-3.826" transform="translate(-0.462 -122.488)" fill="#fff"/>
      </g>
    </g>
  </g>
</svg>
