<svg xmlns="http://www.w3.org/2000/svg" xmlns:xlink="http://www.w3.org/1999/xlink" width="160" height="28" viewBox="0 0 160 28">
  <defs>
    <linearGradient id="linear-gradient" x1="-0.207" y1="-0.911" x2="0.5" y2="0.919" gradientUnits="objectBoundingBox">
      <stop offset="0" stop-color="#c080ff"/>
      <stop offset="1" stop-color="#713dd2"/>
    </linearGradient>
    <linearGradient id="linear-gradient-2" x1="0" y1="0.5" x2="1" y2="0.5" xlink:href="#linear-gradient"/>
  </defs>
  <g id="Layer_1" data-name="Layer 1" transform="translate(0 -0.01)">
    <g id="Group_657" data-name="Group 657" transform="translate(0 0.01)">
      <path id="Path_1362" data-name="Path 1362" d="M9.986,42.332c.329-.329.653-.658.986-.986.382-.382.534-.4.978-.025A7.055,7.055,0,0,0,15.6,42.944a7.259,7.259,0,0,0,5.782-1.656c.37-.3.551-.308.884.025q1.029,1.023,2.055,2.055c.345.349.349.571-.025.9a11.533,11.533,0,0,1-15.2.119c-.518-.431-.522-.645-.037-1.126l.929-.929Z" transform="translate(-5.125 -24.185)" fill="url(#linear-gradient)"/>
      <path id="Path_1363" data-name="Path 1363" d="M18.669,2.389c-.337-.333-.608-.329-.9.041-.444.559-.871,1.134-1.307,1.705-.674.884-1.348,1.771-2.022,2.655-.173.226-.407.366-.641.156a.807.807,0,0,1-.2-.555C13.586,4.493,13.59,2.6,13.59.7c0-.53-.164-.69-.69-.69H10.154c-.6,0-.719.123-.719.727,0,1.9.008,3.793-.016,5.692A.768.768,0,0,1,9.111,7c-.238.152-.44-.053-.592-.255Q6.9,4.6,5.268,2.472c-.3-.395-.551-.423-.912-.07-.645.633-1.282,1.27-1.919,1.911-.452.456-.448.637,0,1.089Q4.414,7.374,6.386,9.342c.193.193.4.378.255.686s-.427.259-.694.222l-5.2-.715C.205,9.462,0,9.642,0,10.177v2.667c0,.637.123.752.777.752H8.2s.526.012.518-.448a2.833,2.833,0,0,1,.859-1.7c1.919-1.919,4.566-.407,5.05,1.607a.725.725,0,0,0,.616.538h7.027c.641,0,.744-.1.744-.74V10.271c0-.678-.16-.818-.838-.727-1.722.234-3.44.481-5.166.694a.786.786,0,0,1-.608-.21c-.205-.23-.021-.46.168-.649.678-.674,1.352-1.352,2.026-2.026h0c.686-.682,1.373-1.364,2.055-2.055.341-.341.341-.575.008-.916q-.992-1-2-2Z" transform="translate(0 -0.01)" fill="#fbb52d"/>
    </g>
    <g id="Group_658" data-name="Group 658" transform="translate(31.337 3.967)">
      <path id="Path_1364" data-name="Path 1364" d="M119.911,22.829a1.552,1.552,0,0,1,.436,1.113v6.5a5.942,5.942,0,0,1-1.52,4.328,6.757,6.757,0,0,1-8.642,0,5.987,5.987,0,0,1-1.5-4.328v-6.5a1.522,1.522,0,0,1,.436-1.113,1.466,1.466,0,0,1,1.1-.449,1.451,1.451,0,0,1,1.1.449,1.552,1.552,0,0,1,.436,1.113v6.5a3.34,3.34,0,0,0,.69,2.317,2.667,2.667,0,0,0,2.067.754,2.718,2.718,0,0,0,2.092-.754,3.347,3.347,0,0,0,.69-2.317v-6.5a1.522,1.522,0,0,1,.436-1.113,1.466,1.466,0,0,1,1.1-.449,1.451,1.451,0,0,1,1.1.449Z" transform="translate(-95.356 -17.145)" fill="#fff"/>
      <path id="Path_1365" data-name="Path 1365" d="M156.036,23.31a7.875,7.875,0,0,1,.994,4.287v6.554a1.522,1.522,0,0,1-.436,1.113,1.564,1.564,0,0,1-2.194,0,1.539,1.539,0,0,1-.436-1.113V27.6a3.694,3.694,0,0,0-.588-2.214,2.336,2.336,0,0,0-2.018-.808,3.148,3.148,0,0,0-2.322.857A2.96,2.96,0,0,0,148.2,27.6v6.554a1.522,1.522,0,0,1-.436,1.113,1.564,1.564,0,0,1-2.194,0,1.539,1.539,0,0,1-.436-1.113V23.578a1.522,1.522,0,0,1,.436-1.113,1.466,1.466,0,0,1,1.1-.449,1.451,1.451,0,0,1,1.1.449,1.552,1.552,0,0,1,.436,1.113v.437a6.213,6.213,0,0,1,1.8-1.587,4.641,4.641,0,0,1,2.437-.668q2.6,0,3.6,1.55Z" transform="translate(-116.827 -16.779)" fill="#fff"/>
      <path id="Path_1366" data-name="Path 1366" d="M193.056,23.31a7.875,7.875,0,0,1,.994,4.287v6.554a1.522,1.522,0,0,1-.436,1.113,1.564,1.564,0,0,1-2.194,0,1.539,1.539,0,0,1-.436-1.113V27.6a3.694,3.694,0,0,0-.588-2.214,2.336,2.336,0,0,0-2.018-.808,3.148,3.148,0,0,0-2.322.857,2.96,2.96,0,0,0-.842,2.164v6.554a1.522,1.522,0,0,1-.436,1.113,1.564,1.564,0,0,1-2.194,0,1.539,1.539,0,0,1-.436-1.113V23.578a1.522,1.522,0,0,1,.436-1.113,1.466,1.466,0,0,1,1.1-.449,1.451,1.451,0,0,1,1.1.449,1.552,1.552,0,0,1,.436,1.113v.437a6.213,6.213,0,0,1,1.8-1.587,4.641,4.641,0,0,1,2.437-.668q2.6,0,3.6,1.55Z" transform="translate(-138.634 -16.779)" fill="#fff"/>
      <path id="Path_1367" data-name="Path 1367" d="M230.111,22.846a1.545,1.545,0,0,1,.436,1.11V34.8q0,3.316-1.788,4.837a7.135,7.135,0,0,1-4.775,1.52,11.468,11.468,0,0,1-1.775-.14,6.759,6.759,0,0,1-1.467-.37q-1.251-.536-1.249-1.479a1.238,1.238,0,0,1,.078-.407,1.576,1.576,0,0,1,.522-.855,1.255,1.255,0,0,1,.805-.292,1.463,1.463,0,0,1,.485.078c.119.049.329.136.625.255a6.037,6.037,0,0,0,.945.292,4.52,4.52,0,0,0,1.036.115,3.879,3.879,0,0,0,2.667-.777,3.478,3.478,0,0,0,.855-2.667V34.66a4.979,4.979,0,0,1-4.134,1.66,4.436,4.436,0,0,1-2.351-.625,4.2,4.2,0,0,1-1.582-1.734,5.553,5.553,0,0,1-.563-2.54V23.967a1.515,1.515,0,0,1,.436-1.11,1.468,1.468,0,0,1,1.1-.448,1.453,1.453,0,0,1,1.1.448,1.545,1.545,0,0,1,.436,1.11V30.5a3.176,3.176,0,0,0,.7,2.309,2.78,2.78,0,0,0,2.055.7,2.649,2.649,0,0,0,2.055-.777,3.149,3.149,0,0,0,.727-2.236V23.967a1.515,1.515,0,0,1,.436-1.11,1.468,1.468,0,0,1,1.1-.448,1.453,1.453,0,0,1,1.1.448Z" transform="translate(-160.27 -17.119)" fill="#fff"/>
      <path id="Path_1368" data-name="Path 1368" d="M295.891,22.846a1.545,1.545,0,0,1,.436,1.11V34.8q0,3.316-1.788,4.837a7.135,7.135,0,0,1-4.775,1.52,11.468,11.468,0,0,1-1.775-.14,6.759,6.759,0,0,1-1.467-.37q-1.251-.536-1.249-1.479a1.238,1.238,0,0,1,.078-.407,1.577,1.577,0,0,1,.522-.855,1.255,1.255,0,0,1,.805-.292,1.463,1.463,0,0,1,.485.078c.119.049.329.136.625.255a6.037,6.037,0,0,0,.945.292,4.52,4.52,0,0,0,1.036.115,3.879,3.879,0,0,0,2.667-.777,3.478,3.478,0,0,0,.855-2.667V34.66a4.979,4.979,0,0,1-4.134,1.66,4.436,4.436,0,0,1-2.351-.625,4.2,4.2,0,0,1-1.582-1.734,5.553,5.553,0,0,1-.563-2.54V23.967a1.515,1.515,0,0,1,.436-1.11,1.468,1.468,0,0,1,1.1-.448,1.453,1.453,0,0,1,1.1.448,1.545,1.545,0,0,1,.436,1.11V30.5a3.176,3.176,0,0,0,.7,2.309,2.78,2.78,0,0,0,2.055.7,2.649,2.649,0,0,0,2.055-.777,3.149,3.149,0,0,0,.727-2.236V23.967a1.515,1.515,0,0,1,.436-1.11,1.468,1.468,0,0,1,1.1-.448,1.453,1.453,0,0,1,1.1.448Z" transform="translate(-199.018 -17.119)" fill="#fff"/>
      <path id="Path_1369" data-name="Path 1369" d="M331.866,10.08A1.527,1.527,0,0,1,332.3,11.2V26.978a1.515,1.515,0,0,1-.436,1.11,1.453,1.453,0,0,1-1.1.448,1.433,1.433,0,0,1-1.085-.436,1.6,1.6,0,0,1-.448-1.1,5.268,5.268,0,0,1-1.722,1.266,5.183,5.183,0,0,1-2.285.522,5.786,5.786,0,0,1-3.189-.908,6.365,6.365,0,0,1-2.26-2.515,7.826,7.826,0,0,1-.83-3.649,8,8,0,0,1,.818-3.661A6.289,6.289,0,0,1,322,15.529a5.684,5.684,0,0,1,3.127-.908,5.87,5.87,0,0,1,2.3.448A6.131,6.131,0,0,1,329.24,16.2V11.2a1.515,1.515,0,0,1,.436-1.11,1.584,1.584,0,0,1,2.194-.012Zm-3.546,14.691a4.5,4.5,0,0,0,1.048-3.049,4.539,4.539,0,0,0-1.048-3.062,3.389,3.389,0,0,0-2.7-1.225,3.34,3.34,0,0,0-2.679,1.225,4.546,4.546,0,0,0-1.048,3.062,4.525,4.525,0,0,0,1.036,3.049,3.608,3.608,0,0,0,5.4,0Z" transform="translate(-219.217 -9.64)" fill="#fff"/>
      <path id="Path_1370" data-name="Path 1370" d="M370.2,29.552a1.63,1.63,0,0,1-1.073.383H360.7a3.908,3.908,0,0,0,3.883,3.228,5.5,5.5,0,0,0,1.636-.194,4.323,4.323,0,0,0,.933-.408c.23-.144.386-.243.473-.293a1.965,1.965,0,0,1,.867-.231,1.255,1.255,0,0,1,.921.383,1.232,1.232,0,0,1,.382.894,1.6,1.6,0,0,1-.715,1.253,6.079,6.079,0,0,1-1.915,1A7.91,7.91,0,0,1,361,35.08a6.231,6.231,0,0,1-2.462-2.469,7.211,7.211,0,0,1-.867-3.545,7.874,7.874,0,0,1,.921-3.867,6.55,6.55,0,0,1,2.425-2.547,6.242,6.242,0,0,1,3.218-.882,5.9,5.9,0,0,1,3.177.923,6.884,6.884,0,0,1,2.388,2.486,6.694,6.694,0,0,1,.892,3.38,1.308,1.308,0,0,1-.485,1Zm-9.472-2.176h6.686V27.2a2.641,2.641,0,0,0-1.048-1.843,3.308,3.308,0,0,0-2.145-.767,3.173,3.173,0,0,0-3.5,2.791Z" transform="translate(-242.026 -16.785)" fill="#fff"/>
      <path id="Path_1371" data-name="Path 1371" d="M264.23,30.065a3.934,3.934,0,0,0-1.557-1.249,17.424,17.424,0,0,0-2.3-.793c-.666-.189-1.179-.345-1.545-.473a2.5,2.5,0,0,1-.908-.534,1.2,1.2,0,0,1-.358-.908q0-1.405,1.94-1.405a3.922,3.922,0,0,1,1.648.333,3.27,3.27,0,0,1,1.188.892,1.242,1.242,0,0,0,.921.358,1.3,1.3,0,0,0,.818-.279,1.182,1.182,0,0,0,.485-.97,1.426,1.426,0,0,0-.333-.921,4.55,4.55,0,0,0-2.042-1.43,7.376,7.376,0,0,0-2.605-.485,5.854,5.854,0,0,0-2.412.5,4.641,4.641,0,0,0-1.837,1.405,3.791,3.791,0,0,0-.025,4.364,4.246,4.246,0,0,0,1.607,1.237,18.248,18.248,0,0,0,2.412.818,9.466,9.466,0,0,1,2.1.764,1.968,1.968,0,0,1,.814,1.011,1.639,1.639,0,0,0,.226.448c.7.949.842,1.114,1.266,1.673a.279.279,0,0,0,.436-.012,3.42,3.42,0,0,0,.695-2.12A3.583,3.583,0,0,0,264.23,30.065Z" transform="translate(-181.329 -17.019)" fill="#fff"/>
      <path id="Path_1372" data-name="Path 1372" d="M254.265,46.536c.23-.14.46-.279.69-.415.267-.16.358-.148.555.123a4.087,4.087,0,0,0,1.825,1.422,4.187,4.187,0,0,0,3.481-.123c.251-.119.353-.095.493.136.292.481.579.962.867,1.442.148.247.115.37-.14.5a6.674,6.674,0,0,1-8.56-2.055c-.23-.316-.2-.436.136-.637.218-.131.436-.263.653-.39Z" transform="translate(-180.561 -31.035)" fill="url(#linear-gradient-2)"/>
      <path id="Path_1373" data-name="Path 1373" d="M87.16,29.615A3.934,3.934,0,0,0,85.6,28.366a17.424,17.424,0,0,0-2.3-.793c-.666-.189-1.179-.345-1.545-.473a2.5,2.5,0,0,1-.908-.534,1.2,1.2,0,0,1-.358-.908q0-1.405,1.94-1.405a3.922,3.922,0,0,1,1.648.333,3.27,3.27,0,0,1,1.188.892,1.242,1.242,0,0,0,.921.358,1.3,1.3,0,0,0,.818-.279,1.182,1.182,0,0,0,.485-.97,1.426,1.426,0,0,0-.333-.921,4.55,4.55,0,0,0-2.042-1.43,7.376,7.376,0,0,0-2.605-.485,5.854,5.854,0,0,0-2.412.5,4.641,4.641,0,0,0-1.837,1.405,3.791,3.791,0,0,0-.025,4.364,4.246,4.246,0,0,0,1.607,1.237,18.246,18.246,0,0,0,2.412.818,9.468,9.468,0,0,1,2.1.764,1.969,1.969,0,0,1,.814,1.011,1.64,1.64,0,0,0,.226.448c.7.949.842,1.114,1.266,1.673a.279.279,0,0,0,.436-.012,3.42,3.42,0,0,0,.694-2.12A3.583,3.583,0,0,0,87.16,29.615Z" transform="translate(-77.024 -16.755)" fill="#fff"/>
      <path id="Path_1374" data-name="Path 1374" d="M77.195,46.086c.23-.14.46-.279.69-.415.267-.16.358-.148.555.123a4.087,4.087,0,0,0,1.825,1.422,4.187,4.187,0,0,0,3.481-.123c.251-.119.353-.095.493.136.292.481.579.962.867,1.442.148.247.115.37-.14.5a6.674,6.674,0,0,1-8.56-2.055c-.23-.316-.2-.436.136-.637.218-.131.436-.263.653-.39Z" transform="translate(-76.257 -30.77)" fill="url(#linear-gradient-2)"/>
    </g>
  </g>
</svg>
