<svg id="outline-edit-24px" xmlns="http://www.w3.org/2000/svg" width="20" height="20" viewBox="0 0 20 20">
  <g id="Bounding_Boxes">
    <path id="Path_3051" data-name="Path 3051" d="M0,0H20V20H0Z" fill="none"/>
  </g>
  <g id="Outline_1_" transform="translate(3 3)">
    <path id="XMLID_37_" d="M11.6,7.682l.716.716L5.271,15.444H4.556v-.716L11.6,7.682M14.4,3a.779.779,0,0,0-.544.226L12.435,4.649l2.917,2.917,1.423-1.423a.775.775,0,0,0,0-1.1l-1.82-1.82A.764.764,0,0,0,14.4,3ZM11.6,5.481,3,14.083V17H5.917l8.6-8.6L11.6,5.481Z" transform="translate(-3 -3)" fill="#2d3ddf"/>
  </g>
</svg>
