<?xml version="1.0" encoding="utf-8"?>
<!-- Generator: Adobe Illustrator 28.1.0, SVG Export Plug-In . SVG Version: 6.00 Build 0)  -->
<svg version="1.1" id="Layer_1" xmlns="http://www.w3.org/2000/svg" xmlns:xlink="http://www.w3.org/1999/xlink" x="0px" y="0px"
	 viewBox="0 0 389.3 68" style="enable-background:new 0 0 389.3 68;" xml:space="preserve">
<style type="text/css">
	.st0{fill:url(#SVGID_1_);}
	.st1{fill:#FBB52B;}
	.st2{fill:#FFFFFF;}
</style>
<g>
	<g>
		
			<linearGradient id="SVGID_1_" gradientUnits="userSpaceOnUse" x1="255.1524" y1="-608.0294" x2="282.4715" y2="-580.7102" gradientTransform="matrix(0.7071 -0.7071 0.7071 0.7071 258.2245 658.8834)">
			<stop  offset="0" style="stop-color:#A483BC"/>
			<stop  offset="1" style="stop-color:#6A53A3"/>
		</linearGradient>
		<path class="st0" d="M11.8,44.2c0.8-0.8,1.6-1.6,2.4-2.4c0.9-0.9,1.3-1,2.4-0.1c2.6,2.2,5.6,3.5,8.9,4c5.3,0.7,10-0.7,14.1-4
			c0.9-0.7,1.3-0.7,2.1,0.1c1.7,1.7,3.3,3.3,5,5c0.8,0.9,0.9,1.4-0.1,2.2c-6,5.3-13,7.6-20.9,7c-6.1-0.5-11.4-2.8-16-6.7
			c-1.3-1.1-1.3-1.6-0.1-2.7C10.3,45.7,11.1,44.9,11.8,44.2z"/>
	</g>
	<path class="st1" d="M45.4,5.8C44.6,5,43.9,5,43.2,5.9c-1.1,1.4-2.1,2.8-3.2,4.1c-1.6,2.2-3.3,4.3-4.9,6.5c-0.4,0.6-1,0.9-1.6,0.4
		c-0.3-0.3-0.5-0.9-0.5-1.4c0-4.6,0-9.2,0-13.9c0-1.3-0.4-1.7-1.7-1.7c-2.2,0-4.5,0-6.7,0C23.3,0,23,0.3,23,1.8c0,4.6,0,9.2,0,13.8
		c0,0.5-0.4,1.1-0.7,1.4c-0.6,0.4-1.1-0.1-1.4-0.6c-2.6-3.5-5.3-6.9-7.9-10.4c-0.7-1-1.3-1-2.2-0.2C9,7.4,7.5,8.9,5.9,10.5
		c-1.1,1.1-1.1,1.6,0,2.7c3.2,3.2,6.4,6.4,9.6,9.6c0.5,0.5,1,0.9,0.6,1.7c-0.4,0.8-1,0.6-1.7,0.5c-4.2-0.6-8.4-1.2-12.7-1.7
		C0.5,23,0,23.4,0,24.7c0,2.2,0,4.3,0,6.5c0,1.5,0.3,1.8,1.9,1.8c3.7,0,7.4,0,11,0c2.3,0,4.7,0,7,0c0,0,1.3,0,1.3-1.1
		c0.2-1.4,0.8-2.8,2.1-4.1c4.7-4.7,11.1-1,12.3,3.9c0.1,0.6,0.8,1.2,1.5,1.3c5.7,0,11.4,0,17.1,0c1.6,0,1.8-0.3,1.8-1.8
		c0-2.1,0-4.2,0-6.3c0-1.7-0.4-2-2-1.8c-4.2,0.6-8.4,1.2-12.6,1.7c-0.5,0.1-1.2-0.2-1.5-0.5c-0.5-0.6,0-1.1,0.4-1.6
		c1.6-1.6,3.3-3.3,4.9-4.9l0,0c1.7-1.7,3.3-3.3,5-5c0.8-0.8,0.8-1.4,0-2.2C48.7,9,47.1,7.4,45.4,5.8z"/>
</g>
<g>
	<path class="st2" d="M136,23.5c0.7,0.7,1.1,1.6,1.1,2.7V42c0,4.5-1.2,8-3.7,10.5c-2.5,2.5-6,3.8-10.5,3.8c-4.6,0-8.1-1.3-10.5-3.8
		c-2.4-2.5-3.7-6-3.7-10.5V26.2c0-1.1,0.4-2,1.1-2.7c0.7-0.7,1.6-1.1,2.7-1.1c1.1,0,2,0.4,2.7,1.1c0.7,0.7,1.1,1.6,1.1,2.7V42
		c0,2.5,0.6,4.4,1.7,5.6c1.1,1.2,2.8,1.8,5,1.8c2.3,0,4-0.6,5.1-1.8c1.1-1.2,1.7-3.1,1.7-5.6V26.2c0-1.1,0.4-2,1.1-2.7
		c0.7-0.7,1.6-1.1,2.7-1.1C134.4,22.4,135.3,22.7,136,23.5z"/>
	<path class="st2" d="M171.7,25.5c1.6,2.5,2.4,6,2.4,10.4v15.9c0,1.1-0.4,2-1.1,2.7c-0.7,0.7-1.6,1.1-2.7,1.1c-1.1,0-2-0.4-2.7-1.1
		c-0.7-0.7-1.1-1.6-1.1-2.7V35.9c0-2.3-0.5-4.1-1.4-5.4c-1-1.3-2.6-2-4.9-2c-2.4,0-4.3,0.7-5.7,2.1c-1.4,1.4-2,3.1-2,5.2v15.9
		c0,1.1-0.4,2-1.1,2.7c-0.7,0.7-1.6,1.1-2.7,1.1c-1.1,0-2-0.4-2.7-1.1c-0.7-0.7-1.1-1.6-1.1-2.7V26.2c0-1.1,0.4-2,1.1-2.7
		c0.7-0.7,1.6-1.1,2.7-1.1c1.1,0,2,0.4,2.7,1.1c0.7,0.7,1.1,1.6,1.1,2.7v1.1c1.1-1.5,2.6-2.8,4.4-3.9c1.8-1.1,3.8-1.6,5.9-1.6
		C167.1,21.8,170.1,23,171.7,25.5z"/>
	<path class="st2" d="M208.7,25.5c1.6,2.5,2.4,6,2.4,10.4v15.9c0,1.1-0.4,2-1.1,2.7c-0.7,0.7-1.6,1.1-2.7,1.1c-1.1,0-2-0.4-2.7-1.1
		c-0.7-0.7-1.1-1.6-1.1-2.7V35.9c0-2.3-0.5-4.1-1.4-5.4c-1-1.3-2.6-2-4.9-2c-2.4,0-4.3,0.7-5.7,2.1c-1.4,1.4-2,3.1-2,5.2v15.9
		c0,1.1-0.4,2-1.1,2.7c-0.7,0.7-1.6,1.1-2.7,1.1c-1.1,0-2-0.4-2.7-1.1c-0.7-0.7-1.1-1.6-1.1-2.7V26.2c0-1.1,0.4-2,1.1-2.7
		c0.7-0.7,1.6-1.1,2.7-1.1c1.1,0,2,0.4,2.7,1.1c0.7,0.7,1.1,1.6,1.1,2.7v1.1c1.1-1.5,2.6-2.8,4.4-3.9c1.8-1.1,3.8-1.6,5.9-1.6
		C204.2,21.8,207.1,23,208.7,25.5z"/>
	<path class="st2" d="M246.2,23.5c0.7,0.7,1.1,1.6,1.1,2.7v26.4c0,5.4-1.5,9.3-4.3,11.8c-2.9,2.5-6.8,3.7-11.6,3.7
		c-1.4,0-2.8-0.1-4.3-0.3c-1.5-0.2-2.7-0.5-3.6-0.9c-2-0.9-3-2.1-3-3.6c0-0.3,0.1-0.6,0.2-1c0.2-0.9,0.7-1.6,1.3-2.1
		c0.6-0.5,1.3-0.7,2-0.7c0.4,0,0.8,0.1,1.2,0.2c0.3,0.1,0.8,0.3,1.5,0.6c0.7,0.3,1.5,0.5,2.3,0.7c0.8,0.2,1.6,0.3,2.5,0.3
		c2.9,0,5.1-0.6,6.5-1.9c1.4-1.3,2.1-3.4,2.1-6.5v-0.6c-2.2,2.7-5.5,4-10.1,4c-2.2,0-4.1-0.5-5.7-1.5c-1.7-1-2.9-2.4-3.9-4.2
		c-0.9-1.8-1.4-3.9-1.4-6.2V26.2c0-1.1,0.4-2,1.1-2.7c0.7-0.7,1.6-1.1,2.7-1.1c1.1,0,2,0.4,2.7,1.1c0.7,0.7,1.1,1.6,1.1,2.7v15.9
		c0,2.6,0.6,4.5,1.7,5.6c1.1,1.1,2.8,1.7,5,1.7c2.2,0,3.8-0.6,5-1.9c1.2-1.3,1.8-3.1,1.8-5.4V26.2c0-1.1,0.4-2,1.1-2.7
		c0.7-0.7,1.6-1.1,2.7-1.1C244.6,22.4,245.5,22.7,246.2,23.5z"/>
	<path class="st2" d="M312,23.5c0.7,0.7,1.1,1.6,1.1,2.7v26.4c0,5.4-1.5,9.3-4.3,11.8c-2.9,2.5-6.8,3.7-11.6,3.7
		c-1.4,0-2.8-0.1-4.3-0.3c-1.5-0.2-2.7-0.5-3.6-0.9c-2-0.9-3-2.1-3-3.6c0-0.3,0.1-0.6,0.2-1c0.2-0.9,0.7-1.6,1.3-2.1
		c0.6-0.5,1.3-0.7,2-0.7c0.4,0,0.8,0.1,1.2,0.2c0.3,0.1,0.8,0.3,1.5,0.6c0.7,0.3,1.5,0.5,2.3,0.7c0.8,0.2,1.6,0.3,2.5,0.3
		c2.9,0,5.1-0.6,6.5-1.9c1.4-1.3,2.1-3.4,2.1-6.5v-0.6c-2.2,2.7-5.5,4-10.1,4c-2.2,0-4.1-0.5-5.7-1.5c-1.7-1-2.9-2.4-3.9-4.2
		c-0.9-1.8-1.4-3.9-1.4-6.2V26.2c0-1.1,0.4-2,1.1-2.7c0.7-0.7,1.6-1.1,2.7-1.1c1.1,0,2,0.4,2.7,1.1c0.7,0.7,1.1,1.6,1.1,2.7v15.9
		c0,2.6,0.6,4.5,1.7,5.6c1.1,1.1,2.8,1.7,5,1.7c2.2,0,3.8-0.6,5-1.9c1.2-1.3,1.8-3.1,1.8-5.4V26.2c0-1.1,0.4-2,1.1-2.7
		c0.7-0.7,1.6-1.1,2.7-1.1C310.4,22.4,311.3,22.7,312,23.5z"/>
	<path class="st2" d="M350.4,10.7c0.7,0.7,1.1,1.6,1.1,2.7v38.4c0,1.1-0.4,2-1.1,2.7c-0.7,0.7-1.6,1.1-2.7,1.1c-1.1,0-2-0.4-2.6-1.1
		c-0.7-0.7-1-1.6-1.1-2.7c-1,1.2-2.4,2.2-4.2,3.1c-1.8,0.8-3.6,1.3-5.6,1.3c-2.9,0-5.4-0.7-7.8-2.2c-2.3-1.5-4.2-3.5-5.5-6.1
		c-1.3-2.6-2-5.6-2-8.9c0-3.3,0.7-6.3,2-8.9c1.3-2.6,3.1-4.7,5.4-6.1c2.3-1.5,4.8-2.2,7.6-2.2c2,0,3.9,0.4,5.6,1.1
		c1.7,0.7,3.2,1.6,4.4,2.8V13.4c0-1.1,0.4-2,1.1-2.7c0.7-0.7,1.6-1.1,2.7-1.1C348.8,9.7,349.7,10,350.4,10.7z M341.7,46.5
		c1.7-2,2.5-4.4,2.5-7.4c0-3-0.8-5.5-2.5-7.5c-1.7-2-3.9-3-6.6-3c-2.7,0-4.8,1-6.5,3c-1.7,2-2.5,4.5-2.5,7.5c0,3,0.8,5.5,2.5,7.4
		c1.7,2,3.9,3,6.6,3C337.9,49.4,340,48.4,341.7,46.5z"/>
	<path class="st2" d="M388.1,40.6c-0.7,0.6-1.6,0.9-2.6,0.9H365c0.5,2.4,1.6,4.4,3.4,5.7c1.8,1.4,3.8,2.1,6,2.1c1.7,0,3-0.2,4-0.5
		c1-0.3,1.7-0.6,2.3-1c0.6-0.4,0.9-0.6,1.1-0.7c0.7-0.4,1.4-0.6,2.1-0.6c0.9,0,1.6,0.3,2.2,0.9c0.6,0.6,0.9,1.3,0.9,2.2
		c0,1.1-0.6,2.1-1.7,3c-1.2,1-2.7,1.8-4.7,2.4c-1.9,0.7-3.9,1-5.9,1c-3.5,0-6.5-0.7-9.1-2.2c-2.6-1.4-4.6-3.4-6-6
		c-1.4-2.5-2.1-5.4-2.1-8.6c0-3.6,0.7-6.7,2.2-9.4c1.5-2.7,3.5-4.8,5.9-6.2c2.4-1.4,5.1-2.1,7.8-2.1c2.7,0,5.3,0.7,7.7,2.2
		c2.4,1.5,4.4,3.5,5.8,6c1.4,2.5,2.2,5.3,2.2,8.2C389.3,39.2,388.9,40,388.1,40.6z M365.1,35.4h16.3v-0.4c-0.2-1.7-1-3.2-2.5-4.5
		c-1.5-1.2-3.3-1.9-5.2-1.9C368.8,28.6,366,30.9,365.1,35.4z"/>
	<g>
		<path class="st2" d="M278,41.3c-1-1.4-2.3-2.4-3.8-3c-1.5-0.7-3.4-1.3-5.6-1.9c-1.6-0.5-2.9-0.8-3.8-1.1c-0.9-0.3-1.6-0.7-2.2-1.3
			c-0.6-0.6-0.9-1.3-0.9-2.2c0-2.3,1.6-3.4,4.7-3.4c1.5,0,2.8,0.3,4,0.8c1.2,0.5,2.1,1.3,2.9,2.2c0.6,0.6,1.3,0.9,2.2,0.9
			c0.7,0,1.4-0.2,2-0.7c0.8-0.6,1.2-1.4,1.2-2.4c0-0.8-0.3-1.6-0.8-2.2c-1.2-1.5-2.9-2.7-5-3.5c-2.1-0.8-4.2-1.2-6.3-1.2
			c-2.1,0-4,0.4-5.9,1.2c-1.8,0.8-3.3,1.9-4.5,3.4c-1.1,1.5-1.7,3.2-1.7,5.2c0,2.3,0.5,4.1,1.6,5.4c1.1,1.3,2.4,2.4,3.9,3
			c1.5,0.7,3.5,1.3,5.9,2c2.3,0.6,4,1.2,5.1,1.9c0.8,0.5,1.7,1.5,2,2.5c0.1,0.4,0.3,0.8,0.6,1.1c1.7,2.3,2,2.7,3.1,4.1
			c0.3,0.4,0.7,0.3,1.1,0c1.1-1.5,1.7-3.2,1.7-5.2C279.5,44.5,279,42.7,278,41.3z"/>
	</g>
	<g>
		<path class="st2" d="M255.6,47.3c0.6-0.3,1.1-0.7,1.7-1c0.7-0.4,0.9-0.4,1.3,0.3c1.2,1.6,2.6,2.7,4.4,3.5c2.9,1.1,5.7,1,8.5-0.3
			c0.6-0.3,0.9-0.2,1.2,0.3c0.7,1.2,1.4,2.3,2.1,3.5c0.4,0.6,0.3,0.9-0.3,1.2c-4.1,2.1-8.4,2.5-12.8,1c-3.4-1.1-6-3.2-8.1-6
			c-0.6-0.8-0.5-1.1,0.3-1.6C254.6,47.9,255.1,47.6,255.6,47.3z"/>
	</g>
	<g>
		<path class="st2" d="M100.9,40.9c-1-1.4-2.3-2.4-3.8-3c-1.5-0.7-3.4-1.3-5.6-1.9c-1.6-0.5-2.9-0.8-3.8-1.1
			c-0.9-0.3-1.6-0.7-2.2-1.3c-0.6-0.6-0.9-1.3-0.9-2.2c0-2.3,1.6-3.4,4.7-3.4c1.5,0,2.8,0.3,4,0.8c1.2,0.5,2.1,1.3,2.9,2.2
			c0.6,0.6,1.3,0.9,2.2,0.9c0.7,0,1.4-0.2,2-0.7c0.8-0.6,1.2-1.4,1.2-2.4c0-0.8-0.3-1.6-0.8-2.2c-1.2-1.5-2.9-2.7-5-3.5
			c-2.1-0.8-4.2-1.2-6.3-1.2c-2.1,0-4,0.4-5.9,1.2c-1.8,0.8-3.3,1.9-4.5,3.4c-1.1,1.5-1.7,3.2-1.7,5.2c0,2.3,0.5,4.1,1.6,5.4
			c1.1,1.3,2.4,2.4,3.9,3c1.5,0.7,3.5,1.3,5.9,2c2.3,0.6,4,1.2,5.1,1.9c0.8,0.5,1.7,1.5,2,2.5c0.1,0.4,0.3,0.8,0.6,1.1
			c1.7,2.3,2,2.7,3.1,4.1c0.3,0.4,0.7,0.3,1.1,0c1.1-1.5,1.7-3.2,1.7-5.2C102.5,44.1,102,42.3,100.9,40.9z"/>
	</g>
	<g>
		<path class="st2" d="M78.5,46.8c0.6-0.3,1.1-0.7,1.7-1c0.7-0.4,0.9-0.4,1.3,0.3c1.2,1.6,2.6,2.7,4.4,3.5c2.9,1.1,5.7,1,8.5-0.3
			c0.6-0.3,0.9-0.2,1.2,0.3c0.7,1.2,1.4,2.3,2.1,3.5c0.4,0.6,0.3,0.9-0.3,1.2c-4.1,2.1-8.4,2.5-12.8,1c-3.4-1.1-6-3.2-8.1-6
			c-0.6-0.8-0.5-1.1,0.3-1.6C77.5,47.5,78,47.1,78.5,46.8z"/>
	</g>
</g>
</svg>
