<svg id="circle-info" xmlns="http://www.w3.org/2000/svg" width="12.288" height="12.288" viewBox="0 0 12.288 12.288">
  <g id="Group_13" data-name="Group 13">
    <path id="Path_3" data-name="Path 3" d="M22.144,16a6.144,6.144,0,1,0,6.144,6.144A6.145,6.145,0,0,0,22.144,16Zm0,2.867a.819.819,0,1,1-.819.819A.819.819,0,0,1,22.144,18.867Zm1.024,6.554H21.12a.614.614,0,0,1,0-1.229h.41V22.554h-.2a.614.614,0,0,1,0-1.229h.819a.615.615,0,0,1,.614.614v2.253h.41a.614.614,0,1,1,0,1.229Z" transform="translate(-16 -16)"/>
  </g>
</svg>
