<svg id="Group_1192" data-name="Group 1192" xmlns="http://www.w3.org/2000/svg" xmlns:xlink="http://www.w3.org/1999/xlink" width="14.579" height="17.567" viewBox="0 0 14.579 17.567">
  <defs>
    <clipPath id="clip-path">
      <rect id="Rectangle_696" data-name="Rectangle 696" width="14.579" height="17.567" fill="#003aa8" stroke="#003aa8" stroke-width="0.5"/>
    </clipPath>
  </defs>
  <g id="Group_1192-2" data-name="Group 1192" clip-path="url(#clip-path)">
    <path id="Path_8231" data-name="Path 8231" d="M12.411,13.392v.267c0,1.07,0,2.139,0,3.209a.631.631,0,0,1-.7.7q-4.425,0-8.849,0a.633.633,0,0,1-.7-.7q0-1.615,0-3.23v-.241c-.156-.035-.306-.061-.451-.1A2.339,2.339,0,0,1,.018,11.122q-.035-1.8,0-3.607A2.341,2.341,0,0,1,1.984,5.278c.054-.01.108-.025.174-.04V5q0-2.129,0-4.258A.65.65,0,0,1,2.9,0h8.765a.648.648,0,0,1,.743.744c0,1.426,0,2.852,0,4.279,0,.174.044.235.223.264a2.366,2.366,0,0,1,1.936,2.333q.028,1.688,0,3.377a2.37,2.37,0,0,1-1.99,2.354c-.048.009-.094.022-.165.039m0-.654a1.745,1.745,0,0,0,1.535-1.748c.008-1.083,0-2.167,0-3.25a1.765,1.765,0,0,0-1.88-1.874H2.506A1.764,1.764,0,0,0,.626,7.738q0,1.573,0,3.146a3.249,3.249,0,0,0,.023.376,1.729,1.729,0,0,0,1.516,1.473V11.085H12.409ZM11.778.639H2.8V5.231h8.978Zm0,11.072H2.8V16.93h8.983Z" transform="translate(0 0)" fill="#003aa8" stroke="#003aa8" stroke-width="0.5"/>
    <path id="Path_8232" data-name="Path 8232" d="M56.135,125.575c-.279,0-.559,0-.838,0-.231,0-.365-.123-.365-.314s.133-.309.366-.31q.848,0,1.7,0c.227,0,.37.126.37.311s-.144.31-.371.313c-.286,0-.572,0-.859,0" transform="translate(-51.855 -117.947)" fill="#003aa8" stroke="#003aa8" stroke-width="0.5"/>
    <path id="Path_8233" data-name="Path 8233" d="M70.487,234.219h3.062a1.611,1.611,0,0,1,.189,0,.306.306,0,0,1,.048.6.9.9,0,0,1-.228.019H67.413c-.049,0-.1,0-.147,0a.309.309,0,0,1-.318-.319.3.3,0,0,1,.331-.3c.524,0,1.049,0,1.573,0h1.636" transform="translate(-63.196 -221.093)" fill="#003aa8" stroke="#003aa8" stroke-width="0.5"/>
    <path id="Path_8234" data-name="Path 8234" d="M69.31,265.742h1.93c.26,0,.409.12.4.319s-.149.306-.4.307q-1.951,0-3.9,0c-.264,0-.405-.116-.4-.32s.141-.3.394-.3q.986,0,1.971,0" transform="translate(-63.193 -250.851)" fill="#003aa8" stroke="#003aa8" stroke-width="0.5"/>
  </g>
</svg>
