<svg xmlns="http://www.w3.org/2000/svg" xmlns:xlink="http://www.w3.org/1999/xlink" width="24" height="20.064" viewBox="0 0 24 20.064">
  <defs>
    <clipPath id="clip-path">
      <rect id="Rectangle_738" data-name="Rectangle 738" width="24" height="20.064" fill="#2d3ddf"/>
    </clipPath>
  </defs>
  <g id="Group_1391" data-name="Group 1391" clip-path="url(#clip-path)">
    <path id="Path_8633" data-name="Path 8633" d="M10.4,47.935h7.222A3.1,3.1,0,0,1,20.8,51.1q0,4.016,0,8.031a3.093,3.093,0,0,1-3.173,3.171q-5.947.008-11.894,0a1.173,1.173,0,0,0-.757.257c-.818.629-1.648,1.242-2.468,1.867a1.485,1.485,0,0,1-1.659.214A1.5,1.5,0,0,1,0,63.176Q.007,57.14,0,51.1a3.1,3.1,0,0,1,3.176-3.168H10.4M1.6,63.105C2.432,62.479,3.223,61.9,4,61.3a2.723,2.723,0,0,1,1.756-.591q5.885.015,11.77,0A1.517,1.517,0,0,0,19.2,59.047q0-3.929,0-7.858a1.514,1.514,0,0,0-1.659-1.657H3.271A1.517,1.517,0,0,0,1.6,51.2q0,5.8,0,11.6Z" transform="translate(0 -44.74)" fill="#2d3ddf"/>
    <path id="Path_8634" data-name="Path 8634" d="M68.972,0h7.874a3.1,3.1,0,0,1,3.177,3.169q0,3.98,0,7.959a.793.793,0,0,1-.574.812.755.755,0,0,1-.888-.333,1.174,1.174,0,0,1-.132-.544c-.008-2.595-.006-5.19-.006-7.784A1.52,1.52,0,0,0,76.739,1.6q-7.861,0-15.722,0a1.527,1.527,0,0,1-.443-.047A.784.784,0,0,1,60.031.7.807.807,0,0,1,60.773,0c.075-.005.15,0,.225,0h7.974" transform="translate(-56.024 0)" fill="#2d3ddf"/>
    <path id="Path_8635" data-name="Path 8635" d="M192.113,146.5a.795.795,0,1,1,.835-.75.8.8,0,0,1-.835.75" transform="translate(-178.598 -135.254)" fill="#2d3ddf"/>
    <path id="Path_8636" data-name="Path 8636" d="M96.8,145.687a.794.794,0,0,1,.81-.775.795.795,0,1,1-.81.775" transform="translate(-90.351 -135.254)" fill="#2d3ddf"/>
    <path id="Path_8637" data-name="Path 8637" d="M144.812,145.691a.793.793,0,0,1,.808-.778.795.795,0,1,1-.808.778" transform="translate(-135.161 -135.255)" fill="#2d3ddf"/>
  </g>
</svg>
