<svg xmlns="http://www.w3.org/2000/svg" width="24.799" height="23.935" viewBox="0 0 24.799 23.935">
  <g id="Group_1394" data-name="Group 1394" transform="translate(-15.6 -9.6)">
    <g id="Group_1395" data-name="Group 1395">
      <path id="Path_8638" data-name="Path 8638" d="M0,11.045c.023-.161.04-.323.071-.482A2.723,2.723,0,0,1,2.715,8.33c.319-.008.638,0,.973,0A8.255,8.255,0,0,1,6.836,1.81,7.988,7.988,0,0,1,12.066,0a8.066,8.066,0,0,1,5.847,2.462A8.222,8.222,0,0,1,20.33,8.328c.333,0,.652-.006.97,0a2.717,2.717,0,0,1,2.649,2.225,2.33,2.33,0,0,1,.044.442c0,.789.024,1.58-.013,2.368a2.674,2.674,0,0,1-2.561,2.516c-.453.018-.907.012-1.36.01-.413,0-.58-.173-.581-.589q0-3.46,0-6.919a7.2,7.2,0,0,0-2.384-5.536A7.132,7.132,0,0,0,9.822,1.183,7.158,7.158,0,0,0,4.748,6.621a7.872,7.872,0,0,0-.194,1.811c-.022,2.244-.009,4.488-.009,6.732,0,.6-.107.713-.7.73-.038,0-.076.006-.15.011A4.667,4.667,0,0,0,4.86,19.014a5.012,5.012,0,0,0,4.5,1.679,1.858,1.858,0,0,1,.927-1.249,2.558,2.558,0,0,1,.928-.277,13.679,13.679,0,0,1,1.594-.009,1.98,1.98,0,0,1,.074,3.95,14.959,14.959,0,0,1-1.664.008A1.951,1.951,0,0,1,9.4,21.705c-.014-.043-.027-.087-.047-.149H8.605a5.7,5.7,0,0,1-5.681-4.75,4.106,4.106,0,0,1-.064-.676c0-.175-.049-.241-.237-.25A2.692,2.692,0,0,1,.071,13.664C.041,13.511.023,13.357,0,13.2V11.045m20.33,4c.373,0,.724.015,1.074,0a1.81,1.81,0,0,0,1.728-1.671,22.263,22.263,0,0,0,0-2.507,1.74,1.74,0,0,0-1.264-1.589,4.669,4.669,0,0,0-1.536-.1ZM3.683,15.05V9.175c-.363,0-.707-.017-1.05,0a1.832,1.832,0,0,0-1.746,1.71c-.04.819-.038,1.642,0,2.461a1.741,1.741,0,0,0,1.037,1.509,4.054,4.054,0,0,0,1.757.191M12.024,20c-.258,0-.516-.009-.774,0a1.123,1.123,0,0,0-1.082,1.085,1.1,1.1,0,0,0,1,1.179,12.789,12.789,0,0,0,1.686,0,1.1,1.1,0,0,0,1-1.178A1.122,1.122,0,0,0,12.774,20c-.25-.01-.5,0-.75,0" transform="translate(16 10)" fill="#2d3ddf" stroke="#2d3ddf" stroke-width="0.8"/>
    </g>
  </g>
</svg>
