<svg id="Group_1398" data-name="Group 1398" xmlns="http://www.w3.org/2000/svg" xmlns:xlink="http://www.w3.org/1999/xlink" width="20.042" height="20" viewBox="0 0 20.042 20">
  <defs>
    <clipPath id="clip-path">
      <rect id="Rectangle_739" data-name="Rectangle 739" width="20.042" height="20" fill="#2c3cde"/>
    </clipPath>
  </defs>
  <g id="Group_1396" data-name="Group 1396" clip-path="url(#clip-path)">
    <path id="Path_8639" data-name="Path 8639" d="M0,5.025a4.494,4.494,0,0,1,.21-.506A14.145,14.145,0,0,1,2.263,1.742,18.666,18.666,0,0,1,3.76.327,1.172,1.172,0,0,1,5.575.582a23.788,23.788,0,0,1,2.471,4.05,5.618,5.618,0,0,1,.245.685.982.982,0,0,1-.2.979,11.028,11.028,0,0,1-.8.785c-.183.17-.374.333-.57.488a.213.213,0,0,0-.075.284,9.106,9.106,0,0,0,2.459,3.693,9.2,9.2,0,0,0,3.047,1.845.266.266,0,0,0,.354-.089c.318-.386.65-.761.987-1.131a1.2,1.2,0,0,1,1.491-.336c.746.351,1.491.712,2.2,1.128.737.431,1.433.93,2.145,1.4a1.592,1.592,0,0,1,.65.842.851.851,0,0,1-.071.779,6.651,6.651,0,0,1-.606.819,18.024,18.024,0,0,1-3.547,2.922,1.981,1.981,0,0,1-1.575.2,13.911,13.911,0,0,1-4.655-1.919,22.874,22.874,0,0,1-7.9-8.2,12.843,12.843,0,0,1-1.5-3.936C.079,5.609.049,5.347,0,5.025M4.531,1.368c-.069.058-.1.083-.132.111a18.824,18.824,0,0,0-2.837,3.3.917.917,0,0,0-.146.755A11.514,11.514,0,0,0,2.671,8.937a21.407,21.407,0,0,0,7.872,8.125,11.37,11.37,0,0,0,4.238,1.6.487.487,0,0,0,.306-.068,17.329,17.329,0,0,0,2.722-2.163c.293-.284.57-.583.866-.886-.093-.073-.162-.131-.235-.183a24.618,24.618,0,0,0-3.684-2.193.329.329,0,0,0-.48.1c-.405.476-.833.932-1.251,1.4a.6.6,0,0,1-.67.173,9.324,9.324,0,0,1-3.089-1.465A10.125,10.125,0,0,1,5.312,8.026c-.248-.794-.3-.63.323-1.26.384-.39.818-.732,1.233-1.091a.191.191,0,0,0,.056-.28c-.453-.82-.883-1.654-1.355-2.463C5.259,2.4,4.89,1.9,4.531,1.368" transform="translate(0 0)" fill="#2c3cde"/>
  </g>
</svg>
